/* XPM */
static char *a60ac52ad5464c92f17e218048dd20e8K7ltKuWMhvAaUBsd[] = {
/* columns rows colors chars-per-pixel */
"64 64 191 2 ",
"   c #030104",
".  c #06020A",
"X  c #09030E",
"o  c #070414",
"O  c #0C0414",
"+  c #0C0914",
"@  c #0E0419",
"#  c #0E091A",
"$  c #11041D",
"%  c #110A1D",
"&  c #0F111B",
"*  c #0F0920",
"=  c #140523",
"-  c #180727",
";  c #150C23",
":  c #180C27",
">  c #170628",
",  c #19062B",
"<  c #170C28",
"1  c #1A0C2B",
"2  c #161025",
"3  c #181127",
"4  c #171028",
"5  c #191329",
"6  c #1C0730",
"7  c #1E0C32",
"8  c #1E1332",
"9  c #1F1439",
"0  c #220E34",
"q  c #240D3B",
"w  c #280E3D",
"e  c #221334",
"r  c #25133A",
"t  c #2A143D",
"y  c #212531",
"u  c #2A313F",
"i  c #313030",
"p  c #260E40",
"a  c #2B0D42",
"s  c #2F0E4B",
"d  c #320F47",
"f  c #320F4B",
"g  c #261543",
"h  c #2C1443",
"j  c #2C154A",
"k  c #271548",
"l  c #321445",
"z  c #33154B",
"x  c #39164E",
"c  c #3D184E",
"v  c #370E53",
"b  c #2E1651",
"n  c #341653",
"m  c #3A1653",
"M  c #3D1855",
"N  c #35175B",
"B  c #3C165B",
"V  c #3E185C",
"C  c #262B44",
"Z  c #2B2A4A",
"A  c #362E4E",
"S  c #3A2D59",
"D  c #363858",
"F  c #371762",
"G  c #3B1763",
"H  c #3D1863",
"J  c #3A1769",
"K  c #3E186B",
"L  c #3E2A68",
"P  c #431956",
"I  c #42165D",
"U  c #44195B",
"Y  c #4A1A5E",
"T  c #48155F",
"R  c #430F60",
"E  c #441663",
"W  c #4A1766",
"Q  c #411865",
"!  c #441863",
"~  c #4B1964",
"^  c #461669",
"/  c #4B166B",
"(  c #44186B",
")  c #4A196C",
"_  c #521A6D",
"`  c #53196A",
"'  c #4D1672",
"]  c #461872",
"[  c #451976",
"{  c #431874",
"}  c #4C1973",
"|  c #44197A",
" . c #491A7E",
".. c #4B197C",
"X. c #4D1679",
"o. c #521773",
"O. c #531974",
"+. c #5A1B74",
"@. c #561679",
"#. c #59177C",
"$. c #54197A",
"%. c #5B1A7C",
"&. c #48246A",
"*. c #522075",
"=. c #463C71",
"-. c #3A4467",
";. c #4D5566",
":. c #534271",
">. c #545A7F",
",. c #4C1A83",
"<. c #4A198B",
"1. c #551A82",
"2. c #5C1B84",
"3. c #531B8C",
"4. c #5A1B8C",
"5. c #4D1A94",
"6. c #541A95",
"7. c #5B1C93",
"8. c #541A9B",
"9. c #5B1B9B",
"0. c #611A84",
"q. c #631B8B",
"w. c #6A1C8E",
"e. c #651C94",
"r. c #6B1C92",
"t. c #641D9B",
"y. c #6B1D9D",
"u. c #731D9D",
"i. c #751D98",
"p. c #602A8B",
"a. c #662490",
"s. c #561BA2",
"d. c #5B1BA4",
"f. c #5D1CAC",
"g. c #5F1CB5",
"h. c #641DA3",
"j. c #6C1EA4",
"k. c #661DAB",
"l. c #6C1EAD",
"z. c #721EA4",
"x. c #7B1EA4",
"c. c #741EAC",
"v. c #7D1EAB",
"b. c #6D1DB4",
"n. c #631DBA",
"m. c #6C1EBA",
"M. c #651DB3",
"N. c #741FB5",
"B. c #7E1FB3",
"V. c #721EB9",
"C. c #7B1FBB",
"Z. c #7320AB",
"A. c #7B26AB",
"S. c #7920B9",
"D. c #7622B2",
"F. c #7436B1",
"G. c #5C668A",
"H. c #5A6988",
"J. c #6A658A",
"K. c #741FCC",
"L. c #7B1FC6",
"P. c #7D20C3",
"I. c #7720C8",
"U. c #7D20CE",
"Y. c #7B21D4",
"T. c #811FA5",
"R. c #821FAB",
"E. c #851FB1",
"W. c #8120A8",
"Q. c #8A20AF",
"!. c #8420B3",
"~. c #8320BD",
"^. c #8E20BA",
"/. c #9121B6",
"(. c #8320C2",
"). c #8521CB",
"_. c #8D22CE",
"`. c #9422C2",
"'. c #9C23CD",
"]. c #8621DA",
"[. c #9D24D8",
"{. c #A425DB",
"}. c #B529DF",
"|. c #9F24ED",
" X c #AF26E3",
".X c #A826FA",
"XX c #8A4DD8",
"oX c #A36CD6",
"OX c #8B99B5",
"+X c #C4A6DC",
"@X c #C0CBDC",
/* pixels */
"5 5 5 5 5 5 5 2 5 5 5 2 5 & y 2 5 5 5 5 5 5 5 5 5 5 5 2 5 5 5 5 5 5 5 5 5 5 5 2 5 3 5 3 5 5 5 5 5 5 5 5 5 5 5 5 & 5 & 5 5 5 5 5 ",
"5 5 2 @X2 5 & y 2 5 5 2 5 -.5 5 5 5 5 5 2 5 5 5 5 5 5 5 5 5 5 5 5 5 2 5 5 5 5 5 3 5 3 5 u 5 5 5 5 5 5 2 5 5 5 5 5 5 5 5 5 5 5 5 ",
"5 5 2 5 5 5 5 5 5 2 5 5 5 5 5 2 5 5 5 5 5 5 8 8 8 8 y 2 5 5 5 5 5 8 8 e e e 8 5 5 5 5 5 5 8 5 5 5 5 5 5 5 5 5 5 5 5 5 5 5 2 5 5 ",
"5 5 5 2 2 5 5 2 5 5 5 5 5 5 5 5 5 8 e e r r g t r t r 8 5 8 e e h h l x P P P Z t 8 0 t t t r 8 8 8 5 5 5 5 5 5 5 5 5 5 5 y & 5 ",
"5 5 5 5 5 2 5 5 5 5 5 5 5 5 5 8 e r t t r 8 5 5 2 2 2 ; 2 ; ; ; ; 5 5 5 t l c P P l e 8 e t h r 9 8 8 8 5 5 5 5 5 5 5 5 5 5 5 & ",
"5 5 5 5 5 5 5 2 5 5 5 5 5 8 9 r t t >.5 : 5 : ; & 2 : ; 2 2 5 ; % ; : : 2 5 D e l P +Xt 5 8 r j k y e 9 8 5 5 5 5 5 5 5 5 5 5 5 ",
"5 5 2 5 2 5 & 5 5 5 5 5 5 r g r 8 5 2 ; % 2 ; ; 5 : 5 e g x z z r 8 5 1 : % - 2 5 r P Y x 5 < t j h t r 9 8 5 5 5 5 5 & 5 5 5 5 ",
"2 5 5 5 5 5 y 2 5 5 5 e t u r 5 2 ; ; 2 ; 2 5 r h l m ! Q J F { ( E ! P l e 3 : & ; 5 t M z e e h j h r r 9 8 5 5 5 5 5 5 5 5 5 ",
"5 5 5 5 5 5 5 5 5 8 e t t e 5 2 ; ; ; 5 r l N E ( | [ [ ,.[ [ ,.3. .|  .[ ^ I c l 5 ; ; e l h 5 8 l j h y r r 5 5 5 5 5 5 5 5 5 ",
"5 5 5 5 5 5 5 5 5 8 r e 5 5 % 2 5 e h n N K [ ,.,. .[ ] W N N N W ] {  .3.3.,...( I l 5 ; 5 r r 5 t j b h t r e 5 y 5 5 5 5 5 5 ",
"2 5 5 5 5 5 5 5 8 r e 3 5 : 5 5 j m Q { ..,.] ! B z j a 0 : 1 < 0 h j z I ] [ ,.,.$.O.I e & : 8 5 5 t b n t r t 9 5 5 5 5 5 5 5 ",
"5 5 2 5 5 2 5 5 e e 5 5 : 5 r m Q } { { } W l 0 : = # + + # @ @ + + # @ ; 0 M T $.[ ,.2.~ J.# 2 5 3 e b n h r t 9 9 8 5 5 5 2 5 ",
"2 5 5 2 5 5 5 5 e 5 < 5 5 h V ( { { ( I t 7 < # # % ; 1 0 0 0 0 0 S 0 1 - % # ; t W X.3.2.! e : : : 5 t n b t r g 9 8 5 5 5 5 5 ",
"5 5 5 5 5 5 8 e 5 5 5 e x ! K { ' T t : = $ % : :.z B o.2.1.1.1.1.1.1.$.*.l 7 < # : m $.4.1.I e : ; ; e z N h r g 9 9 8 C 5 5 5 ",
"& OX5 2 5 5 8 5 : 5 e m H J } ~ z 1 : ; % : w W e.j.k.b.n.g.g.n.f.5.5.6.t.j.q.M 1 ; = t } 7.1.m 5 ; ; 5 j N n y r g 9 9 5 5 5 5 ",
"y 5 5 5 5 8 5 5 5 e n G ( ) M t 5 < < , r ! r.l.m.m.V.N.y.4.2.q.D.k.k.d.5.<.6.u.@.h ; # h O.e...h 5 % Z t N N h e k 9 9 8 5 5 2 ",
"2 5 5 -.8 y 5 5 e z H ( ! h t d 0 ; t / r.A.E.j.e.O.E B z q w w v B / 2.j.l.9.5.t.q.d ; % h $.q.M 7 ; ; 8 z F j e l h 9 9 5 5 5 ",
"2 5 5 5 8 5 5 5 j H ( m r x P w q W 4.c.z.2.) m d q , , = @ O @ $ > , w v $.t.k.<.h.$.t # ; z 0.%.0 ; % 5 b F j t t h r 9 5 5 5 ",
"5 5 5 8 e 5 5 l B Q x 0 z T a d O.j.D.z.Q g 6 > $ O o o O X X   . X o O $ 0 B r.k.s.j./ 1 @ , ! w.z < % : l J n t t t h 9 5 5 5 ",
"5 5 5 8 5 5 h N H x e l W l t +.Z.Z.0.I 6 > @ + O X X O $ $ @ o . . . . o O = f y.j.b.t.z # % h 0.! 5 % % h F N t 8 t h k 5 5 5 ",
"2 5 e r 5 r z N M 0 t +.z t O.Z.c.%.w < = + O + $ = , 0 q 7 , > = @ X     X O $ d i.b.V.$., + 7 O.%.r % % t F N h 5 t j k 5 5 5 ",
"5 5 e 5 e j N N t 8 ` ~ 0 ' h.z.+.w ; $ X @ = 0 a R o.W ^ ) H v w , = o       $ $ z z.L.y.z + , W r.j = % t G F h e l l k 8 5 5 ",
"5 5 e 5 t b N l 0 P +.e x 4.k.@.w = $ + = , q / w.E./.r.#.x.R.x./ q > $ X     X @ - o.C.S.W = % z w.z : ;.t H G h e t l j 8 5 5 ",
"5 2 5 e j N x e r +.I 7 o.9.t.B : $ O = 7 f 0.`.x.B a 6 , q v r.E.o.0 = $       O - w t.).4.< % h w.n < # t ( J h 5 Z t Z 8 5 5 ",
"5 5 5 t b N t 5 P +.r l 4.j.$.w $ $ $ 1 E v.E.@.a 6 - O O = , 6 q.E.@., , o       $ 1 1.(.7.1 % 0 2.z , % t ( J h 5 8 t z 8 5 5 ",
"5 2 e j b z 7 t _ I 1 _ t.q.z < + + - f T.`.o.a , = o     O $ > f '.R.a = O     . O - E C.t.6 + 1 W j % % g { { h < 8 j b 8 5 5 ",
"5 5 t k n g < x +.l d q.y.W 0 $ + $ a A.{.w.a = $ X       @ = 6 f (.[.#., @     O X O W R.w.A @ , ! z % % z X.K l 5 e z j 8 5 2 ",
"5 5 h j z e 8 I / t / 9.4.z < $ @ 1 O._._.I , = o       X = > 6 q.].|.r., $ .   $ . O / T.o.> @ 0 p.f % < M ..K j : 8 l j 5 5 5 ",
"5 5 h n g 5 r ) W t 1.9.' q = + + a e.Y.l.w = $ .     . @ = v i.{..XE.W , @ . . $   o / T./ = + a r.l % 0 ^ ,.H e 5 r n k 8 5 5 ",
"5 5 k Z e : z ' I h 3.4.M 7 # O $ v l.K.q.6 $ O       O > R E.}.`.B.' , = O   $ = . O / w.B # % z q.0 # h (  .N 8 5 h b j 8 5 5 ",
"5 5 g l 8 5 M ] z j 3.6.z , + X - ^ L.L.o., = .       @ q v. Xr.s , - $ X   O > w O o W o.q # $ v W : % M ] [ N 5 1 j b k 8 5 5 ",
"5 5 k k < r H K z M 4.oXh - O X 8 o.].N.f = $ .     . $ a R.x.6 @ o . .   O > f R @ O I W 1 . = T x ; 1 / ..{ P 1 8 b b b 8 5 2 ",
"5 5 j h < r F J m Q <.W r % + O , ' U.b.d = @       X $ a R.T.q O .   . O > p 1./ $ $ q w = O < z 1 ; z $.,.( l : r V N b e 5 5 ",
"5 5 j h 5 0 F J m H <.^ 0 # X O , X.).N.d = $ .     X $ q 0.E.v = $ @ = > a 2.R.f O = q 7 @ % , 1 $ , ` ..,.^ r : l P P x 5 5 5 ",
"2 5 j e : r F G n H <.^ 1 $ X + , m v.).W , $ .       @ , a q.R.@.f q f @.v.'.2.0 X < 6 % O = < $ ; z 2.,.[ M 5 5 m U x b 8 2 5 ",
"5 5 g e : r F J x H ,.! 7 % X # = z z.K.2.6 $ X       . $ , a ' e.E.^.'.{.`.0.w @ o = $ X O + O $ 0 0...,.) r % t Y M z x 8 5 5 ",
"5 5 r r 5 r N G m Q ,.Q 7 % X O @ a t.K.c.s - $ .       . $ = 6 v @.q.q.0.R 0 @ . O $ X . . X + < T 4.,.1.M % 2 l Y l A j H.5 5 ",
"5 5 r r 1 r N G l B ,.) 0 = + X @ z e.g.V.o.6 = @ .       . O $ = , 6 6 = @ X X   # X   i X + , z 0.3.4.W r % 8 Y Y t b h 5 5 5 ",
"5 5 9 r 8 r N F l l ,.X.g : + . + q $.S.n.v.I , = $ .         X O O O O X .     . .     X # , z 0.7.7.$.t # < P ~ l h L t 5 5 5 ",
"5 5 r r r e z H z g [ ,.h : # + O $ z z.m.L.r.f = = $ @ .         . X X           . . O % , z q.t.3.2.m : % h ~ Y t x j r 5 5 5 ",
"5 5 8 9 r e r H m j } X.j 5 % O X # 1 W B.n.E.#.a , , = @ o . .           .   . . o @ = 7 m a.t.<.q.M 5 # e Y ~ l t n h 5 5 5 5 ",
"5 5 8 y e 8 r F N j B ..x 1 % O + X $ 0 %.V.K.~.#.j r 6 - = $ @ O o   . X O O @ $ - 1 0 M q.t.| 4.~ 1 % : c +.c e l n r 5 5 5 5 ",
"5 5 5 5 e 5 r N N l z $.E e > # & + + - z %.B.I.P.z.o.a 0 , , - = $ $ $ $ = - > , 7 w O.z.7.<.4.+.r ; D t ` ~ t t M l 8 5 5 5 5 ",
"5 2 5 5 8 8 e j N m g } ! r < # + . y + , 0 W N.m.k.b.z.#.*.h q 6 - = - - < 7 w j / r.h.6.6.y.+.r ; % t ~ _ x r x n t 5 e 5 5 5 ",
"2 5 5 5 8 8 8 t n N j V ' z < ; + + X X @ % 0 E u.C.M.s.h.l.j.u.#.o.} ' ' ' $.e.7.9.9.XXh.2.I 0 % ; l ~ $.P t j A l 8 5 t 8 5 5 ",
"5 5 C 5 5 8 8 e b b x l O.M e : & + + X + O = 1 z %.Z.V.M.d.6.h.9.9.6.6.6.6.s.f.f.k.j.2.T w ; % 1 z _ +.P t t M n r 5 e r 5 5 5 ",
"5 5 5 5 5 8 5 8 h b M h ( ! g 5 % # X + X + + $ - q T @.7.k.h.s.s.8.8.d.d.d.k.7.4.' E a ; # % r P +.+.M t l M M t 1 5 e e 5 5 5 ",
"5 5 5 5 5 5 5 8 r k n x N ) m e : % + + + + O @ % # = 7 z O.r.r.e.7.F.4.X.X.' m z 0 % + % 0 m W $._ z e t M M r 5 5 e r e 5 5 5 ",
"5 5 5 & 5 5 5 8 8 k b n b K ! h < : % + + + + + + + # % % 0 l T T E T z 0 1 < % + # # : x _ 2.@.! l e h M M t 5 5 5 r r 8 5 5 5 ",
"5 5 5 5 5 5 5 5 8 r j b x B K M r 1 ; # + + + + X + + + + $ $ % = # $ ; % # $ % ; 1 t W %.$.( x e r x P m :.5 5 5 e r 8 5 5 5 5 ",
"5 5 5 5 5 5 5 5 y e h j b x V Q n 5 < ; # + + + # # + X + + + + # # + $ % : 0 j z T ` +.~ z e 1 t M I n t 5 2 5 e r 8 H.5 2 5 5 ",
"5 5 5 5 5 5 5 5 5 5 e h b l m H B j 3 3 ; % + + + # % % + u + + + # % ; 1 w T %.+.W m r 5 5 e x Y P x e 2 2 5 8 e e 8 5 5 5 5 5 ",
"5 5 5 5 2 5 2 5 5 8 8 g j b S M H m r 5 : ; & + + # # % : % % % # % % % ; : e r 0 , : 5 r x P Y x r 5 5 : 5 8 e 8 y 5 5 5 5 2 5 ",
"& 5 5 5 5 5 y & 5 5 8 e t k z P M M M r 5 5 : % # # # % % 3 3 t e 1 : % % ; : 5 8 r l M Y Y P t 5 5 2 2 3 8 e 8 5 5 5 5 5 5 5 5 ",
"y 5 2 5 2 5 2 5 5 5 8 OXe r k j n m m m r < 5 2 % & % & % ; 3 t g h h l l h &.I B ! I x l t 8 3 5 5 5 8 e e 5 5 5 5 5 & 5 5 5 5 ",
"2 2 5 5 5 5 5 5 5 5 5 5 8 8 r k g j n n n t r 5 3 % % % % % % % 1 7 t h j g j x l l r 8 3 3 & 3 2 5 5 e 8 5 5 Z 5 5 5 2 5 2 5 5 ",
"5 5 5 5 & 5 5 5 5 5 2 5 5 8 8 e 9 g g g b j j h e : & ; & ; & & % % 2 5 : 5 5 < 5 2 ; & 2 2 5 5 8 8 y 5 5 5 5 5 2 5 5 & C 5 5 5 ",
"2 5 5 5 y 5 2 5 5 2 5 5 5 5 5 8 9 9 9 9 9 r k k t r 5 5 : : 2 2 2 2 ; 2 & % % 2 ; 2 ; 2 5 5 8 8 5 5 5 5 5 5 5 5 2 5 5 5 5 5 5 5 ",
"5 5 5 2 2 5 5 2 5 5 5 5 5 5 5 5 8 5 8 5 8 8 8 9 r h t r 8 5 5 8 e t e 5 5 5 5 5 e e e 8 e e 8 8 5 5 5 5 5 5 5 5 5 5 5 5 & 5 5 5 ",
"5 2 5 2 5 5 5 5 5 2 5 5 5 5 5 5 5 5 5 y 5 8 5 8 8 r t t t t e e t l l t t t t t t y e e 8 5 5 5 5 5 5 5 5 5 & 5 5 5 5 5 5 H.5 5 ",
"5 5 5 5 5 2 5 5 5 5 5 2 5 5 5 5 5 5 5 5 5 5 5 5 5 5 8 8 8 e t r t e 0 y t t t e y 8 8 5 5 5 5 5 5 5 5 5 5 5 5 5 & 5 5 5 5 5 5 5 ",
"5 & 5 5 5 5 5 2 5 2 5 5 5 5 5 5 5 5 5 5 5 5 5 5 5 5 5 5 5 5 5 5 5 2 5 5 5 5 5 5 5 5 5 5 5 5 5 & 5 5 5 5 5 5 5 5 y 5 5 5 5 5 5 5 ",
"5 5 5 5 y 2 5 2 5 2 2 5 5 5 2 5 & 5 5 5 5 5 2 5 2 5 5 5 5 5 5 5 5 2 5 5 3 5 5 5 5 & 5 5 5 5 5 5 5 2 5 5 5 5 5 5 2 5 5 5 5 5 5 5 ",
"5 5 5 5 & 5 5 5 5 5 y & 5 2 5 5 OX5 5 5 5 5 5 5 5 5 5 5 5 5 5 5 5 5 5 5 5 3 5 5 5 5 5 5 5 5 5 2 5 5 5 5 5 5 & 5 5 5 5 5 5 & 5 5 "
};
