/* XPM */
static char *_cd113a835b44717d6d6573d52c735fcT15d9McgvjDDmQml[] = {
/* columns rows colors chars-per-pixel */
"64 64 214 2 ",
"   c #020403",
".  c #050A05",
"X  c #090D05",
"o  c #08060E",
"O  c #050B0A",
"+  c #0B0D0D",
"@  c #021602",
"#  c #051B00",
"$  c #0B1805",
"%  c #07130C",
"&  c #0B140B",
"*  c #151A0B",
"=  c #141B0B",
"-  c #0C0B14",
";  c #120D1D",
":  c #0B1312",
">  c #0F1618",
",  c #0E1A19",
"<  c #141515",
"1  c #131914",
"2  c #191D14",
"3  c #13131C",
"4  c #131B1A",
"5  c #1B1C1D",
"6  c #0C2302",
"7  c #062903",
"8  c #132503",
"9  c #152B01",
"0  c #1A2A07",
"q  c #1B250E",
"w  c #053905",
"e  c #1D3302",
"r  c #17330A",
"t  c #172512",
"y  c #1B2312",
"u  c #102F11",
"i  c #16211F",
"p  c #1D221D",
"a  c #212D0F",
"s  c #223702",
"d  c #253B02",
"f  c #27370B",
"g  c #232D15",
"h  c #21261B",
"j  c #232918",
"k  c #263213",
"l  c #2C3C15",
"z  c #29371A",
"x  c #161225",
"c  c #161427",
"v  c #191426",
"b  c #1C1A22",
"n  c #181228",
"m  c #1D1929",
"M  c #211E2B",
"N  c #162220",
"B  c #1D2222",
"V  c #232424",
"C  c #232628",
"Z  c #252C2B",
"A  c #2B2B2C",
"S  c #263129",
"D  c #2B302E",
"F  c #363D2C",
"G  c #2E2C32",
"H  c #322F38",
"J  c #223330",
"K  c #2B3332",
"L  c #333333",
"P  c #36383A",
"I  c #3B3B3C",
"U  c #094C09",
"Y  c #1A4407",
"T  c #045904",
"R  c #1B540C",
"E  c #274104",
"W  c #2B4303",
"Q  c #2F4903",
"!  c #324D03",
"~  c #324C08",
"^  c #355105",
"/  c #3A550B",
"(  c #3D580F",
")  c #294515",
"_  c #344519",
"`  c #3D5912",
"'  c #3E5719",
"]  c #3D541C",
"[  c #066703",
"{  c #067C05",
"}  c #14700B",
"|  c #286615",
" . c #2D7318",
".. c #307819",
"X. c #154527",
"o. c #394823",
"O. c #3D4436",
"+. c #386E25",
"@. c #2F7723",
"#. c #397B26",
"$. c #3D7930",
"%. c #405B13",
"&. c #435C1C",
"*. c #46611B",
"=. c #4A641E",
"-. c #455828",
";. c #454B3B",
":. c #4A5A35",
">. c #515D3C",
",. c #4B6522",
"<. c #4E6923",
"1. c #4E6528",
"2. c #516D25",
"3. c #52652E",
"4. c #536C29",
"5. c #427B25",
"6. c #547226",
"7. c #58732B",
"8. c #5C7B2E",
"9. c #4A6131",
"0. c #556937",
"q. c #5D7439",
"w. c #617C33",
"e. c #262A45",
"r. c #3B3941",
"t. c #413F46",
"y. c #3C4846",
"u. c #394367",
"i. c #444344",
"p. c #454C45",
"a. c #44424A",
"s. c #4A4A4A",
"d. c #4A5247",
"f. c #545D47",
"g. c #535253",
"h. c #55545A",
"j. c #5B5B5C",
"k. c #5A6447",
"l. c #606D4A",
"z. c #687B46",
"x. c #5B5961",
"c. c #5F6061",
"v. c #636364",
"b. c #6B6B6D",
"n. c #6F6D74",
"m. c #737274",
"M. c gray47",
"N. c #018B01",
"B. c #19860C",
"V. c #049702",
"C. c #298F15",
"Z. c #01A700",
"A. c #0EB506",
"S. c #19B60C",
"D. c #2BAC15",
"F. c #38A71A",
"G. c #3DBB1D",
"H. c #318E21",
"J. c #4B8A32",
"K. c #598233",
"L. c #648334",
"P. c #69853A",
"I. c #668939",
"U. c #718E3E",
"Y. c #47BC20",
"T. c #34C317",
"R. c #45D41F",
"E. c #4BC721",
"W. c #4EDE23",
"Q. c #56E626",
"!. c #5C9245",
"~. c #6D8447",
"^. c #738D46",
"/. c #769242",
"(. c #789544",
"). c #7E9A4B",
"_. c #788B56",
"`. c #6A9A51",
"'. c #7C9753",
"]. c #79A55B",
"[. c #819C4F",
"{. c #839D57",
"}. c #87A258",
"|. c #8AA45B",
" X c #8DA85D",
".X c #859763",
"XX c #8AA464",
"oX c #93AD67",
"OX c #8EB26A",
"+X c #98B26A",
"@X c #9DB673",
"#X c #9EB576",
"$X c #A2BA78",
"%X c #A6BD7C",
"&X c #A7C07F",
"*X c #A9C17E",
"=X c #B0D67E",
"-X c #596889",
";X c #7D7C81",
":X c #848385",
">X c #8A8B8C",
",X c #8393AC",
"<X c #8A9AB5",
"1X c #B1B1B1",
"2X c #ABC380",
"3X c #ACC981",
"4X c #B3CC86",
"5X c #BDD88C",
"6X c #C2DE8F",
"7X c #C9E794",
"8X c #CCEB93",
"9X c #D5F49B",
"0X c #BFCBDD",
"qX c #D2D2D2",
/* pixels */
"n n n n n n n n n n n n n n n n n n n n n n n n n n n n n n n n n n n n n n n n n n n n n n n n n n n n n n n n n n n n n n n n ",
"n n n 0Xn n n n n n n n n u.n n n n n n n n n n n n n n n n n n n n n n n n n n n n n n e.n n n n n n n n n n n n n n n n n n n ",
"n n n n n n n n n n n n n n n n n n n n n M n n n n n n n n n n n n n n n n n n n n n n n n n n n n n n n n n n n n n n n n n n ",
"n n n n n n n n n n n n n n n n n n n n n n n n n n n n n n n n n n n n n n n n n n n n n n n n n n n n n n n n n n n n n n n n ",
"n n n n n n n n n n n n n n n n n n n n n n n n n n n n n n n n n n n n n n n n n n n n n n n n n n n n n n n n n n n n n n n n ",
"n n n n n n n n n n n n n n n n n n -Xn n n n n n n n n n n n n n n n n n n u.n n n qXn n n n n n n n n n n n n n n n n n n n n ",
"n n n n n n n n n n n n n n n n n n n n n n n n n n n n n n n n n n n n n n n n n n n n n n n n n n n n n n n n n n n n n n n n ",
"n n n n n n n n n n n n n n n n n n n n n n n n n n n n n n n n n n n n n n n n n n n n n n n n n n n n n n n n n n n n n n n n ",
"n n n n n n n n n n n n n n n n n n n n n n n n n n n n n n n n n n n n n n n n n n n n n n n n n n n n n n n n n n n n n n n n ",
"n n n n n n n n n n n n n n n n n n n n n n n n n n n n n n n n n n n n n n n n n n n n n n n n n n n n n n n n n n n n n n n n ",
"n n n n n n n n n n n n n n n n v v n n n n n n n n n n n n n n n n n n n n n n n n n n n n n n n n n n n n n n n n n n n n n n ",
"n n n n n n n n n n n n n n b b M g z 5 v v n n n n n n n n n n n n n n n n n n n n n n n <Xn n n n n n n n n n n n n n n n n n ",
"n n n n n n n n n n c x ; 5 Q ~.[.XX%X7.z.! M n n M n n n n n n n -Xn n n n n n n n n n n n n n n n n n n n n n n n n n n n n n ",
"n n n n n n n n n c - O O X 1 g 6.}.}.%X$X+X%X;.,Xh.t.v.M M x n n n n n e.n n n n n n n n n n n n n n n n n n n n n n n e.n n n ",
"n <Xn n n n n n n ;   : N 5 p.< = =.L.[.U. X X+Xf.n H c.m.:Xb.n n n n n n n n n n n n n n n n n n n n n n n n n n n n n n n n n ",
"n n n n n n n n n   : : N O O K < X %.L.U.[.(.U.[.>.n M n G s.M.>Xx.n n n n n n n n n n n n n n n n n u.n n n n n n n n n n n n ",
"n n n u.n n n n n o : : 4   3   < >   _ 8.U.(.(.(.(.w.M v M L V t.b.n.n n n n n n n n n n n n n n n n n n n n n n n n n n n n n ",
"n n n n n n n n n - , :   x M L   : 4   k 7.U.(.(.(.{.%XL v a.G 2 3 G g.v n n n n n n n n n n n n n n n n n n n n n n n n n n n ",
"n n n n n n n n n - . o 3 m I 5 . . % 5 X a 6.I.(.(.(.[.@X;.v H t.A 5 G n n 5 n n n n n n n n n n n n n n n n n n n n n n n n n ",
"n n n n n n n n n n ; < v I 5 & # ! q . 5 % = =.L.(.(.(.}.%Xk.t.r.L I x.m.v B k c n n n n n n n n n n n n n n n n n n n n n n n ",
"n n n n n n n n n n n n I D q Q 9 ~ 2.k   , = 6.6.U.(.(.}.%Xk.v n M M t.x.n k.XX_ b v c n n n n n n n n n n n n n n n n n n n n ",
"n n n n n n n n n n n n 5 & E 6 9 ^ 4.4.t N O q 2.U.(.(.}.2X%Xp.a.v n x n F _.$X#X-.p n n c n n n n n n n n n n n n n n n n n n ",
"n n n n n n n n n n n n 9 s e 9 d ^ ,.4.q O : = 6.U.(.5.#.H.*X;.n P n G c F ~..X#X3X0.j c c n n n n n n <Xn n n n n n n n n n n ",
"n n n n n n n n n n n n : 9 e @ s ! =.4.4.t 4 X 2.6.^.5.Z.B.`.*XP n M t.b.:.#.+.q.@.@.| u c n v n n n n n n n n n n e.n n n n n ",
"n n n n n n n n n n n n x 9 9 9 d ^ =.2.1.2 Z   _ 7.U.5.[ F.!.*XI 5 v 5 v._  .G.G.D.D.F.T r v v n n n n n n n n n n n n n n n n ",
"n n n n n n n n n n n n c % 9 6 s ! &.4.4.& B O & 2.U.(.K.U.OX*X_.G L Z i.g R { { N.[ [ `.#X] B n n n n n n n n n n n n n n n n ",
"n n n n n n n n n n n n n x 9 6 s ! %.4.4.k C O X =.I.U.(.:.k.:.o   <   P z 6.+.8.~.K.'.#X4X7X] b n n n n n n n n n n n n n n n ",
"n n n n n n n n n n n n n x @ 6 s ! %.4.&.8 K : $ 6.L.[.o.  % : < : i <   q 2.6.I.^.^.'.%X$.H.} B.X.n n n n n n n n n n n n n n ",
"n n n n n n n n n n n n n n 3 # s Q ` ,.s + b : X =.L.-.  & O : , O . : 4 . k 6.8././.| H.B.W.S.C. .p c c n n n n n n n n n n n ",
"n n n n n n n n n n n n n n x @ e W ! d 5 ; 5 & l 6.]   : o w { N.T V.7 O A < l 2.I.I.{ T.S.} C.@.9Xo.c c c n n n n n n n n n n ",
"n n n n n n n n n n n n n n n > e W d 2 v a.C 4 a 2.X : % 7 Z.w d.S U W.R 4 A l 6.6.7.[ } C.H.&X&X9X/.k c c n n n n n n n n n n ",
"n n n n n n n n n n n 0Xn n n ; e s 2 v :XC + : = 2.= 4 . V.U + P >XI ) F.: S z 6.6.6.L.).^.).&XXXOX=X| r n n n n n n n n n n n ",
"n n n n n n n n n n n n n n n > 9 y n ;XP x O : q 6.= , . T V < + V M.d.Y.t C   _ 6.6.I.(.(.(.J.[ F.G.D.C.m v v n n n n n n n n ",
"n n n n n n n n n n n n n n n 3 0 x a.a.x 1.= 4 O q & : % N.s.M.A + < V ..O Z X   z 6.6.L.(.I.T E.R.T.Z.[ 5 v c n n n n n n n n ",
"n n n n n n n n n n n n n n n x x v H n _ 4.q X , O   : O { w I >XI X | E.& K < O   g 6.6.L.U.B.Z.V.[ OX<.5 n n n n n n n n n n ",
"n n n n n n n n n n n n n n n n m m n q W / 1.8   O O , @ w A.| A d.) Q.r K P   . % . = =.6.L. .5.].].5X6XM n n n n n n n n n n ",
"n n n n n n n n n n n n n n n n v v 1 s s W W 2 3       :   u E...Y.F.R Z y.  _.>.X < % X &.w.(.(.+X%X%X=XM n n n n n n n -Xn n ",
"n n n n n n n n n n n n n n n n v x % 6 s s q n j.c . .   + . & O t - 4 O.- k.4X8Xl.  b V   _ 8./.|.-.;.>.v n n n n n n n n n n ",
"n n n n n n n n n n n n n n n n n n n < $ 0 x r.t.5 -.&.l   O 4 D C S K < _ (. X*X5XXX. V P o f h S I b.m.n.n n n n n e.n n n n ",
"n n n n n n n n n n n n n n n n n n n n x ; v M x f %.4.4.] X y j = % l _ (.(. X2X*X*X*Xj O.  + V i.m.qX1X:Xn n n n n n n n n n ",
"n n n n n n n n n n n n n n n n n n n n n n I n q s W / <.4.1.4.q._.) a <.P.(.(.oX*X4X6X%X8XF V i.v.:X:Xm.>Xv v n n n n n n n n ",
"n n n n n n n n n n n n n n n n n n n n n n n > 9 s s Q ^ =.4.4.6.q.'.o.7 ,.L.(.(.@X9X8X6Xl.5 I j.b.g.. N y.5 ; n n n n n n n n ",
"n n n n n n n n n n n n n n n n e.n n n n n n n : 6 e Q ^ ^ *.2.4.4.7._.9.# ] K.(.+X2X7X_.5 s.s.v.s.  4 i B A ; n n n n n n n n ",
"n n n n n n n n n n n n n n n n n n -Xn n n n n x > 6 e W ! ! %.4.4.4.4.~.l.6 _ 8.(.#X_.< p.i.s.g.X , : + i Z ; n n n n n n n n ",
"n n n n n n n n n n n n n n n n n n n n n n n n n n 3 # 9 W ! ^ ` <.4.4.4.P.~.u ,.(.{.5 I i.i.v.< O >   J : V o n n n n n n n n ",
"n n e.n n n n n n n n n n n n n n n n n n n n n n n n x # 9 E Q ! / <.4.4.4._.] ] 8.j L s.I j.V X +   4 : + y.3 n n n n n n n n ",
"n n n n n n n n n n n n n n n n n n n n n n n n n n n n c % 8 d Q ^ ^ =.4.4.~.0.,.k Z s.I j.L   +   : > . J J b n n n n n n n n ",
"n n n n n n n n n n n n n n n n n n n n n n n n n n n n x x : $ s Q Q *.4.4.4.9.% B g.I g.I   +   O 4   4 : g g n n n n n n n n ",
"n n n n n n n n n n n n n n n n n n n n n n n n n n n n n n n > 6 e W / ,.4.7.0.$ s.I s.s.  O O   :   > : = ^.=.v n n n n n n n ",
"n n n n n n n n n n n n n n n n n n n n n n n n n n n n n n n n 3 # 9 W ! ,.7._.1 L I j.O O O   :   % , . w.oX~.v n n n n n n n ",
"n n n n n n n n n n n n n n n n n n n n n n n n n n n n n n n n n x @ : 6 E _ w.D s.I A   O O O + O :   3. XoXQ v n n -Xn n n n ",
"n n n n n n n n n n n n n n n n n n n n n n n n n n n n n -Xn n n n n n 3 x : V n i.I r.. O O O O     -.}.#X( v v n n n n n n n ",
"n n n n n n n n n n n n n n n n n n n n n n n n n n n n n n n n n n n n n n n n v H C g.< : O % : % y /.@X<.p n n n n n n n n n ",
"n n n n n n n n n n n n n n n n n n n n n n n n n n n n n n n n n n n x n n n n n n n n   : O O - - o B V 5 n n n n n n n n n n ",
"n n n n n n n n n n n <Xn n n n n n n n n n n n n n n n n n n n n n n n n n e.n n n n n n n n n c n n n x n n n n n n n n n n n ",
"n n n n n n n n n n n n n n n n n n n n n n n n n n n n n n n n n n n n n n n n n n n n n n n n n n n n n n n e.n n n n n n n n ",
"n n n n n n n n n n n n n n n n n n n n n n n n n n n n n n n n n n n n n n n n n n n n n n n n n n n n n n n n n n n n e.n n n ",
"n n n n n n n n n n n n n n n n n n n n n n n n n n n n n n n n n n n n n n n n n n n n n n n n n n n n n n n n n n n n n n n n ",
"n n n n n n n n n n n n n n n n n n n n n n n n n n n n n n n n n n n n n n n n n n n n n n n n n n n n n n n n n n n n n n n n ",
"n n n n n n n n n n n n n n n n n n n n n n n n n n n n n n n n n n n n n n n n n n n n n n n n n n n n n n n n n n n n n -Xn n ",
"n n n n n n n n n n n n n n n n n n n n n n n n n n n n n n n n n n n n n n n n n n n n n n n n n n n n n n n n n n n n n n n n ",
"n n n n n n n n n n n n n n n n n n n n n n n n n n n n n n n n n n n n n n n n n n n n n n n n n n n n n n n n n n n n n n n n ",
"n n n n n n n n n n n n n n n n n n n n n n n n n n n n n n n n n n n n n n n n n n n n n n n n n n n n n n n n n n n n n n n n ",
"n n n n n n n n n n n n n n n n <Xn n n n n n n n n n n n n n n n n n n n n n n n n n n n n n n n n n n n n n n n n n n n n n n "
};
