/* XPM */
static char *_049bcecfda3470fe195d9a8378fb7ac6Y5QvVExSMtAxepo[] = {
/* columns rows colors chars-per-pixel */
"64 64 131 2 ",
"   c #010101",
".  c #090B05",
"X  c #060608",
"o  c #020A08",
"O  c #0D0D0D",
"+  c #011601",
"@  c #031901",
"#  c #04120F",
"$  c #0F100E",
"%  c #0F0F11",
"&  c #100F12",
"*  c #091211",
"=  c #111112",
"-  c #1A1C17",
";  c #111E1C",
":  c #16211F",
">  c #213602",
",  c #223802",
"<  c #293E06",
"1  c #26340D",
"2  c #273A0B",
"3  c #171227",
"4  c #181227",
"5  c #171128",
"6  c #181228",
"7  c #172321",
"8  c #192523",
"9  c #242425",
"0  c #233532",
"q  c #2F3535",
"w  c #263936",
"e  c #333536",
"r  c #313837",
"t  c #373639",
"y  c #323938",
"u  c #3A3A3A",
"i  c #064909",
"p  c #035404",
"a  c #035B02",
"s  c #085D05",
"d  c #09520A",
"f  c #0B5A0A",
"g  c #2B4302",
"h  c #334F03",
"j  c #304708",
"k  c #344D09",
"l  c #345004",
"z  c #026001",
"x  c #0C6109",
"c  c #4F6B24",
"v  c #516D25",
"b  c #536C29",
"n  c #547226",
"m  c #61773D",
"M  c #647A3E",
"N  c #262A45",
"B  c #374063",
"V  c #394367",
"C  c #4C4C4D",
"Z  c #4F4E50",
"A  c #4C5856",
"S  c #515151",
"D  c #565659",
"F  c #525F5D",
"G  c #5B5B5C",
"H  c #605F63",
"J  c #636363",
"K  c #747377",
"L  c #7B7A7D",
"P  c #069C06",
"I  c #05A205",
"U  c #01AC01",
"Y  c #06B203",
"T  c #6F893F",
"R  c #4BC426",
"E  c #4ECC25",
"W  c #4FD725",
"Q  c #52DC25",
"!  c #54E325",
"~  c #57E927",
"^  c #58EB27",
"/  c #6C8441",
"(  c #6E8A41",
")  c #738F43",
"_  c #769342",
"`  c #789544",
"'  c #738650",
"]  c #768B52",
"[  c #798F54",
"{  c #7B9055",
"}  c #8EA16E",
"|  c #92A571",
" . c #99B076",
".. c #9EB877",
"X. c #9FBB78",
"o. c #A1B977",
"O. c #A1B57A",
"+. c #A5BD7C",
"@. c #A8BF7F",
"#. c #A7C07D",
"$. c #A8C17E",
"%. c #596889",
"&. c #818182",
"*. c #848385",
"=. c #868686",
"-. c #8B8B8B",
";. c #8D8D8D",
":. c #929292",
">. c #9B999E",
",. c #8695AF",
"<. c #9F9DA2",
"1. c #8A9AB5",
"2. c #A2A1A5",
"3. c #A7A6A8",
"4. c #AFAFB0",
"5. c #BAB9BA",
"6. c #AAC280",
"7. c #ABC381",
"8. c #B1C986",
"9. c #B4CD88",
"0. c #B7D089",
"q. c #BBD98A",
"w. c #C5E392",
"e. c #C9E694",
"r. c #CDF295",
"t. c #D4F49A",
"y. c #DCFDA0",
"u. c #BFCBDD",
"i. c gray77",
"p. c #E4E4E5",
"a. c gray97",
/* pixels */
"6 6 6 6 6 6 6 6 6 6 6 6 6 6 6 6 6 6 6 6 6 6 6 6 6 6 6 6 6 6 6 6 6 6 6 6 6 6 6 6 6 6 6 6 6 6 6 6 6 6 6 6 6 6 6 6 6 6 6 6 6 6 6 6 ",
"6 6 6 u.6 6 6 6 6 6 6 6 6 V 6 6 6 6 6 6 6 6 6 6 6 6 6 6 6 6 6 6 6 6 6 6 6 6 6 6 6 6 6 6 N 6 6 6 6 6 6 6 6 6 6 6 6 6 6 6 6 6 6 6 ",
"6 6 6 6 6 6 6 6 6 6 6 6 6 6 6 6 6 6 6 6 6 6 6 6 6 6 6 6 6 6 5 5 6 6 6 6 6 6 6 6 6 6 6 6 6 6 6 6 6 6 6 6 6 6 6 6 6 6 6 6 6 6 6 6 ",
"6 6 6 6 6 6 6 6 6 6 6 6 6 6 6 6 6 6 6 6 6 6 6 6 6 6 6 6 6 6 5 X       4 6 6 6 6 6 6 6 6 6 6 6 6 6 6 6 6 6 6 6 6 6 6 6 6 6 6 6 6 ",
"6 6 6 6 6 6 6 6 6 6 6 6 6 6 6 6 6 6 6 6 6 6 6 6 6 6 6 6 6 6   ; # * *   6 4 4 4 6 6 6 6 6 6 6 6 N 6 6 6 6 6 6 6 6 6 6 6 6 6 6 6 ",
"6 6 6 6 6 6 6 6 6 6 6 6 6 6 6 6 6 6 %.6 6 6 6 6 6 6 6 6 6 X ; o * 7 7   g g B 6 6 6 i.6 6 6 6 6 6 6 6 6 6 6 6 6 6 6 6 6 6 6 6 6 ",
"6 6 6 6 6 6 6 6 6 6 6 6 6 6 6 6 6 6 6 6 6 6 6 6 6 6 6 6 6 X ; * : 7   A X ( j 4 6 6 6 6 6 6 6 6 6 6 6 6 6 6 6 6 6 6 6 6 6 6 6 6 ",
"6 6 6 6 6 6 6 6 6 6 6 6 6 6 6 6 6 6 6 6 6 6 6 6 6 6 6 6 6 X           q X v o.k 4 6 6 6 6 6 6 6 6 6 6 6 6 6 6 6 6 6 6 6 6 6 6 6 ",
"6 6 6 6 6 6 6 6 6 6 6 6 6 6 6 6 6 6 6 6 6 6 6 6 6 6 6 6 3 5 3 3 3 6   r o c +.$.l 4 6 6 6 6 6 6 6 6 6 6 6 6 6 6 6 6 6 6 6 6 6 6 ",
"6 6 6 6 6 6 6 6 6 6 6 6 6 6 6 6 6 6 6 6 6 6 6 6 6 6 6 6 4 C Z u u C X 7   c T $.l 6 6 6 6 6 6 6 6 6 6 6 6 6 6 6 6 6 6 6 6 6 6 6 ",
"6 6 6 6 6 6 6 6 6 6 6 6 6 6 6 6 6 6 6 6 6 6 6 6 6 6 6 + > O O O O O   :   c T #.$.k 6 6 6 6 6 6 6 6 6 6 6 6 6 6 6 6 6 6 6 6 6 6 ",
"6 6 6 6 6 6 6 6 6 6 6 6 6 6 6 6 6 6 6 6 6 6 6 6 6 6 4 + > > h h + +   :   n ` ` $.l 6 6 6 1.6 6 6 6 6 6 6 6 6 6 6 6 6 6 6 6 6 6 ",
"6 6 6 6 6 6 6 6 6 6 6 6 6 6 6 6 6 6 6 6 6 6 6 6 6 6 + > > > + + > h . :   c _ ` @.@.6 6 6 6 6 6 6 6 6 6 6 6 6 6 6 6 6 6 6 6 6 6 ",
"6 6 6 6 6 6 6 6 6 6 6 6 6 6 6 6 6 6 6 6 6 6 6 5 1.6 + > + + > h h b   :   v _ ` ` #.6 6 6 6 6 6 6 6 6 6 6 6 6 6 6 6 6 6 N 6 6 6 ",
"6 1.6 6 6 6 6 6 6 6 6 6 6 6 6 6 6 6 6 6 6 6 5 5 5 + > + > > h h c b   :   c _ ` ` #.4 %.6 6 6 6 6 6 6 6 6 6 6 6 6 6 6 6 6 6 6 6 ",
"6 6 6 6 6 6 6 6 6 6 6 6 6 6 6 6 6 6 6 6 6 6 5 5 5 + + > > h h c b b   :   v _ ` ` ` 4 } 4 6 6 6 6 6 6 V 6 6 6 6 6 6 6 6 6 6 6 6 ",
"6 6 6 V 6 6 6 6 6 6 6 6 6 6 6 6 6 6 6 6 6 6 6 6 + + > > h h b b b   : *   v _ ` ` ` 4 C &.4 6 6 6 6 6 6 6 6 6 6 6 6 6 6 6 6 6 6 ",
"6 6 6 6 6 6 6 6 6 6 6 6 6 6 6 6 6 6 6 6 6 6 6 6 + > > h h b b b b   :   v n _ ` ` _ 4 C =.6 6 6 6 6 6 6 6 6 6 6 6 6 6 6 6 6 6 6 ",
"6 6 6 6 6 6 6 6 6 6 6 6 6 6 6 6 6 6 6 6 6 6 6 + > > h h b b b b . : o   v n ` ` ` +.4 4 C 3.6 6 6 6 6 6 6 6 6 6 6 6 6 6 6 6 6 6 ",
"6 6 6 6 6 6 6 6 6 6 6 6 6 6 6 6 6 6 6 6 6 4 + > > h h b b b b   r *   v n _ ` ` _ +.4 4 t &.6 6 6 6 6 6 6 6 6 6 6 6 6 6 6 6 6 6 ",
"6 6 6 6 6 6 6 6 6 6 6 6 6 6 6 6 6 6 6 6 6 + > > > > > > > >   r *   v n _ ` ` _ _ +.5 H & L 6 6 6 6 6 6 6 6 6 6 6 6 6 6 6 6 6 6 ",
"6 6 6 6 6 6 6 6 6 6 6 6 6 6 6 6 6 6 6 6 6 6 5 5 4 4 6 6 4   r * o   v n _ ` ` ` +.@.6 C & G >.4 6 6 6 6 6 6 6 6 6 6 6 6 6 6 6 6 ",
"6 6 6 6 6 6 6 6 6 6 6 6 6 6 6 6 6 6 6 6 C 6 C *.5.5.-.S   y * o   n n _ ` a _ @.@.@.4 C & t 2.4 6 6 6 6 1.6 6 6 6 6 6 6 6 6 6 6 ",
"6 6 6 6 6 6 6 6 6 6 6 6 6 6 6 6 6 6 3 3 3 5 5 6 4 4 6   y *     v n ` _ a U a +.@.6 J Z t & <.4 6 6 6 6 6 6 6 6 6 6 N 6 6 6 6 6 ",
"6 6 6 6 6 6 6 6 6 6 6 6 6 6 6 6 6 6 6 6 + > > h b b   ; #   v n n _ ` ` a ~ a o.6.4 6 e 9 & C 6 6 6 6 6 6 6 6 6 6 6 6 6 6 6 6 6 ",
"6 6 6 6 6 6 6 6 6 6 6 6 6 6 6 6 6 6 6 6 + > > h b   ; *   n n n _ ` ` _ _ a #.6.6 J 4 t t & H 4 6 6 6 6 6 6 6 6 6 6 6 6 6 6 6 6 ",
"6 6 6 6 6 6 6 6 6 6 6 6 6 6 6 6 6 6 6 %.+ > > h b   ;   n n             #.#.6.#.4 Z 4 4 D K ,.5 6 6 6 6 6 6 6 6 6 6 6 6 6 6 6 6 ",
"6 6 6 6 6 6 6 6 6 6 6 6 6 6 6 6 6 6 6 6 + > > > >   ;   v   ; ; : # * *   #.6.5 6 6 4 4 L <.5 5 6 V 6 6 6 6 6 6 6 6 6 6 6 6 6 6 ",
"6 6 6 6 6 6 6 6 6 6 6 6 6 6 6 6 6 6 6 6 3 6 4 3 5   *     ; *         : *   * S 4 t Z 4 6 6 6 1 6 6 6 6 6 6 6 6 6 6 6 6 6 6 6 6 ",
"6 6 6 6 6 6 6 6 6 6 6 6 6 6 6 6 6 6 6 6 C 6 C 5.C   *   ; *   U U U U   7 *   e u % *.4 M m 6.1 6 6 6 6 6 6 6 6 6 6 6 6 6 6 6 6 ",
"6 6 6 6 6 6 6 6 6 6 6 6 6 6 6 6 6 6 6 6 5 3 3 3 3     ; *   U O O O O U   : :   9 *.= / M | 8.1 6 6 6 6 6 6 6 6 6 6 6 6 6 6 6 6 ",
"6 6 6 6 6 6 6 6 6 6 6 u.6 6 6 6 N 6 6 5 + > > h b     *   U O -.O O -.O U   7   Z & b d / | 8.1 6 6 6 6 6 6 6 6 6 6 6 6 6 6 6 6 ",
"6 6 6 6 6 6 6 6 6 6 6 6 6 6 6 6 6 6 6 6 + , , h b b   *   U O ;.O O ;.O U   7   O c p Q p | 9.2 6 4 4 6 6 6 6 6 6 6 6 6 6 6 6 6 ",
"6 6 6 6 6 6 6 6 6 6 6 6 6 6 6 6 6 6 6 6 + > , h b b   *   ^ O ;.O O -.O ^   7   n v p I W d 9.2 6 4 6 6 6 6 6 6 6 6 6 6 6 6 6 6 ",
"6 6 6 6 6 6 6 6 6 6 6 6 6 6 6 6 6 6 3 6 + > l h b b   *   ~ O ;.O O -.O ~   r   n v ) p P E d 2 6 6 6 6 6 6 6 6 6 6 6 6 6 6 6 6 ",
"6 6 6 6 6 6 6 6 6 6 6 6 6 6 6 6 6 6 3 3 + > h h b b   ; 7   ~ O O O O ~   7 y   n v _ ( p P R i 6 6 6 6 6 6 6 6 6 6 6 6 6 6 6 6 ",
"6 6 6 6 6 6 6 6 6 6 6 6 6 6 6 6 6 6 6 6 + , h l b b b   r 7   ~ ^ ~ ~   7 y   n n _ _ ) ) p p i 6 6 6 6 6 6 6 6 6 6 6 6 6 %.6 6 ",
"6 6 6 6 6 6 6 6 6 6 6 6 6 6 6 6 6 6 6 6 + > h h b b b {   r 7         7 r   n n b _ ) ) 6. .q.< 6 6 6 6 6 6 6 6 6 6 6 6 6 6 6 6 ",
"6 6 6 6 6 6 6 6 6 6 6 6 6 6 6 6 6 6 6 6 + > h l b b b ] +   y y F F F r     n n n _ p s O.O.w.< 6 6 6 6 6 6 6 6 6 6 6 N 6 6 6 6 ",
"6 6 6 6 6 6 6 6 6 6 6 6 6 6 6 6 6 6 6 6 + , h l b b b { @ n             o   n n n a U ! d f e.< 6 6 6 6 6 6 6 6 6 6 6 6 6 6 6 6 ",
"6 6 6 6 6 6 6 6 6 6 6 6 6 6 6 6 6 6 6 6 @ > l l b b b { @ n ` ` ` 6.+.  *   n n ` T z Y Q Q f < 6 6 6 6 6 6 6 6 6 6 6 6 6 6 6 6 ",
"6 6 6 6 6 6 6 6 6 6 6 6 6 6 6 6 6 6 6 6 + , h l b b b { @ n ` ` ` 6.t.  *   n n ` ` T a a U W p 6 6 6 6 6 6 6 6 6 6 6 6 6 6 6 6 ",
"6 6 6 6 6 6 6 6 6 6 6 6 6 6 6 6 N 6 6 6 @ , h l v b n [ @ n ` ` 7.6.+.  ;   n n ` _ ` #...a a p 6 6 6 %.6 6 6 6 6 6 6 6 6 6 6 6 ",
"6 6 6 6 6 6 6 6 6 6 6 6 6 6 6 6 6 6 %.6 + , h l b b v { @ n ` ` 7.6.t.  ; . n n ` ` ` $.6.t.e.g 6 6 6 6 6 6 6 6 6 6 6 6 6 6 6 6 ",
"6 6 6 6 6 6 6 6 6 6 6 6 6 6 6 6 6 6 6 6 + , l b b b b ] @ n ` ` 6.6.+.  y   n n _ a a x $.t.k 3 6 6 6 6 6 6 6 6 6 6 6 6 6 6 6 6 ",
"6 6 N 6 6 6 6 6 6 6 6 6 6 6 6 6 6 6 6 6 @ > l b b b } ' @ n ` 7.y.7.t.  y   n _ a Y ~ ! x t.g 5 6 6 6 6 6 6 6 6 6 6 6 6 6 6 6 6 ",
"6 6 6 6 6 6 6 6 6 6 6 6 6 6 6 6 6 6 6 6 6 + l v b b { @ n ` ` 7.7.y.+.  F   n ` T z Y ^ ! a g 5 6 6 6 6 6 6 6 6 6 6 6 6 6 6 6 6 ",
"6 6 6 6 6 6 6 6 6 6 6 6 6 6 6 6 6 6 6 6 4 @ h b b { @ n n ` $.6.y.7.y.t.    n ` ` X.z z Y ! p 3 6 6 6 6 6 6 6 6 6 6 6 6 6 6 6 6 ",
"6 6 6 6 6 6 6 6 6 6 6 6 6 6 6 6 6 6 6 6 6 6 @ b [ + O O O O O O O O $ $ O O = ` $.$.$.r.a p 6 6 6 6 6 6 6 6 6 6 6 6 6 6 6 6 6 6 ",
"6 6 6 6 6 6 6 6 6 6 6 6 6 6 6 6 6 6 6 6 6 6 @ ' = = S S S Z S S S S S u u u u O - 6.$.t.g 6 6 6 6 6 6 6 6 V 6 6 6 6 6 6 6 6 6 6 ",
"6 6 6 6 6 6 6 6 6 6 6 6 6 6 6 6 6 6 6 6 6 6 6 3 S C 9 u t u u u u u u J J J J J G : t.j 6 6 6 6 6 6 6 6 6 6 6 6 6 6 6 %.6 6 6 6 ",
"6 6 6 6 6 6 6 6 6 6 6 6 6 6 6 6 6 6 6 6 6 6 4 =.9 u J J J J J J J J J J J -.:.a.-.G 3 6 6 6 6 6 6 6 6 6 6 6 6 6 6 6 6 6 6 6 6 6 ",
"6 6 6 6 6 6 6 6 6 6 6 6 6 6 6 6 6 6 6 6 6 6 6 6 u H                         O ;.i.p.4 4 6 6 6 6 6 6 6 6 6 6 6 6 6 6 6 6 6 6 6 6 ",
"6 6 6 6 6 6 6 6 6 6 6 6 6 6 6 6 6 6 6 6 6 6 6 6 G   o o * * * * $ * * 7 7 8 0 O 4.4 4 4 6 6 6 6 6 6 6 6 6 6 6 6 6 6 6 6 6 6 6 6 ",
"6 6 6 6 6 6 6 6 6 6 6 1.6 6 6 6 6 6 6 6 6 6 6 6   ; o O                     8 A X 4 4 4 6 6 6 6 6 6 6 6 6 6 6 6 6 6 6 6 6 6 6 6 ",
"6 6 6 6 6 6 6 6 6 6 6 6 6 6 6 6 6 6 6 6 6 6 6 6   ; o o * * * * 7 7 7 7 w 0 X r   4 4 4 6 6 6 6 6 6 6 6 6 6 6 N 6 6 6 6 6 6 6 6 ",
"6 6 6 6 6 6 6 6 6 6 6 6 6 6 6 6 6 6 6 6 6 6 6 6 5   ; o o $               X e   6 6 6 6 6 6 6 6 6 6 6 6 6 6 6 6 6 6 6 6 N 6 6 6 ",
"6 6 6 6 6 6 6 6 6 6 6 6 6 6 6 6 6 6 6 6 6 6 6 6 5 3   ; o o * 8 7 7 7 w w A   5 6 6 6 6 6 6 6 6 6 6 6 6 6 6 6 6 6 6 6 6 6 6 6 6 ",
"6 6 6 6 6 6 6 6 6 6 6 6 6 6 6 6 6 6 6 6 6 6 6 6 5 6 3   *             X r X 5 6 6 6 6 6 6 6 6 6 6 6 6 6 6 6 6 6 6 6 6 6 6 6 6 6 ",
"6 6 6 6 6 6 6 6 6 6 6 6 6 6 6 6 6 6 6 6 6 6 6 6 6 6 5 5 . _ ` ` _ ` _ T   6 6 6 6 6 6 6 6 6 6 6 6 6 6 6 6 6 6 6 6 6 6 6 6 %.6 6 ",
"6 6 6 6 6 6 6 6 6 6 6 6 6 6 6 6 6 6 6 6 6 6 6 6 6 6 6 6 6 k $.$.7.6.O.j 5 6 6 6 6 6 6 6 6 6 6 6 6 6 6 6 6 6 6 6 6 6 6 6 6 6 6 6 ",
"6 6 6 6 6 6 6 6 6 6 6 6 6 6 6 6 6 6 6 6 6 6 6 6 6 6 6 6 6 6 l g g g < 6 5 6 6 6 6 6 6 6 6 6 6 6 6 6 6 6 6 6 6 6 6 6 6 6 6 6 6 6 ",
"6 6 6 6 6 6 6 6 6 6 6 6 6 6 6 6 6 6 6 6 6 6 6 6 6 6 6 6 6 6 6 6 4 4 6 6 6 6 6 6 6 6 6 6 6 6 6 6 6 6 6 6 6 6 6 6 6 6 6 6 6 6 6 6 ",
"6 6 6 6 6 6 6 6 6 6 6 6 6 6 6 6 1.6 6 6 6 6 6 6 6 6 6 6 6 6 6 6 6 4 6 6 6 6 6 6 6 6 6 6 6 6 6 6 6 6 6 6 6 6 6 6 6 6 6 6 6 6 6 6 "
};
