/* XPM */
static char *_0a96944149f4f3088081db876208ba1W4tGBKBv8gq5ELY9[] = {
/* columns rows colors chars-per-pixel */
"64 64 213 2 ",
"   c #020403",
".  c #050A05",
"X  c #070909",
"o  c #060C0B",
"O  c #0A0D0C",
"+  c #021603",
"@  c #0B1307",
"#  c #051B01",
"$  c #0B1D04",
"%  c #06150A",
"&  c #0A110D",
"*  c #0E1D0B",
"=  c #10110F",
"-  c #161D0C",
";  c #0D0B15",
":  c #0E0B17",
">  c #120E1D",
",  c #0C1413",
"<  c #0D1517",
"1  c #0E1917",
"2  c #131413",
"3  c #131915",
"4  c #1A1E15",
"5  c #12141C",
"6  c #121B1A",
"7  c #1A1C1C",
"8  c #0C2102",
"9  c #082704",
"0  c #152A01",
"q  c #1A2E01",
"w  c #182609",
"e  c #053905",
"r  c #1D3202",
"t  c #15310A",
"y  c #1C2412",
"u  c #142A12",
"i  c #152916",
"p  c #15211F",
"a  c #1C221B",
"s  c #212E0D",
"d  c #213602",
"f  c #253C02",
"g  c #27380A",
"h  c #222C15",
"j  c #20241A",
"k  c #232A1A",
"l  c #263313",
"z  c #293815",
"x  c #2C3B15",
"c  c #130F21",
"v  c #161224",
"b  c #161526",
"n  c #191426",
"m  c #1C1C22",
"M  c #181228",
"N  c #1E192C",
"B  c #211D2B",
"V  c #241E32",
"C  c #1D2122",
"Z  c #1D2C29",
"A  c #232525",
"S  c #232A25",
"D  c #262C2C",
"F  c #28292C",
"G  c #2C2D2D",
"H  c #263129",
"J  c #313A22",
"K  c #262232",
"L  c #2A2735",
"P  c #2C2837",
"I  c #312D3B",
"U  c #293130",
"Y  c #343436",
"T  c #35383B",
"R  c #3B3C3B",
"E  c #0A490A",
"W  c #164B09",
"Q  c #065A03",
"!  c #1B540D",
"~  c #2B4302",
"^  c #2D4703",
"/  c #334F03",
"(  c #344C0B",
")  c #365207",
"_  c #3A550B",
"`  c #284517",
"'  c #344717",
"]  c #394C1A",
"[  c #295615",
"{  c #3B5813",
"}  c #3E541C",
"|  c #096906",
" . c #14670B",
".. c #067804",
"X. c #15730D",
"o. c #1E6C14",
"O. c #256616",
"+. c #287317",
"@. c #33761C",
"#. c #3B452A",
"$. c #3E4436",
"%. c #367B23",
"&. c #415C14",
"*. c #435C1B",
"=. c #49631D",
"-. c #455A25",
";. c #434A38",
":. c #4C5B36",
">. c #4A6322",
",. c #4E6823",
"<. c #4B6128",
"1. c #516C25",
"2. c #51642E",
"3. c #536C29",
"4. c #547226",
"5. c #567329",
"6. c #5A762D",
"7. c #5C7A2D",
"8. c #4F6437",
"9. c #576B37",
"0. c #5C7733",
"q. c #617D33",
"w. c #647C3D",
"e. c #262A45",
"r. c #3B3747",
"t. c #3E3B44",
"y. c #403E45",
"u. c #334441",
"i. c #394367",
"p. c #444444",
"a. c #45464A",
"s. c #4B4B4B",
"d. c #4B5449",
"f. c #514F58",
"g. c #4D5252",
"h. c #535353",
"j. c #57555D",
"k. c #5A5A5B",
"l. c #5B6845",
"z. c #687E46",
"x. c #707D5D",
"c. c #5E5E60",
"v. c #615E6B",
"b. c #646367",
"n. c #6C6B6E",
"m. c #716F74",
"M. c #767578",
"N. c #068803",
"B. c #1A850D",
"V. c #059602",
"C. c #189A0B",
"Z. c #278916",
"A. c #1CAE0E",
"S. c #07B003",
"D. c #3BA41C",
"F. c #2CB317",
"G. c #338422",
"H. c #3DA722",
"J. c #49862E",
"K. c #4A8732",
"L. c #598634",
"P. c #648234",
"I. c #688939",
"U. c #718F3F",
"Y. c #4AA52E",
"T. c #47BC20",
"R. c #37CB19",
"E. c #4AC621",
"W. c #48D720",
"Q. c #55E626",
"!. c #5D9546",
"~. c #6B8647",
"^. c #718D41",
"/. c #748B4D",
"(. c #769343",
"). c #789545",
"_. c #7C974C",
"`. c #768956",
"'. c #7D9454",
"]. c #79A659",
"[. c #7A8963",
"{. c #839D54",
"}. c #8AA55A",
"|. c #889A6A",
" X c #89A764",
".X c #94AD68",
"XX c #8EB16B",
"oX c #97B16A",
"OX c #99B36D",
"+X c #95AB73",
"@X c #9DB571",
"#X c #9FB775",
"$X c #A0B779",
"%X c #A4BC7B",
"&X c #96C169",
"*X c #A7C57B",
"=X c #586688",
"-X c #596889",
";X c #807F82",
":X c #898989",
">X c #98969B",
",X c #8A9AB5",
"<X c #A7A6A8",
"1X c #B5B4B5",
"2X c #ABC381",
"3X c #AFC983",
"4X c #B4CD87",
"5X c #B8D389",
"6X c #BEDA8D",
"7X c #C1DD8E",
"8X c #C9E892",
"9X c #BFCBDD",
"0X c #C8C6C5",
/* pixels */
"M M M M M M M M M M M M M M M M M M M M M M M M M M M M M M M M M M M M M M M M M M M M M M M M M M M M M M M M M M M M M M M M ",
"M M M 9XM M M M M M M M M i.M M M M M M M M M M M M M M M M M M M M M M M M M M M M M M e.M M M M M M M M M M M M M M M M M M M ",
"M M M M M M M M M M M M M M M M M M M M M M M M M M M M M M M M M M M M M M M M M M M M M M M M M M M M M M M M M M M M M M M M ",
"M M M M M M M M M M M M M M M M M M M M M M M M M M M M M M M M M M M M M M M M M M M M M M M M M M M M M M M M M M M M M M M M ",
"M M M M M M M M M M M M M M M M M M M M M M M M M M M M M M M M M M M M M M M M M M M M M M M M M M M M M M M M M M M M M M M M ",
"M M M M M M M M M M M M M M M M M M -XM M M M M M M M M M M M M M M M M M M i.M M M 9XM M M M M M M M M M M M M M M M M M M M M ",
"M M M M M M M M M M M M M M M M M M M M M M M M M M M M M M M M M M M M M M M M M M M M M M M M M M M M M M M M M M M M M M M M ",
"M M M M M M M M M M M M M M M M M M M M M M M M M M M M M M M M M M M M M M M M M M M M M M M M M M M M M M M M M M M M M M M M ",
"M M M M M M M M M M M M M M M M M M M M M M M M M M M M M M M M M M M M M M M M M M M M M M M M M M M M M M M M M M M M M M M M ",
"M M M M M M M M M M M M M M M M M M M M M M M M M M M M M M M M M M M M M M M M M M M M M M M M M M M M M M M M M M M M M M M M ",
"M M M M M M M M M M M M M M M M M M M M M M M M M M M M M M M M M M M M M M M M M M M M M M M M M M M M M M M M M M M M M M M M ",
"M M M M M M M M M M M M M M M M M M M M M M M M M M M M M M M M M M M M M M M M M M M M M ,XM M M M M M M M M M M M M M M M M M ",
"M M M M M M M M M M M M M M M M M M M M M M M M M M M M M M M M M =XM M M M M M M M M M M M M M M M M : > ; c c M M M M M M M M ",
"M M M M M M M M M M M M M M M M M M M M M M M M ,XM M M M M M M M M M M e.M M M M M M M M M M M M M : X < % , X M M M M e.M M M ",
"M ,XM M M M M M M M M M M M M M M M M M M M M M M M M M M M M M M M M M M M M M M M c M < v % 3 M v X ; < o % . X M M M M M M M ",
"M M M M M M M M M M M M M M M M M M M M M M M M M M M M M M M M e.M M 5 v M M v < < + - $ w 0 q D r.c X ; 6 < ;   c M M M M M M ",
"M M M i.M M M M M M M M M M M M M M M M M M M M M M M M M M M M V T M * 8 - * % # # # 0 q r d r , R L >   6 6 6 X M M M M M M M ",
"M M M M M M M M M M M M M M M M M M M M M M M M M M M M M M n < v N V 6 r d d r r r 0 0 0 + q r d 2 Y K :   ; 7 @ M M M M M M M ",
"M M M M M M M M M M M M M M M M M M M M M M M M M M M M M v % 8 w N h.t.a d / ~ ^ ~ f f f r q # d $ 3 s.2 O T S f a n M M M M M ",
"M M M M M M M M M M M M M M M M M M M M M M M M M M M n v % 8 d d h I <Xr.y f ) ) ) / / / / ^ ~ r $ O X , U 2 h 0.j M M M M M M ",
"M M M M M M M M M M M M M M M M M M M M M M M M M M M K n w d d ~ _ J f.<XV w ( ,.1.1.=.>.=.&.{ _ d   , 3 X z 6.0.k M M M M M M ",
"M M M M M M M M M M M M M M M M M M M M M M M M M n M I V n s f _ 1.,.B j.j.M s } 3.3.3.3.3.3.3.x . 3 2   ` 7.OX~.j M M M M M M ",
"M M M M M M M M M M M M M M M M M M M M M M M M M & $ n L t.7 d *.w - X ; D ; 2 0 *.-.,.3.] ' l X 6 , @ } q.(.$Xz.M M M M M M M ",
"M M M M v M M M M M M M M M M M M M M M M M M v % 8 f w N >Xy.2 . O 6 < 1 Y A 7 A a ; 4 y . 3 , 7 O w -.q.).OX'.( 7 e.M M M M M ",
"M M M M M M M M M M M M M M M M M M M M M M 5 + 0 d d ^ z V Y   o < . & O o & , 1 6 6 C 1 1 , & . h 1.P.(.).@X/.m M M M M M M M ",
"M M M M M M M M M M M M M M M M M M M M M < + 0 f ^ ~ ) 1.4   O X   ' =.,.] l     . . -   . - l x 5.U.(._.OX{.( B M M M M M M M ",
"M M M M M M M M M M M M M M M M M M M =X, # r ~ ) ) { 1.<..   %     l x x 4.4.} ] ] z 4.>.*.1.4.7.^.).).).OX{.B n M M M M M M M ",
"M M M M M M M M M M M M M M M M M M v % $ d ~ / / &.3.3.x   . 1 < < 1 1 . z P.q.7.7.7.4.P.P.P.P.).(.(.(..X|.V M M M M M M M M M ",
"M M M M M M M M M M M M M M M M M c + 0 d ^ / / =.1.3.l   o . . . + . o p . -.).(.(.(.U.).).).).).U.).).l.V M M M M M M M M M M ",
"M M M M M M M M M M M M M M M M 5 + 0 f / / _ >.3.1.x . & X 9 V.Q N...e o &   9.).I.o.@.5.).).).(.{.U.;.V n.y.M M M M M M M M M ",
"M M M M M M M M M M M M M M M < # q ~ / / _ 1.3.3.3.z 3 ; ! W.E U d.e S.9 O X @ U.+.C.V.I._.).).}.$X;.L h.a.M M M M M M M M M M ",
"M M M M M M M M M M M 9XM M M # r ~ / / &.3.3.3.3.~.;.S , D.` R :XT o E N.+ & H OXo.D.Q ].*X$XOX|.Y M p.m.a.M M M M M M M M M M ",
"M M M M M M M M M M M M M M 5 8 / { { *.3.3.3.6.~.8.  Z u T.d.M.S & 2 A Q X 1 k $X XXX X*X%X*X[.N L V a.j.M M M M M M M M M M M ",
"M M M M M M M M M M M M M v $ ~ &.3.1.3.3.3.0.`.-.# O G & @.A 2 2 A M.d.N.9 < k %X$X2Xx.|.I h.N y.p.G m.b.M M M M M M M M M M M ",
"M M M M M M M M M M M M M 5 w &.1.3.3.3.5.0.'.` t ,.h U @ E.O.X R :XR e .., , O ;.K p.I a.V c.a.G 7 b.j.M M M M M M M M M M M M ",
"M M M M M M M M M M M M b * -.6.3.3.0.z.z.z.i g 5.q.@ S D t Q.` d.G O.A.e , 6 7 y.M N a.P V t.R 7 s.b.n M M M M M M M M M M M M ",
"M M M M M M M M M M M M V F ;.8.:.8./.~.9.8 ' 7.^.).9.  a.S ! D.T.@.E.9 o p X 3 Y F K M M Y G m B ;XM.M M M M M M M M M M =XM M ",
"M M M M M M M M M M M n n.t.R 2 @ w ] ` $ { P.(.).).).9.< g.m < u & @ 6 6 . A Y a.R h.N 0Xa.B 7 n.v.M M M M M M M M M M M M M M ",
"M M M M M M M M M M M N Y Y s.Y $.; -.7.q.P.).(.}.$XOX3X:.5 G G S H G A   h k 7 p.g.V V m.M.a.j.P M M M M M M M M M M e.M M M M ",
"M M M M M M M M M M c y.R s.h.T a.T y ^.{.}.OX.X*X2X3X8X#.  .   @ y h . } 4.1.[ } w.:.;.r.b.M K M M M M M M M M M M M M M M M M ",
"M M M M M M M M M c   < .   F j.R s.G Y *X2X7X7X2X7X+Xk X O   s 4.,.4.,.,.5.! B.Z.L./.~.;.n e.n M M M M M M M M M M M M M M M M ",
"M M M M M M M M M > , < o .   T h.R h.A 9.8X7X4X5X`.O , ,   x 5.4.4.4.I.L.^.X.A.X./.+X#X/.l n n M M M M M M M M M M M M M M M M ",
"M M M M M M M M M v , o o o %   a.s.y.s.7 `.7X3X`.. a ,   ' 4.5.4.5.U.^.(.U.X.F.G.+X2Xz.z m M M M M M -XM M M M M M M M M M M M ",
"M M M M M M M M v ; o . o   o o O h.s.;.y.2 $X|.2 U 7 @ *.1.4.I.L.O.@.L./.0.| F.K.5X9.k n M M M M M M M M M M M M M M M M M M M ",
"M M M M M M M M M ; < o o ,   X X 2 v.;.s.R 4 `.Y 7 w =.4.7.U.(.I.B.C. . X~.X.F.E } a ,Xb M M M M M M M M M M M M M M M M M M M ",
"M M e.M M M M M n ; & . o X o   2 X j c.p.s.B X   l 5.P.L.(.).).L.N.R.K.$X+XO.B.W k M M M M M M M M M M M M M M M M M M M M M M ",
"M M M M M M M M n = k . ,   O ,   X   Y b.c.p.j y 7.U.J.@.@.).).L...W. .].5X~.E Z n M M M M M M M M M M M M M M M M M M M M M M ",
"M M M M M M M M n ' ).h & 1   6 O X 2 X R n.k.R J (.U.L.V.B.@.@X%X%.F.H.6X~.l b v v M v M M M M M M M M M M M M M M M M M M M M ",
"M M M M M M M M M :.OXU.- 2 2   C X & 1   n.M.g.4 |..X!.C.Q.B. X*X+.A.Z.{ h M M M M M M M M M M M M M M M M M M M M M M M M M M ",
"M M M M M M M M n ~ {.oXq.  3 , X Z X 1 6 7 0X:XR `.*XJ.C.Q.Z.*X8X].|  .i M M M M M M M M M M M M M M M M i.M M M M M M M M M M ",
"M M M M M M M M M 7 ^  X}.2.. D 2 3 Z 2 H a.1X:XR '.2X*X..R.Y.8XL.'.W i M M M M M M M M M M M M M M M M M M M M M M M -XM M M M ",
"M M M M M M M M M M j { OX^.#.D u.5 6 6 u.k.1X<Xa.8X*X&X..R. .{ l n 7 M M M M M M M M M M M M M M M M M M M M M M M M M M M M M ",
"M M M M M M M M M M M h J z 3 7 C 6 C A 7 K K v.b H J g E o.Q j M M M M M M M M M M M M M M M M M M M M M M M M M M M M M M M M ",
"M M M M M M M M M M M M M b c M M c c > ; M M M M M M n M n b M M M M M M M M M M M M M M M M M M M M M M M M M M M M M M M M M ",
"M M M M M M M M M M M ,XM M M M M M M M M M M M M M M M M M M M M M M M M M e.M M M M M M M M M M M M M M M M M M M M M M M M M ",
"M M M M M M M M M M M M M M M M M M M M M M M M M M M M M M M M M M M M M M M M M M M M M M M M M M M M M M M e.M M M M M M M M ",
"M M M M M M M M M M M M M M M M M M M M M M M M M M M M M M M M M M M M M M M M M M M M M M M M M M M M M M M M M M M M e.M M M ",
"M M M M M M M M M M M M M M M M M M M M M M M M M M M M M M M M M M M M M M M M M M M M M M M M M M M M M M M M M M M M M M M M ",
"M M M M M M M M M M M M M M M M M M M M M M M M M M M M M M M M M M M M M M M M M M M M M M M M M M M M M M M M M M M M M M M M ",
"M M M M M M M M M M M M M M M M M M M M M M M M M M M M M M M M M M M M M M M M M M M M M M M M M M M M M M M M M M M M M =XM M ",
"M M M M M M M M M M M M M M M M M M M M M M M M M M M M M M M M M M M M M M M M M M M M M M M M M M M M M M M M M M M M M M M M ",
"M M M M M M M M M M M M M M M M M M M M M M M M M M M M M M M M M M M M M M M M M M M M M M M M M M M M M M M M M M M M M M M M ",
"M M M M M M M M M M M M M M M M M M M M M M M M M M M M M M M M M M M M M M M M M M M M M M M M M M M M M M M M M M M M M M M M ",
"M M M M M M M M M M M M M M M M ,XM M M M M M M M M M M M M M M M M M M M M M M M M M M M M M M M M M M M M M M M M M M M M M M "
};
