/* XPM */
static char *_bc1c76cf34e457687048dcf5d6683b75joHqcC5feWs9arX[] = {
/* columns rows colors chars-per-pixel */
"64 64 185 2 ",
"   c #010201",
".  c #040905",
"X  c #090C05",
"o  c #08060D",
"O  c #050C0B",
"+  c #0C0D0C",
"@  c #021603",
"#  c #0E1305",
"$  c #041A02",
"%  c #091C04",
"&  c #0D110E",
"*  c #0A1A09",
"=  c #11130D",
"-  c #131B0A",
";  c #0D0D11",
":  c #120D1E",
">  c #0A1212",
",  c #091614",
"<  c #0F1B19",
"1  c #121412",
"2  c #191C14",
"3  c #151618",
"4  c #121C1A",
"5  c #1B1B1B",
"6  c #0E2409",
"7  c #1A2E03",
"8  c #15260C",
"9  c #1E3402",
"0  c #16211F",
"q  c #1E221B",
"w  c #1B3113",
"e  c #213503",
"r  c #243A02",
"t  c #263A09",
"y  c #29390D",
"u  c #232919",
"i  c #2D3D12",
"p  c #130E20",
"a  c #161224",
"s  c #191426",
"d  c #161A23",
"f  c #1C1A22",
"g  c #181228",
"h  c #1E192C",
"j  c #1E1A34",
"k  c #201F21",
"l  c #211D2D",
"z  c #231E31",
"x  c #172321",
"c  c #182321",
"v  c #232526",
"b  c #24232A",
"n  c #232828",
"m  c #2D2D2C",
"M  c #21312E",
"N  c #2A2733",
"B  c #292436",
"V  c #253734",
"C  c #2D3433",
"Z  c #343335",
"A  c #343838",
"S  c #3A3A3A",
"D  c #084C08",
"F  c #095707",
"G  c #115E0C",
"H  c #244704",
"J  c #2C4402",
"K  c #2E4802",
"L  c #324E03",
"P  c #32480D",
"I  c #355005",
"U  c #375308",
"Y  c #39540A",
"T  c #364917",
"R  c #33461A",
"E  c #3E5815",
"W  c #0B6606",
"Q  c #12640C",
"!  c #146A0C",
"~  c #17770D",
"^  c #196514",
"/  c #1A6B12",
"(  c #25721A",
")  c #394933",
"_  c #435D1D",
"`  c #455922",
"'  c #465B22",
"]  c #486423",
"[  c #4B6423",
"{  c #4E6A23",
"}  c #516C25",
"|  c #536C29",
" . c #547226",
".. c #577429",
"X. c #58762A",
"o. c #5A782B",
"O. c #5E7A36",
"+. c #647C3D",
"@. c #262A45",
"#. c #3C3944",
"$. c #3E4A48",
"%. c #394367",
"&. c #434344",
"*. c #434A4A",
"=. c #4B4A4C",
"-. c #4F4E54",
";. c #525253",
":. c #555658",
">. c #515D5C",
",. c #5C5C5D",
"<. c #6A7F46",
"1. c #5E5D60",
"2. c #54627F",
"3. c #626262",
"4. c #67656B",
"5. c #6B6B6D",
"6. c #6E6E71",
"7. c #706F73",
"8. c #737276",
"9. c #7B7B7B",
"0. c #079705",
"q. c #059D03",
"w. c #1D8010",
"e. c #01A400",
"r. c #00AB00",
"t. c #66853A",
"y. c #6A8C3D",
"u. c #718F3F",
"i. c #6E903F",
"p. c #40B321",
"a. c #3EC51C",
"s. c #44CC1F",
"d. c #44D71E",
"f. c #45C821",
"g. c #48D521",
"h. c #53DC25",
"j. c #55E326",
"k. c #57EA27",
"l. c #6D8544",
"z. c #728E42",
"x. c #72874E",
"c. c #748A4E",
"v. c #759242",
"b. c #789544",
"n. c #779348",
"m. c #768D51",
"M. c #7F9A63",
"N. c #819D4F",
"B. c #839F51",
"V. c #869F5B",
"C. c #89A15F",
"Z. c #879968",
"A. c #8A9C6B",
"S. c #8DA562",
"D. c #8AA869",
"F. c #93A86E",
"G. c #92B16C",
"H. c #92A571",
"J. c #97AC75",
"K. c #9BB475",
"L. c #9EB777",
"P. c #A2BA79",
"I. c #A5BD7B",
"U. c #A9C17F",
"Y. c #A3CB78",
"T. c #A2D174",
"R. c #5E6A84",
"E. c #596889",
"W. c #807F82",
"Q. c #858489",
"!. c #8A8A8B",
"~. c #8F8E94",
"^. c #8A9AB5",
"/. c #A7A6A8",
"(. c #B6B6B6",
"). c #ACC481",
"_. c #B3CC86",
"`. c #BBDA86",
"'. c #C5E591",
"]. c #CEED96",
"[. c #D0EF98",
"{. c #D2F29A",
"}. c #BFCBDD",
"|. c #CECED0",
" X c gray86",
/* pixels */
"g g g g g g g g g g g g g g g g g g g g g g g g g g g g g g g g g g g g g g g g g g g g g g g g g g g g g g g g g g g g g g g g ",
"g g g }.g g g g g g g g g %.g g g g g g g g g g g g g g g g g g g g g g g g g g g g g g @.g g g g g g g g g g g g g g g g g g g ",
"g g g g g g g g g g g g g g g g g g g g g g g g g g g g g g g g g g g g g g p g g g g g g g g g g g g g g g g g g g g g g g g g ",
"g g g g g g g g g g g g g g g g g g g g g g g g g g g g g g g g g g g g g g g g g g g g g g g g g g g g g g g g g g g g g g g g ",
"g g g g g g g g g g g g g g g g g g g g g g g g g g g g g g g g g g g g g g g g g g g g g g g g g g g g g g g g g g g g g g g g ",
"g g g g g g g g g g g g g g g g g g E.g g g g g g g g g g g g g g g g g g g %.g g g }.g g p g g g g g g g g g g g g g g g g g g ",
"g g g g g g g g g g g g g g g g g g g g g g g g g g g g g g g g g g g g g g g g g g g g g g g g g g g g g g g g g g g g g g g g ",
"g g g g g g g g g g g g g g g g g g g g g g g g g g g g g g g g g g g g g g g g g g g g g g g g g g g g g g g g g g g g g g g g ",
"g g g g g g g g g g g g g g g g g g g g g g g g g g g g g g g g g g g g g g g g g g g g g g g g g g g g g g g g g g g g g g g g ",
"g g g g g g g g g g g g g g g g g g g g g g g g g g g g g g g g g g g g g g g g g g g g g g g g g g g g g g g g g g g g g g g g ",
"g g g g g g g g g g g g g g g g g g g g g g g g g g g g g g g g g g g g g g g g g g g g g g g g g g g g g g g g g g g g g g g g ",
"g g g g g g g g g g g g g g g g g g g g g g g g g g g g g g g g g g g g g g g g g g g g g ^.g g g g g g g g g g g g g g g g g g ",
"g g g g g g g g g g g g g g g g g g g g g g g g g g g g g g g g g E.g g g g g g g g g g g g g g g g g g g g g g g g g g g g g g ",
"g g g g g g g p g g g g g g g g g g g g g g g g ^.g g g g g g g g g g g @.g g g g g g g g g g g g g g g g g g g g g g g @.g g g ",
"g ^.g g g g g g g g g g g g g g g g g g g g g g g g g g g g g g g g g g g g g g g g g g g g g g g g g g g g g g g g g g g g g g ",
"g g g g g g g g g g g g g g g g g g g g g g g g g g g g g g g g @.g g g g g g g g g g g g g g g g g g %.g g g g g g g g g g g g ",
"g g g %.g g g g g g g g g g g g g g g g g g g g g g g g g g g g g g g g g g g g g g g g g g g g g g g g g g g g g g g g g g g g ",
"g g g g g g g g g g g g g g g g g g g g g g g g g g g g g g g g g g g g g g g g g g g g g g g g g g g g g g g g g g g g g g g g ",
"g g g g g g g g g g g g g g g g g g g g g g g g g g g g g g g g g g g g g g g g g g g g g g g g g g g g g g g g g g g g g g g g ",
"g g g g g g g g g g g g g g g g g g g g g g g g g g g g g g g g g g g g s g g a g s s h g g g g g g g g g g g g g g g g g g g g ",
"g g g g g g g g g g g g g g g g g g s a @ @ @ @ $ $ @ @ @ @ @ $ @ @ @ l &.a @ @ $ * h #.g a g g g g g g g g g g g g g g g g g g ",
"g g g g g g g g g g g g g g g g g g * * e 9 e e 9 9 9 9 9 r 9 9 e e 9 g g s e e 9 9 g h a * : s g g g g g g g g g g g g g g g g ",
"g g g g g g g g g g g g g g g a * * J J L L L L L I K L I K I K e e e l =.5 e r r y h =.a 9 $ a g g g g ^.g g g g g g g g g g g ",
"g g g g g g g g g g g g g l 3.l +.[ [ { { { L L I I I I I I I K L L P z /.s e I I Y m R.a e e * p a g g g g g g g g @.g g g g g ",
"g g g g g g g g g g o ; =.Z S #.v <.| | | | { } { | { | | } | | | | [ g :.g e [ [ [ z (.g e r 9 $ @ a : g s g g g g g g g g g g ",
"g g g g g g g g p o < , 5 ;.S =.= w x.| | | | | | | | | | | | | | [             X ' z /.g e L r 9 $ $ $ : a g a g g g g g g g g ",
"g g g g g g g g o , O O O 3 :.m &.& w x.c. .|  .| | | | | [             > > < 4 <   h 9.g e U L H 9 6 7 6 $ a : g g g g g g g g ",
"g g g g g g g o < O O O . X 1.S =.= _ w m.c.m.c.m.m.m.m.x.X 4 > > & > 4       X > < X &.g r } U L r 9 $ 9 9 % % g g g g g g g g ",
"g g g g g g ; + O O &   >   1.S =.=  .[ 8 8 8 6 6 * 6 $ X C 0         > < . { { X > C o a e } } U L r e $ r 9 7 z g p p : a g g ",
"g g g g g i |   O O O   ,   1.S ;.1 v.u.{ { { { { } [   C c X j.k.r.e.. > < X { } X > C + 9 | | } U L r % 7 r = =.g   O o : g g ",
"g g g g y V.v.  O   >   >   3.S ;.= P.b.y.u.v.v.v.v.X C c . h.& + + = e.  > <    .}   , m X ' | | } U L r $ L ; =.p   < , ; : g ",
"g g g g L I.n.  d   >   >   3.S =.= U.P.I.b.b.b.b.v.  A   j.1 !.!.!.Q.& r.  x    . .X   > C + ' | | | Y L % r ; S g   , O ,   g ",
"g g g g K U.v.  x   4   &   3.A ;.= {.U.{.I.I.I.b.b.  >.  k.+ + & + = + r.  4   b... .X . > C . ' ' | { U r $ + S g   0 , >   g ",
"g g g g K U.b.  x   x   >   3.S ;.& _.{._.U.).U.U.I.  >.  k.+ + + + ; + r.  >   b.v... .X @ & 4 O X ` ' ' r @ o S :   4 x >   g ",
"g g g g J P.b.  x   x   >   3.S =.= {.U.].I.[.).[.I.  >.  j.& !.!.!.!.= e.  >   v.b.v.X.{ } # X 4 4 o . X X + X + 1 + 4 4 O o p ",
"g g g g f [ z.  M   x   4   3.,.S = ].q q 2 2 = = =   A x X h.= = + > e.. 4 > X v.v.y.v.X.o.} # * O 4 4 3 < < 3 4 n n S - o g g ",
"g g g g g 5 u b V   M   0   3.3.S = u *.C m 4 < & > O   A x . j.k.r.r.X 0 > + L.z.W W y.v.b.o.} | - - - # - - - - - 8 u r 2.g g ",
"g g g g g g : 1 *.X V   x   9.4.S ;   + X X   X           C x         4 >   L.U./ g.e.W u.b.b.o.o. . .o.X...o.o.o.t.+.O.y g g g ",
"g g g g g g g p 5 n , 4 M + !.3.S 1 ' [ { ] ] { [ { { { { X C A c x x x   1 K.U.I./ Q b.b.b.v.b.v.v.n.v.v.v.v.b.B.I.V.R s g g g ",
"g g g g g g g g p > b $.3 5. X5.5 +.u.y.y. . . ... . ... .} X           m =.h H.K.I.U.U.N.b.v.v.v.b.b.b.b.N.C.P.S.C.T s g g g g ",
"g g g g g g g g g : ; 3 Q.(./.3.5 F.N.u.! y.u.u.v.v... .}  .}  .} = =.m Z h g h h H.J.).I.N.N.N.b.N.b.N.B.I.S.A.T i s s g g g g ",
"g g g g g g g g g g p p A |.7.m A.U.P./ q.Q u.b.v.v.Q y.v.u. .} } } 2 8.f Z h &.,.h j A.H.H.H.H.+.+.+.Z.Z.Z.T y s s g g g g g g ",
"g g g g g g g g g g g g g #.B P.U.U.( q.d.W i.b.v.Q q.W y.z.z.z.F F ] q 8.;.g g g g ,.z l l g g l l B R.l a g g s g g g g g g g ",
"g g g g g g g g g g g g g g g ' `.].~ d.j.! G.P./ e.d.W y.v.z.G q.g.W O.b g j h Z Z =.&.&.:.l l -.:.5.4.l g g g g g g g g g g g ",
"g g g g g g g g g g g g g g g f _ ( e.d.w.S.Y.L.^ f.~ D.K.x.G 0.f.Q t.l.+.h 6.1.S k Z l 5 k #.:.6.6.z g g g g g g g g g g g g g ",
"g g @.g g g g g g g g g g g g g f D s.w.T.].].( 0.g.Q D.J.^ 0.f.Q M.F.F.<.b !.8.k 3 k #.1.6.8.~.B g g g g g g g g g g g g g g g ",
"g g g g g g g g g g g g g g g g s d G H E _ `.( a./ Y.'.`.^ p.Q L._.).U.L.N g g -.=.W.~.!.z g g g g g g g g g g g g g g g g g g ",
"g g g g g g g g g g g g g g g g g g d f 5 d T F F H P P T D D t t t ) y y y s g g g h g g g g g g g g g g g g g g g g g g l s g ",
"g g g g g g g g g g g g g g g g g g g g g g g p g g s g s s s g g g g g g g g g g g g g g g g g g g g g g g g g g g g g g z g g ",
"g g g g g g g g g g g g g g g g g g g g g g g g g g g g g g g g g g g g g g g g g g g g g g g g g g g g g %.g g g g g g g g g g ",
"g g g g g g g g g g g g g g g g g g g g g g g g g g g g g g g g g g g g g g g g g g g g g g g g g g g g g g g g g g g R.g g g g ",
"g g g g g g g g g g g g g g g g g g g g g g g g g g g g g E.g g g g g g g g g g g g g g g g g g g g g g g g g g g g g g g g g g ",
"g g g g g g g g g g g g g g g g g g g g g g g g g g g g g g g g g g g g g g g g g g g g g g g g g g g g g g g g g g g g g g g g ",
"g g g g g g g g g g g g g g g g g g g g g g g g g g g g g g g g g g g g g g g g g g g g g g g g g g g g g g g g g g g g g g g g ",
"g g g g g g g g g g g ^.g g g g g g g g g g g g g g g g g g g g g g g g g g @.g g g g g g g g g g g g g g g g g g g g g g g g g ",
"g g g g g g g g g g g g g g g g g g g g g g g g g g g g g g g g g g g g g g g g g g g g g g g g g g g g g g g @.g g g g g g g g ",
"g g g g g g g g g g g g g g g g g g g g g g g g g g g g g g g g g g g g g g g g g g g g g g g g g g g g g g g g g g g g @.g g g ",
"g g g g g g g g g g g g g g g g g g g g g g g g g g g g g g g g g g g g g g g g g g g g g g g g g g g g g g g g g g g g g g g g ",
"g g g g g g g g g g g g g g g g g g g g g g g g g g g g g g g g g g g g g g g g g g g g g g g g g g g g g g g g g g g g g g g g ",
"g g g g g g g g g g g g g g g g g g g g g g g g g g g g g g g g g g g g g g g g g g g g g g g g g g g g g g g g g g g g g E.g g ",
"g g g g g g g g g g g p g g g g g g g g g g g g g g g g g g g g g g g g g g g g g g g g g g g g g g g g g g g g g g g g g g g g ",
"g g g g g g g g g g g g g g g g g g g g g g g g g g g g g g g g g g g g g g g g g g g g g g g g g g g g g g g g g g g g g g g g ",
"g g g g g g g g g g g g g g g g g g g g g g g g p g g g g g g g g g g g g g g g g g g g g g g g g g g g g g g g g g g g g g g g ",
"g g g g g g g g g g g g g g g g ^.g g g g g g g g g g g g g g g g g g g g g g g g g g g g g g g g g g g g g g g g g g g g g g g "
};
