/* XPM */
static char *_cb51eeea72c4954fb8d4c669e78b0adt9NUW2s0XLa0Ye1H[] = {
/* columns rows colors chars-per-pixel */
"64 64 210 2 ",
"   c #020404",
".  c #060607",
"X  c #040807",
"o  c #050B0A",
"O  c #0A0D0D",
"+  c #0D1205",
"@  c #051805",
"#  c #061509",
"$  c #0A120D",
"%  c #111907",
"&  c #121B0C",
"*  c #0D0B15",
"=  c #110D1C",
"-  c #0C1413",
";  c #0B1416",
":  c #0E1916",
">  c #0F1B19",
",  c #121212",
"<  c #121915",
"1  c #11131C",
"2  c #18171A",
"3  c #131C1B",
"4  c #1C1D1D",
"5  c #0D2301",
"6  c #002D00",
"7  c #0B210F",
"8  c #112601",
"9  c #142A02",
"0  c #1B240E",
"q  c #182908",
"w  c #1A3907",
"e  c #19310B",
"r  c #142613",
"t  c #1C2315",
"y  c #1D221B",
"u  c #1B2518",
"i  c #0C3813",
"p  c #1A3213",
"a  c #223603",
"s  c #253B02",
"d  c #232C15",
"f  c #22261D",
"g  c #253212",
"h  c #283612",
"j  c #2C3B14",
"k  c #2E3F1C",
"l  c #130F21",
"z  c #161225",
"x  c #181327",
"c  c #1C1B23",
"v  c #181228",
"b  c #1C1B2A",
"n  c #201F23",
"m  c #211C2E",
"M  c #221D31",
"N  c #162220",
"B  c #1C2322",
"V  c #1F2E2B",
"C  c #252626",
"Z  c #232329",
"A  c #242A29",
"S  c #2B2B2B",
"D  c #28322A",
"F  c #323925",
"G  c #262231",
"H  c #292633",
"J  c #2D2B35",
"K  c #2E293A",
"L  c #312D3C",
"P  c #2B3231",
"I  c #343435",
"U  c #363B38",
"Y  c #3C3C3C",
"T  c #094209",
"R  c #064D08",
"E  c #055A04",
"W  c #1A5809",
"Q  c #2B4303",
"!  c #2E4607",
"~  c #324E03",
"^  c #314A08",
"/  c #345005",
"(  c #3B550D",
")  c #3D580F",
"_  c #2E4219",
"`  c #314217",
"'  c #394E1B",
"]  c #265616",
"[  c #3E5910",
"{  c #3D541A",
"}  c #036203",
"|  c #0C6208",
" . c #19620E",
".. c #0D7608",
"X. c #137A0C",
"o. c #1C6716",
"O. c #256F16",
"+. c #2D7119",
"@. c #364C24",
"#. c #384329",
"$. c #3E4437",
"%. c #367C28",
"&. c #445D1C",
"*. c #47611B",
"=. c #49631D",
"-. c #445526",
";. c #455B25",
":. c #434B36",
">. c #4E5A38",
",. c #4B6522",
"<. c #4F6729",
"1. c #516D25",
"2. c #50642C",
"3. c #536C29",
"4. c #547226",
"5. c #577429",
"6. c #59762A",
"7. c #5C7A2D",
"8. c #566937",
"9. c #5B7432",
"0. c #5F7A33",
"q. c #607C32",
"w. c #647B3B",
"e. c #262A45",
"r. c #2D3049",
"t. c #3B3646",
"y. c #3D3B43",
"u. c #413D4B",
"i. c #374140",
"p. c #394367",
"a. c #424343",
"s. c #464945",
"d. c #4B4B4C",
"f. c #4A534C",
"g. c #51554A",
"h. c #4C4953",
"j. c #555458",
"k. c #5C5C5C",
"l. c #5F6C46",
"z. c #687650",
"x. c #5C5A62",
"c. c #58637A",
"v. c #636364",
"b. c #66656B",
"n. c #6C6B6D",
"m. c #6F6F71",
"M. c #757576",
"N. c #10880A",
"B. c #338218",
"V. c #2A9015",
"C. c #00A600",
"Z. c #00A800",
"A. c #1AA90C",
"S. c #2AA515",
"D. c #31A617",
"F. c #2BB815",
"G. c #35B919",
"H. c #3E862D",
"J. c #558433",
"K. c #51933B",
"L. c #648338",
"P. c #69863A",
"I. c #6D8C3C",
"U. c #728F3F",
"Y. c #71913F",
"T. c #2BC713",
"R. c #31CA16",
"E. c #4CD523",
"W. c #54E126",
"Q. c #5D9844",
"!. c #738C47",
"~. c #748B4E",
"^. c #759242",
"/. c #789544",
"(. c #77954A",
"). c #7D994B",
"_. c #768A54",
"`. c #6C9B52",
"'. c #7C9355",
"]. c #68AC48",
"[. c #77A459",
"{. c #819D4F",
"}. c #839F52",
"|. c #809B5B",
" X c #89A55A",
".X c #839365",
"XX c #8EAB68",
"oX c #92AB66",
"OX c #88B265",
"+X c #98B36D",
"@X c #96A974",
"#X c #9FB874",
"$X c #A1B976",
"%X c #A5BD7C",
"&X c #A8BF7F",
"*X c #A9C37D",
"=X c #596889",
"-X c #858585",
";X c #97969A",
":X c #8A9AB5",
">X c #AFAFB0",
",X c #C1BEBB",
"<X c #ACC481",
"1X c #AFC984",
"2X c #B4CE86",
"3X c #BAD889",
"4X c #C0DC8D",
"5X c #C8E693",
"6X c #BFCBDD",
"7X c #DADADA",
/* pixels */
"v v v v v v v v v v v v v v v v v v v v v v v v v v v v v v v v v v v v v v v v v v v v v v v v v v v v v v v v v v v v v v v v ",
"v v v 6Xv v v v v v v v v p.v v v v v v v v v v v v v v v v v v v v v v v v v v v v v v e.v v v v v v v v v v v v v v v v v v v ",
"v v v v v v v v v v v v v v v v v v v v v v v v v v v v v v v v v v v v v v v v v v v v v v v v v v v v v v v v v v v v v v v v ",
"v v v v v v v v v v v v v v v v v v v v v v v v v v v v v v v v v v v v v v v v v v v v v v v v v v v v v v v v v v v v v v v v ",
"v v v v v v v v v v v v v v v v v v v v v v v x v v v v v v v v v v v v v v v v v v v v v v v x v v v v v v v v v v v v v v v v ",
"v v v v v v v v v v v v v v v v v v =Xv v v v v v v v v v v v v v v v v v v p.v v v 6Xv v v v v v v v v v v v v v v v v v v v v ",
"v v v v v v v v v v v v v v v v v v v v v v v v v v v v v v v v v v v v v v v v v v v v v v v v v v v v v v v v v v v v v v v v ",
"v v v v v v v v v v v v v v v v v v v v v v v v v v v v v v v v v v v v v v v v v v v v v v v v v v v v v v v v v v v v v v v v ",
"v v v v v v v v v v v v v v v v v v v v v v v v v v v v v v v v v v v v v v v v v v v v v v v v v v v v v v v v v v v v v v v v ",
"v v v v v v v v v v v v v v v v v v v v v v v v v v v v v v v v v v v v v v v v v v v v v v v v v v v v v v v v v v v v v v v v ",
"v v v v v v v v v v v v x x y y y 1 = z = = l = v v v v v v v v v v v v v v v v v v v v v v v v v v v v v v v v v v v v v v v v ",
"v v v v v v v v v v v v v d &.|.7.u o ; O $ ;   z v v v v v v v v v v v v v v v v v v v v :Xv v v v v v v v v v v v v v v v v v ",
"v v v v v v v v v v v v d =.$X X2.  X o o o - , j.G r.v v v v v v =Xv v v v v v v v v v v v v v v v v v v v v v v v v v v v v v ",
"v v v v v v v v v v v d &.$X X2.  o o o o # o   :.I k.m > z v x v v v v e.v v v v v v v v v v v v v v v v v v v v v v v e.v v v ",
"v :Xv v v v v v v v v f +X X2.  > O X $ X o X   Y U d.:.;.# & < x z x x v v v v v v v v v v v v v v v v v v v v v v v v v v v v ",
"v v v v v v v v v v v d w.2.  < ;   O X X ;   C k.u.S f 0.{ ^ 5 7 # z x v v v v v v v v v v v v v v v p.v v v v v v v v v v v v ",
"v v v h.v v v v v v v * #.  3 ; X 3 X X $ X Z k.Y Y A p w.3.*.~ s 8 # x v v v v v v v v v v v v l v v v v v v v v v v v v v v v ",
"v v v v v v v v v v v = P V < X 3 O   ;   Z k.a.s.a., _ l.3.1.*./ s 8 # x v v v v v v v v v v v v v v v v v v v v v v v v v v v ",
"v v v v v v v v v v z = i.N X 3 - X $ X C x.a.s.a., ` _ P.3.3.<./ / s 8 @ z v v v v v v v v v v v v v v v v v v v v v v v v v v ",
"v v v v v v v v v v v * C o D ; X $   Z k.:.a.u., -.,.p _.0.3.3.) / ~ s 5 # z v v v v v v v v v v v v v v v v v v v v v v v v v ",
"v v v v v v v v v v v * C 3 < o y . S k.a.s.a., z./.7.' ~.9.3.3.1.[ / ~ s 5 # x v v v v v v v v v v v v v v v v v v v v v v v v ",
"v v v v v v v v v v v = S N 3 N o S v.a.s.u., _.$X).7.e @.~.9.3.3.3.) / ~ s 8 @ x x v v v v v v v v v v v v v v v v v v v v v v ",
"v v v v v v v v v v v * B y.V - I n.v.d.y., |.4X*X XI.1.e @.~.9.3.3.3.) / ~ s 8 # z v v v v v v v v v v :Xv v v v v v v v v v v ",
"v v v v v v v v v v v v P n.x.k.-Xb.d.S , @X4X4X5X+X/.I.4.e @.~.5.3.3.3.) / ~ a 5 # x v v v v v v v v v v v v v v v e.v v v v v ",
"v v v v v v v v v v v v v >X>X7Xm.d.S , l.#X<X3X2X$X)./.I.4.e @._.9.3.3.3.[ ~ ~ s 8 # z x x v v v v v v v v v v v v v v v v v v ",
"v v v v v v v v v v v v t.>XM.M.U S % . B y >.3X<X<X$X)./.I.1.q @.~.3.3.3.3.) ! a a 8 1 v v v v v v v v v v v v v v v v v v v v ",
"v v v v v v v v v v v v z U A $.F P.;.j < Y , :.5X1X$X/./.-.0 # o F & r k 1.1.) Q a t m y.x :Xv v v v v v v v v v v v v v v v v ",
"v v v v v v v v v v v v c '.*X*X&X}.U.7.h $ D # :.2X2XoX-.O P A P P y ;   k 3.3.( f G m m 1 x x v p.v v v v v v v v v v v v v v ",
"v v v v v v v v v v v v v '.3X*X%X^.Y.I.5.h X > O >.2Xl.O i.3 r O O r o O   g 0 D u.-XG y 8 # x v v v v v v v v v v v v v v v v ",
"v v v v v v v v v v v v B { 3XH.V.} ..J.4.4.h X $ X f O f.P w W.B.B.W.w X O     O d.u.4 a a 5 # v v v v v v v v v v v v v v v v ",
"v v v v v v v v v v v v N E N.S.T.R...J.I.4.4.j X o X U A w W.] U y.] T.6 X - X X O 4 s Q a a 8 1 x v v v v v v v v v v v v v v ",
"v v v v v v v v v v v 6Xb V.T.E.E.S. .I.Y.I.4.4.h     C r W.] - C -XY T C.@ -   $ X + ,.( Q a 4 m t.v v v v v v v v v v v v v v ",
"v v v v v v v v v v v v 3 W  .].K.%.[.^././.L.4.4.g o P O B.U C O C -XY } X :     < O 0 3.( 4 G m b v v v v v v v v v v v v v v ",
"v v v v v v v v v v v v x y ^ *X4X*X%X^.Y.Y.J.4.4.4.d P O B.Y -XC O A U E X > 0 j   3 & <.D h.b.m - 1 v v v v v v v v v v v v v ",
"v v v v v v v v v v v v v v y 5.5X[.`.E N.X. .5.4.1.% A r W.] Y -XS O T Z.@ - % 1.7 ; X 4 j.>XK t q 1 v v v v v v v v v v v v v ",
"v v v v v v v v v v v v v v b 0.K...N.G.F.F.O.^.7.4.0 P 3 w T.T Y U w Z.6 $ > 0 1.& : O u.;Xt.t a 9 1 v v v v v v v v v v v v v ",
"v v v v v v v v v v v v v v v p | E.G.D.O.O.%.^.^.5.` . y $ 6 Z.} } C.6 o : X k ,.  B y j.K t s s 8 1 x x v v v v v v v v =Xv v ",
"v v v v v v v v v v v v v v v v T W Q.J.XX@X(.^.I.1.1.`   3 $ : o O 7 o -   { 4.4.& B , ,Xf s ~ s 9 1 x v v v v v v v v v v v v ",
"v v v v v v v v v v v v v v v v v d 0.4X%X[.!.P.L.L.4.' ,   3 3 - - - O   -.^.4.0 X c O 0 s =.~ s 9 @ z v v v v v v v e.v v v v ",
"v v v v v v v v v v v v v v v v v v d 0.OXE X...} ..W -.Y 4 , o X $.t F -././.5.g X C < ! 3.=.~ s 9 @ v v v v v v v v v v v v v ",
"v v v v v v v v v v v v v v v v v v v p R D.S.S.F.F.O.{ k.U I Y g.*X$X XY.^.^.5.g X B u <.1.=.~ s 9 @ # v v v v v v v v v v v v ",
"v v v x v v v v v v v v v v v v v v v v i o.o.%.J.O.| ' a.; G M :.&X`.B.E 7.U.4.0 X 3 O ;.3.1.~ s 9 w : v v v v v v v v v v v v ",
"v v v v v v v v v v v v v v v v e.v v v v d 2.1X@X|.w.>.x.d.H v h.<X[.D.A.+.Y.6.,.+ B t 1.3.=./ s 9 9 % 1 x v v v v v v v v v v ",
"v v v v v v v v v v v v v v v v v v =Xv v v d 8.1X@X~.8.v c.x d.K _.OXo.N.+./.q.,.X : t 3.1.=./ s 5 9 9 1 x v x v v v v v v v v ",
"v v v v v v v v v v v v v v v v v v v v v v v d 8.<Xz.S u.M x L h..X%X+X).I./.I.4.& ; X j 3.=./ w 5 a 9 $ z z x v v v v v v v v ",
"v v e.v v v v v v v v v v v v v v v v v v v v v d 2.Y h.-Xh.S M v b @X*X).^.^.I.1.0 O u g 3.=./ 9 8 a a 7 x x x v v v v v v v v ",
"v v v v v v v v v v v v v v v v v v v v v v v v x f 4 M b.y.I I h.d.<X*X X^./.I.4.=.$ < O ;.*.Q @ s a , n v v v v v v v v v v v ",
"v v v v v v v v v v v v v v v v v v v v v v v v x x x x u.n 2 I d.H =X*X)././.^.L.{   - - + { s 8 a , u.J v v v v v v v v v v v ",
"v v v v v v v v v v v v v v v v v v v v v v v v v v v v r.d.H n 4 a.L s.%X}././.^.q.{   < <   5 + , I J = . l v v v v v v v v v ",
"v v v v v v v v v v v v v v v v v v v v v v v v v v v v v u.;Xh.I n d.x :.oX/././.^.7.'   < $   , Y G =   -   l v v v v v v v v ",
"v v v v v v v v v v v v v v v v v v v v v v v v v v v v v v u.;Xb.d.J m M U /././././.q.'   : - O G =   O ; ; l v v v =Xv v v v ",
"v v v v v v v v v v v v v v v v v v v v v v v v v v v v v =Xv K M n.m.j.d.J U {.}././.^.7.'   , 4     , ; o O l v v v v v v v v ",
"v v v v v v v v v v v v v v v v v v v v v v v v v v v v v v v v v M x.j.M.v.u.s.%X XoX/./.q.'   A 4 X y ; ; ; l v v v v v v v v ",
"v v v v v v v v v v v v v v v v v v v v v v v v v v v v v v v v v v v v L K M.G s.*XoX+X#X).P.'   I B y ; o . l v v v v v v v v ",
"v v v v v v v v v v v :Xv v v v v v v v v v v v v v v v v v v v v v v v v x r.v x S ( |.!.$X$X!.;.% + O o X l v v v v v v v v v ",
"v v v v v v v v v v v v v v v v v v v v v v v v v v v v v v v v v v v v v v v x x x f 4 ` 8.,.2.;.Q 4 * * z v e.v v v v v v v v ",
"v v v v v v v v v v v v v v v v v v v v v v v v v v v v v v v v v v v v v v v v v v v v v v b c v x v v v v v v v v v v e.v v v ",
"v v v v v v v v v v v v v v v v v v v v v v v v v v v v v v v v v v v v v v v v v v v v v v v v v v v v v v v v v v v v v v v v ",
"v v v v v v v v v v v v v v v v v v v v v v v v v v v v v v v v v v v v v v v v v v v v v v v v v v v v v v v v v v v v v v v v ",
"v v v v v v v v v v v v v v v v v v v v v v v v v v v v v v v v v v v v v v v v v v v v v v v v v v v v v v v v v v v v v =Xv v ",
"v v v v v v v v v v v v v v v v v v v v v v v v v v v v v v v v v v v v v v v v v v v v v v v v v v v v v v v v v v v v v v v v ",
"v v v v x v v v v v v v v v v v v v v v v v v v v v v v v v v v v v v v v v v v v v v v v v v v v v v v v v v v v v v v v v v v ",
"v v v v v v v v v v v v v v v v v v v v v v v v v v v v v v v v v v v v v v v v v v v v v v v v v v v v v v v v v v v v v v v v ",
"v v v v v v v v v v v v v v v v :Xv v v v v v v v v v v v v v v v v v v v v v v v v b v v v v v v v v v v v v v v v v v v v v v "
};
