/* XPM */
static char *_61bed1ef1b14ef6f2073dc5d2fbfecaLyOqeGQPFA4nn1Mk[] = {
/* columns rows colors chars-per-pixel */
"64 64 203 2 ",
"   c #010201",
".  c #050904",
"X  c #090C05",
"o  c #050608",
"O  c #09070E",
"+  c #050B0A",
"@  c #0C0D0D",
"#  c #011602",
"$  c #0E1305",
"%  c #031900",
"&  c #091D03",
"*  c #06150B",
"=  c #0C130D",
"-  c #081909",
";  c #111609",
":  c #131A09",
">  c #0A0710",
",  c #0A0910",
"<  c #120E1E",
"1  c #071411",
"2  c #0B1312",
"3  c #0D1A16",
"4  c #0E1B19",
"5  c #121312",
"6  c #161817",
"7  c #15131B",
"8  c #111C1A",
"9  c #1C1E1D",
"0  c #0B2204",
"q  c #0F2408",
"w  c #1A2E03",
"e  c #152A09",
"r  c #1D3203",
"t  c #192A15",
"y  c #16201E",
"u  c #1E211E",
"i  c #213503",
"p  c #233902",
"a  c #283C07",
"s  c #223E08",
"d  c #293B0A",
"f  c #252E16",
"g  c #273313",
"h  c #2D3D10",
"j  c #161225",
"k  c #181426",
"l  c #161A24",
"z  c #1C1B23",
"x  c #181228",
"c  c #19152A",
"v  c #1D182C",
"b  c #201F21",
"n  c #201C2E",
"m  c #241F32",
"M  c #172321",
"N  c #1B2321",
"B  c #1A2826",
"V  c #1F2C2A",
"C  c #232524",
"Z  c #25252B",
"A  c #262A2B",
"S  c #2C2C2D",
"D  c #2A302F",
"F  c #262233",
"G  c #292535",
"H  c #2C2B34",
"J  c #2B2538",
"K  c #253533",
"L  c #2D3332",
"P  c #343436",
"I  c #353539",
"U  c #343B3A",
"Y  c #3A3A3B",
"T  c #094809",
"R  c #055804",
"E  c #0E5F08",
"W  c #115B0D",
"Q  c #1A5D17",
"!  c #2D4602",
"~  c #2F4903",
"^  c #334E03",
"/  c #334E09",
"(  c #355105",
")  c #375308",
"_  c #39540A",
"`  c #3B4E1A",
"'  c #3D531C",
"]  c #026402",
"[  c #096705",
"{  c #0B6905",
"}  c #12620B",
"|  c #097404",
" . c #1A6414",
".. c #246719",
"X. c #354038",
"o. c #2E7523",
"O. c #40561D",
"+. c #425A1D",
"@. c #475F22",
"#. c #454E36",
"$. c #4C6522",
"%. c #4E6923",
"&. c #516C26",
"*. c #536C29",
"=. c #4E7123",
"-. c #547226",
";. c #57722B",
":. c #58762B",
">. c #5A782B",
",. c #556837",
"<. c #5B7332",
"1. c #5F733A",
"2. c #262A45",
"3. c #3E3D43",
"4. c #413F45",
"5. c #3B4443",
"6. c #394367",
"7. c #434344",
"8. c #464449",
"9. c #434E4B",
"0. c #4B4A4C",
"q. c #514F55",
"w. c #4F5352",
"e. c #515151",
"r. c #555A5C",
"t. c #5D5D5D",
"y. c #5B6D42",
"u. c #5C7240",
"i. c #627843",
"p. c #605E65",
"a. c #626262",
"s. c #69696B",
"d. c #6E6D71",
"f. c #737275",
"g. c #7B7B7C",
"h. c #01A301",
"j. c #01AC00",
"k. c #0EA907",
"l. c #10A20A",
"z. c #16B80A",
"x. c #3FBC1B",
"c. c #41BB1F",
"v. c #5C8635",
"b. c #628838",
"n. c #6D8C3D",
"m. c #718E3E",
"M. c #73903F",
"N. c #43B821",
"B. c #43C21F",
"V. c #47C721",
"C. c #4CD922",
"Z. c #53DC25",
"A. c #57E626",
"S. c #58EA27",
"D. c #6A8340",
"F. c #6C824B",
"G. c #738E41",
"H. c #72884F",
"J. c #759242",
"K. c #789544",
"L. c #7B974A",
"P. c #7D9A4B",
"I. c #748951",
"U. c #7C9356",
"Y. c #7DA65E",
"T. c #809D4E",
"R. c #829E50",
"E. c #88A25E",
"W. c #8B9D6B",
"Q. c #8CA568",
"!. c #92A56F",
"~. c #8FB26B",
"^. c #91B26D",
"/. c #9CB56E",
"(. c #96AB71",
"). c #96B671",
"_. c #9DB573",
"`. c #9EB974",
"'. c #A4BA7B",
"]. c #A6BE7C",
"[. c #9BC771",
"{. c #A7C579",
"}. c #A8C07F",
"|. c #596889",
" X c #606E8B",
".X c #858488",
"XX c #8B8A8B",
"oX c #959498",
"OX c #818FA7",
"+X c #8A9AB5",
"@X c #A2A2A2",
"#X c #AAA9AC",
"$X c #AAC280",
"%X c #AFC883",
"&X c #B2CB85",
"*X c #B6CF88",
"=X c #BBDA87",
"-X c #C3E18C",
";X c #C4E293",
":X c #D4F49B",
">X c #BFCBDD",
",X c #CECFD1",
"<X c #E8E4E0",
/* pixels */
"x x x x x x x x x x x x x x x x x x x x x x x j x x x x x x x x x x x x x x x x x x x x x x x x x x x x x x x x x x x x x x x x ",
"x x x >Xx x x x x x x x x 6.x x x x x x x x x x x x x x x x x x x x x x x x x x x x x x 2.x x x x x x x x x x x x x x x x x x x ",
"x x x x x x x x x x x x x x x x x x x x x x x x x x x x x x x x x x x x x x x x x x x x x x x x x x x x x x x x x x x x x x x x ",
"x x x x x x x x x x x x x x x x x x x x x x x x x x x x x x x x x x x x x x x x x x x x x x x x x x x x x x x x x x x x x x x x ",
"x x x x x x x x x x x x x x x x x x x x x x x x x x x x x x x g ! ! ! ! u x x x x x x x x x x x x x x x x x x x x x x x x j x x ",
"x x x x x x x x x x x x x x x x x x |.x x x x x x x x x x x g R.}.}.].].*.f 6.x x x >Xx x x x x x x x x x x x x x x x x x j x x ",
"x x x x x x x x x x x x x x x x x x x x x x x x x x x x j > ,.G.K.K.K.K.J.f < x x x x x x x x x x x x x x x x x x x x x x x x x ",
"x x x x x x x x x x x x x x x x x x x x x x x x x x x j > Z ,         . o , o < x x x x x x x x x x x x x x x x x x x x x x x x ",
"x x x x x x x x x x x x x x x x x x x x x x x x x x x , U 5.K B M M M 3 + + 2 + < x x x x x x x x x x x x x x x x x x x x x x x ",
"x x x x x x x x x x x x x x x x x x x x x x x x x x , Z 2               + + + 3 + < x x x x x x x x x x x x x x j x x x x x x x ",
"x x x x x x x x x x x x x x x x x x x x x x x x x o A 5 B K B M M M 3 @ 1 1 + + 3 + < x x x x x x x x x x x x x x x x x x x x x ",
"x x x x x x x x x x x x x x x x x x x x x x x x x 7 5.K +                   * + 3 o < x x +Xx x x x x x x x x x x x x x x x x x ",
"x j x x x x x x x x x x x x x x x x x x x x x x F XXI V N 9 M 3 1 , = 1 1 , + + o 7.F x x x x x x x x x x x x x x x x x x x x x ",
"x x x x x x x x x x x x x x x x x x x x x x x x ,X,X@XA @ o                     7.7.n x x x x x x x x x x x x x x x x x 2.x x x ",
"x +Xx x x x x x x x x x x x x x x x x x x x k Z 0.g.,X@XXXs.p.p.a.a.a.a.t.t.t.t.7.S s.J x x x x x x x x x x x x x x x x x x x x ",
"x x x x x x x x x x x x x x x x x x x x x z ` =X#.e.t.a.a.a.a.#.Y Y Y Y Y Y Y S 7.0.G x x x x x x x x 6.x x x x x x x x x x x x ",
"x x x 6.x x x x x x x x x x x x x x x x l s *X&X}.X.: P P I Y 0.e.e.e.e.e.w.e.0.N 5 y.t j x x x x x x x x x x x x x x x x x x x ",
"x x x x x x x x x x x x x x x x x x x j E ] [.[.{.{.P.f = @ 5 5 @ , ; , @ 5 5 5 * y.<.e l x x x x x x x x x x x x x x x x x x x ",
"x x x x x x x x x x x x x x x x x x x T x.z.| ] Y.P.K.>.; o {.:X*X:X%X].P.;.%.q 1.<.*./ & j x x x x x x x x x x x x x x x x x x ",
"x x x x x x x x x x x x x x x x x x x a ..V.S.z.| v.M.>.$ 9.5 Q.:X&X$XR.K.>.e u.<.*.*.( 0 j x x x x x x x x x x x x x x x x x x ",
"x x x x x x x x x x x x x x x x c c c ! -Xv.x.C.k.{ b.>.$ S O =X%X:X&XT.>.e i.U.<.*.*._ p & j x x x x x x x x x x x x j x x x x ",
"x x x x x x x x x x x x x x x x x c c ' -X{.o.] } b.>.-.$ L o (.].$XT.K.:.q F.<.*.*.*.) p % j k x x x x x x x x x x x x x x x x ",
"x x x x x x x x x x x x x x x x x x ! [.=X$X{.P.K.K.>.-.X 4   =X&X$XP.K.:.0 F.<.*.*._ ^ p % j x x x x x +Xx x x x x x x x x x x ",
"x x x x x x x x x x x x x x x x x x T | ] Y.~.K.K.K.>.-.X 4   (.}.$XP.K.:.0 F.;.*.*._ ^ p % j x x x x x x x x x x x 2.x x x x x ",
"x x x j x x x x x x x x x x x x x x T c.z.| ] v.J.K.:.-.X 1   -X&XP.K.K.:.0 F.<.*.*.) ^ p % j x x x x x x x x x x x x x x x x x ",
"x x x x x x x x x x x x x x x x x x d  .B.V.z.] v.J.:.-.X 1   (.].L.K.J.:.% H.;.*.*.) ^ p % j x x x x x x x x x x x x x x x x x ",
"x x x x x x x x x x x x x x x x x x d ;X..Q V.h.{ =.-.-.. +       . . . %.% H.*.*.*.) ( p # OXx x x x x x x x x x x x x x x x x ",
"x x x x x x x x x x x x x x x x x x d =X$X$X .E G.-.-.-..   L w.r.r.U L . # H.<.*.*.( ^ p % x x x 6.x x x x x x x x x x x x x x ",
"x x x x x x x x x x x x x x x x x x r [.W.).J.J.J.-.-.%.. L y .       M P . I.;.*.*.^ ^ i # j x x x x x x x x x x x x x x x x x ",
"x x x x x x x x x x x x x x x x x x T W R v.G.J.G.;.$.. L B . A.A.A.A.. M L + *.*.*.^ ^ i # j x x x x x x x x x x x x x x x x x ",
"x x x x x x x x x x x x x x x x x x T N.l.] D.G.-.-.  U M . Z.5 = @ = Z.. M 8 . &.*.( ( i # x x x x x x x x x x x x x x x x x x ",
"x x x x x x x x x x x >Xx x x x 2.x d ..N.l.] D.&.-.  U   A.= XX5 @ XX5 Z.  2   &.&.^ ^ i # j x x x x x x x x x x x x x x x x x ",
"x x x x x x x x x x x x x x x x x x d *XQ N.k.T &.$.  M   A.@ XX@ @ XX5 A.  1   *.*.^ p p # x x x x x x x x x x x x x x x x x x ",
"x x x x x x x x x x x x x x x x x x d *X!.W V.W $.5   M   j.@ XX@ @ XX@ j.  1   *.*.^ i i # x x x x x x x x x x x x x x x x x x ",
"x x x x x x x x x x x x x x x x x x h &X!.n.W @.9 0.. y . h.= XX@ 5 XX@ j.  ,   X *.^ i i % x x x x x x x x x x x x x x x x x x ",
"x x x x x x x x x x x x x x x x x x d $XW.i.1.b g.C   y y   h.@ @ @ = h.. = 8     z z x 7 j x x x x x x x x x x x x x x x x x x ",
"x x x x x x x x x x x x x x x x x x h W.,.,.n g.5 I L   , M . j.j.j.h.. + 8   1   0.#X8.x 4.x x x x x x x x x x x x x x x |.x x ",
"x x x x x x x x x x x x x x x x x x f x J m v 8.L x 0.6 X 2 M         1 4     1   n m n <Xn x x x x x x x x x x x x x x x x x x ",
"x x x x x x x x x x x x x x x x x x x v oXf.x x n b G }._.+ = = 1 8 y 4 o $.  8   i r r r = x x x x x x x x x x x x x 2.x x x x ",
"x x x x x x x x x x x x x x x x x x x F p.q.v x 0.n ].}.`._.  o       . %.%.  8 o @./ i i # x x x x x x x x x x x x x x x x x x ",
"x x x x x x x x x x x x x x x x x x v r.5 P P x r.H ].^.} J.K.K.K.m.-.&.$.. 1 8 . &.^ i i # 2.x x x x x x x x x x x x x x x x x ",
"x x x x x x x x x x x x x x x x x x v q.5 Z I n m $X).[ C.[ K.K.J.-.-.$.o 1 8 X $.%.^ i w # x x x x x x x x x x x x x x x x x x ",
"x x x x x x x x x x x x x x x x 2.x F oX7 I 0.t.P ].).[ h.W K.M.-.$.  . 5 L o x v b k k j j x x x x x |.x x x x x x x x x x x x ",
"x x x x x x x x x x x x x x x x x x  XoXY 7 8.m ].}._.n.} K.M.-.@.  + 2 S @ q..X#X@Xf.4.v 3.x x x x x x x x x x x x x x x x x x ",
"x x x x x x x x x x x x x x x x x x m .Xe.6 8.G ]._.J.K.K.J.-.@.  + 2 L o x v n F F m OXx v x x x x x x x x x x x x x x x x x x ",
"x x 2.x x x x x x x x x x x x x x x x m f.b q.G `.K.K.K.J.n.-.$.. 3 D o i i r i i i i w * x x x x x x x x x x x x x x x x x x x ",
"x x x x x x x x x x x x x x x x x x x m g.P k H `.J.K.K.n.-.@.  3 S = &.&.%.$.^ ~ i i - j x x x x x x x x x x x x x x x x x x x ",
"x x x x x x x x x x x x x x x x x x x J XX0.n H /.K.K.J.-.+.  + 8 $ *.*.*.$.^ ^ i w - x x x x x x x x x x x x x x x x x x x x x ",
"x x x x x x x x x x x x x x x x x x x x G g.8.Z J.K.K.G.&.+.  8 $ *.&.&.$.( ~ p r - j x x x x x x x x x x x x x x x x x x x x x ",
"x x x x x x x x x x x x x x x x x x x x G f.0.Z K.K.K.n.@.  3 8 : -.*.$.( ~ p w % + x x x x x x j j x x x 6.x x x x x x x x x x ",
"x x x x x x x x x x x x x x x x x x x x x J d.A L.K.K.n.+.. 8 $ *.*.$.( ~ r w % - j x x x x x x x x x x x x x x x x x |.x x x x ",
"x x x x x x x x x x x x x x x x x x x x x G p.I _.K.K.m.+.+ 8 : *.$.( ~ p r 0 w * x x x x x x x x x x x x x x x x x x x x x x x ",
"x x x x x x x x x x x x x x x x x x x x x x x P `.L.K.m.O.o 6 : $.( ! r % % r - j x x x x x x x x x x x x x x x x x x x x x x x ",
"x x x x x x x x x x x x x x x x x x x x x x x P './.M.n.O.X 3 $ ~ w % % p r w * x x x x x x x x x x x x x x x x x x x x x x x x ",
"x x x x x x x x x x x +Xx x x x x x x x x x x z $./.K.n.' + 6 . # 0 ^ ! i r 1 x x x x x x x x x x x x x x x x x x x x x x x x x ",
"x x x x x x x x x x x x x x x x x x x x x x x z $.'./.n.' . 6   @ @ = = : w * x x x x x x x x x x x x x x x x 2.x x x x x x x x ",
"x x x x x x x x x x x x x x x x x x x x x x x x b %./.m.' X 8 6 0.Y Y e.Y x x x x x x x x x x x x x x x x x x x x x x x 2.x x x ",
"x x x x x x x x x x x x x x x x x x x x x x x x b $.'.Q.` 2 C O x x x x x x x x x x x x x x x x x x x x x x x x x x x x x x x x ",
"x x x x x x x x x x x x x x x x x x x x x x x x x b %.E.' 2 A           > x x x x x x x x x x x x x x x x x x x x x x x x x x x ",
"x x x x x x x x x x x x x x x x x x x x x x x x x x u ' ,.9 X.+ y 8 2 3 > x x x x x x x x x x x x x x x x x x x x x x x x |.x x ",
"x x x x x x x x x x x x x x x x x x x x x x x x x x x 9 a r X z 8 1 * 2 > x x x x x x x x x x x j x x x x x x x x x x x x x x x ",
"x x x x x x x x x x x x x x x x v n x x x x x x x x x x x < o 1 1 2 2 > x x x x x x x x x x x x x x x x x x x x x x x x x x x x ",
"x x x x x x x x x x x x x x x x x x x x x x x x x x x x x x <       O x x x x x x x x x x x x x x x x x x x x x x x x x x x x x ",
"x x x x x x x x x x x x x x x x +Xx x x x x x x x j x x x x x x x x x x x x x x x x x x x x x x x x x x x x x x x x x x x x x x "
};
