/* XPM */
static char *_4a0b3ad9bbf4745de2292f0879e08c0a6Ios3wT0LP9BOcH[] = {
/* columns rows colors chars-per-pixel */
"64 64 217 2 ",
"   c #030404",
".  c #050905",
"X  c #06050A",
"o  c #050B0B",
"O  c #0A0C09",
"+  c #0A0D0C",
"@  c #031404",
"#  c #051B01",
"$  c #0A1C03",
"%  c #05150A",
"&  c #0A1609",
"*  c #0B120D",
"=  c #111707",
"-  c #121B0B",
";  c #0C0B15",
":  c #0F0C19",
">  c #120E1E",
",  c #0C1413",
"<  c #0B1315",
"1  c #0E1A13",
"2  c #0F1B19",
"3  c #131314",
"4  c #121916",
"5  c #13141B",
"6  c #131B1A",
"7  c #1A1B1C",
"8  c #072504",
"9  c #0D2202",
"0  c #122503",
"q  c #152A01",
"w  c #192709",
"e  c #1E2C0B",
"r  c #053805",
"t  c #1D3302",
"y  c #143609",
"u  c #122412",
"i  c #192715",
"p  c #15211F",
"a  c #1D231C",
"s  c #1A3012",
"d  c #212E0F",
"f  c #213603",
"g  c #243B02",
"h  c #263809",
"j  c #222D14",
"k  c #22261B",
"l  c #242B19",
"z  c #263214",
"x  c #283614",
"c  c #2D3D16",
"v  c #2B3619",
"b  c #140F22",
"n  c #161224",
"m  c #191625",
"M  c #181426",
"N  c #181228",
"B  c #1E1A2B",
"V  c #1D1A32",
"C  c #201F22",
"Z  c #211C2E",
"A  c #221D31",
"S  c #1C2322",
"D  c #1A2826",
"F  c #232423",
"G  c #25262A",
"H  c #242C2B",
"J  c #2D2D2E",
"K  c #2D3422",
"L  c #32362F",
"P  c #262332",
"I  c #282434",
"U  c #2E2B33",
"Y  c #2E2A39",
"T  c #312D3B",
"R  c #293331",
"E  c #333434",
"W  c #35343C",
"Q  c #3C3C3C",
"!  c #094808",
"~  c #19450A",
"^  c #075806",
"/  c #1C5D0E",
"(  c #2C4503",
")  c #2A4605",
"_  c #324E03",
"`  c #344D09",
"'  c #38530A",
"]  c #3A550C",
"[  c #284A14",
"{  c #364B17",
"}  c #34441B",
"|  c #285C16",
" . c #3D5915",
".. c #3B531C",
"X. c #086A05",
"o. c #126808",
"O. c #077A04",
"+. c #187B11",
"@. c #286A18",
"#. c #287A15",
"$. c #337619",
"%. c #3A4726",
"&. c #3E532A",
"*. c #39413B",
"=. c #3C7E29",
"-. c #425C14",
";. c #445E1C",
":. c #49631D",
">. c #475927",
",. c #485337",
"<. c #4A6422",
"1. c #4D6526",
"2. c #526E25",
"3. c #536C29",
"4. c #447829",
"5. c #547226",
"6. c #567229",
"7. c #59762B",
"8. c #5D7A2E",
"9. c #556A36",
"0. c #4E713A",
"q. c #5C7335",
"w. c #617D33",
"e. c #647C3C",
"r. c #262A45",
"t. c #3E3C42",
"y. c #3B3846",
"u. c #413F44",
"i. c #394367",
"p. c #444444",
"a. c #44484A",
"s. c #4A4A4B",
"d. c #50584D",
"f. c #4A4752",
"g. c #4D4B52",
"h. c #545454",
"j. c #55535C",
"k. c #565859",
"l. c #5C5C5C",
"z. c #5B6745",
"x. c #5E7441",
"c. c #647747",
"v. c #6E7B57",
"b. c #5F5F60",
"n. c #54637E",
"m. c #626263",
"M. c #6A686E",
"N. c #6C6B74",
"B. c #767579",
"V. c #7C7C7C",
"C. c #098C07",
"Z. c #188C0B",
"A. c #019D01",
"S. c #0B9E06",
"D. c #2F901A",
"F. c #12AD08",
"G. c #36A91B",
"H. c #2BBA15",
"J. c #3C8F28",
"K. c #4C802C",
"L. c #4D8A37",
"P. c #588836",
"I. c #648234",
"U. c #688639",
"Y. c #6D8A3B",
"T. c #728F3F",
"R. c #47A22D",
"E. c #35CB18",
"W. c #45CD1F",
"Q. c #50D524",
"!. c #54E526",
"~. c #548543",
"^. c #6A8146",
"/. c #738D44",
"(. c #769243",
"). c #789544",
"_. c #76954D",
"`. c #7E9A4B",
"'. c #778959",
"]. c #719352",
"[. c #77A958",
"{. c #788663",
"}. c #819E4F",
"|. c #839D56",
" X c #8BA55A",
".X c #8BA55C",
"XX c #859864",
"oX c #8EA26E",
"OX c #92AC64",
"+X c #96AE6A",
"@X c #95B16B",
"#X c #97AC72",
"$X c #9CB573",
"%X c #9CBA74",
"&X c #9FB479",
"*X c #A4BB79",
"=X c #A5BE7B",
"-X c #A6C179",
";X c #A9C27D",
":X c #596889",
">X c #6C798F",
",X c #7E7D84",
"<X c #848486",
"1X c #8E8C93",
"2X c #959597",
"3X c #8A9AB5",
"4X c #B2B2B2",
"5X c #ABC481",
"6X c #B2CD84",
"7X c #B9D587",
"8X c #C2DE8F",
"9X c #C3E88C",
"0X c #C6E292",
"qX c #CDED94",
"wX c #D3F39A",
"eX c #BFCBDD",
"rX c #CDCDCF",
/* pixels */
"N N N N N N N N N N N N N N N N N N N N N N N N N N N N N N N N N N N N N N N N N N N N N N N N N N N N N N N N N N N N N N N N ",
"N N N eXN N N N N N N N N i.N N N N N N N N N N N N N N N N N N N N N N N N N N N N N N r.N N N N N N N N N N N N N N N N N N N ",
"N N N N N N N N N N N N N N N N N N N N N N N N N N N N N N N N N N N N N N N N N N N N N N N N N N N N N N N N N N N N N N N N ",
"N N N N N N N N N N N N N N N N N N N N N N N N N N N N N N N N N N N N N N N N N N N N N N N N N N N N N N N N N N N N N N N N ",
"N N N N N N N N N N N N N N N N N N N N N N N N N N N N N N N N N N N N N N N N N N N N N N N N N N N N N N N N N N N N N N N N ",
"N N N N N N N N N N N N N N N N N N :XN N N N N N N N N N N N N N N N N N N i.N N N eXN N N N N N N N N N N N N N N N N N N N N ",
"N N N N N N N N N N N N N N N N N N N N N N N N N N N N N N N N N N N N N N N N N N N N N N N N N N N N N N N N N N N N N N N N ",
"N N N N N N N N N N N N N N N N N N N N N N N N N N N N N N N N N N N N N N N N N N N N N N N N N N N N N N N N N N N N N N N N ",
"N N N N N N N N N N N N N N N N N N N N N N N N N N N N N N N N N N N N N N N N N N N N N N N N N N N N N N N N N N N N N N N N ",
"N N N N N N N N N N N N N N N N N N N N N N N N N N N N N N N N N N N N N N N N N N N N N N N N N N N N N N N N N N N N N N N N ",
"N N N N N N N N N N N N N N N N N N N N N N N N N N N N N N N N N N N N N N N N N N N N N N N N N N N N N N N N N N N N N N N N ",
"N N N N N N N N N N N N N N N N N N N N N N N N N N N N N N N N N N N N N N N N N N N N N >XN N n n N n m N N N N N N N N N N N ",
"N N N N N N N N N N N N N N N N N N N N N N N N N N N N N N N N N :XN S m n M M N N A N ; 3 7 5 3 5 5 a h %.j N N N N N N N N N ",
"N N N N N N N N N N N N N N N N N N N N N N N N 3XN N N N N N N N N k o.D.! <.3.z.Y rX1Xk.a.6 p F *.F >./.*X:.j N N N N r.N N N ",
"N 3XN N N N N N N N N N N N N N N N N N N N N N N N N N N N N 5 n j -.o.E.Z.9X7X$X*.2X4XJ H 6 R ; 6 D X >. X$X-.a M N N N n N N ",
"N N N N N N N N N N N N N N N N N N N N N N N N N N N N N N p ~ _.8.qXR.E.X.[.5X#Xp.1XrXJ D , * H O , 6   9..X+X' 7 N N N N N N ",
"N N N i.N N N N N N N N N N N N N N N N N N N N N N N N N D ^ X.[.wX7XJ.Q.F.J.-X'.C l.1Xk.  7 + o m . , 6   q.OX9.n N N N N N N ",
"N N N N N N N N N N N N N N N N N N N N N N N N N N N N a ) #.H.X.%X@Xo.Q.F.=.}. X>.Q m.V.Q . 7 . % p   , , O w...N N N N N N N ",
"N N N N N N N N N N N N N N N N N N N N N N N N N N N a { -XJ.H.+.%X%X4.X.A.K.T.Y.l F p.m.m.J   <   * ,   o . & O N N N N N N N ",
"N N N N N N N N N N N N N N N N N N N N N N N N N N i ..=X%XX.W.Z.J.`.(.7.P.4.Y.6.e O J a.k.l.J   %   . o o o o X N N N N N N N ",
"N N N N N N N N N N N N N N N N N N N N N N N N N i ^ @.$X*X].G.S.4.(.(.).w.8.3.w 3 + 3 E s.Q b.F   *   . < o < ; N N N N N N N ",
"N N N N N N N N N N N N N N N N N N N N N N N N k ~ G.+.=.*X4.Z.A.4.(.(.8.5.<.w 7 p.c.*XO Q p.p.m.m   *   o o < X n N N N N N N ",
"N N N N N N N N N N N N N N N N N N N N N N N j 0.[.G.C.=./.T.@.$.$./.8.5.<.= 6 J O z.8X'.3 p.u.p.m.4 . o o o < X N N N N N N N ",
"N N N N N N N N N N N N N N N N N N N N N N l q.6X~.D.C.7./.(.T.I.5.5.5.;.O , 1   v.0XwX8XXX7 s.p.a.l.3   o % 2 ; N r.N N N N N ",
"N N N N N N N N N N N N N N N N N N N N N l c.5X#Xx.G.C.4.Y.U.I.5.5.5.... o ,   oX;X;X0X6X;Xz.C s.Q f.g.+ 3 ,   ; N N N N N N N ",
"N N N N N N N N N N n N N N N N N N N N k %.$XXX|.4.W.O.4.6.3.1.5.5.{   . O . '.6X5X5X6X=X X X>.k h.Q ,.a.h.s.P N N N N N N N N ",
"N N N N N N N N N N N N N N N N N N N :XN A *.c.c.@.@./ 2.2.{ . i z     . . XX0X;X;XOX).`.Y./.7.v F s.Q p.J I N N N N N N N N N ",
"N N N N N N N N N N N N N N N N N N N Y u.2XU E J K %.v v c   H H R H G W 3 z.*X}. X).).I.;.[ [ ..* 3 7 p.s.g.N N N N N N N N N ",
"N N N N N N N N N N N N N N N N N N u.u.g.M.f.B l.g.B.Q 7   2 6 u * 1 u D d.+ >.).).).w...# 9.9.x.9.&.,.,.S N N N N N N N N N N ",
"N N N N N N N N N N N N N N N N A ,Xs.; U W N Z t.C E 3 . 6 % y Q.$.D.Q.~ H a.X 1.).w...# x.c./.w.q.3.q.%.1 N N N N N N N N N N ",
"N N N N N N N N N N N N N N N A <XM.m Z J U M I B M E 7 S * r H.| E p.[ !.y S J   3.{ 8 x.^.3.3.3.3.3.-.$ m N N N N N N N N N N ",
"N N N N N N N N N N N eXN N N n N.t.7 ,.u.m f.p.N Z Q   , 1 A.r ,.<XJ + @.Q.u H i [ s c.^.3.3.3.3.3.-.g # N N N N N N N N N N N ",
"N N N N N N N N N N N N N N N l.b.3 W t.b.Z s.B {.{.{.  , % O.a.,XF * k J $.O L O e ^.e.3.3.3.:.:. ._ $ 2 N N N N N N N N N N N ",
"N N N N N N N N N N N N N N M.B.J s.y.V v.d.;X#X=X;X;X%.1 . ^ J C + G ,Xp.J.- H i '.e.3.3.3.:._ _ _ t $ m N N N N N N N N N N N ",
"N N N N N N N N N N N N N N g.g.Z P I XX5X5X-XL.L.J.*XK 1 1 A.! + R <XQ [ Q.u D l e.3.3.3.:._ _ ( f 8 * N N N N N N N N N N N N ",
"N N N N N N N N N N N N N y.V.s.N U oXOX+XOX_.X.E.J._.O o o 8 A.y p.E ! E.~ . 2 z 3.3.2.:._ _ ( t # , N N N N N N N N N N N N N ",
"N N N N N N N N N N N N N Y l.T E #X X(.).).U.C.O.@.(.1.  % o r A.X.^ A.8   <   x 3.3.-._ _ ( t # , N N N N N N N N N N N :XN N ",
"N N N N N N N N N N N N I B.y.E (.`.).(.).).).P.8.(.)._.>.. 2 o % % . # % %   v 3.3.-._ _ ( q @ 5 N N N N N N N N N N N N N N N ",
"N N N N N N N N N N N N M Y ,.).).).).(./.).).I.Y.Y.Y./.Y.}   2 1 < 2 2 o   c 3.6.-._ _ g q @ 5 N N N N N N N N N N N r.N N N N ",
"N N N N N N N N N N N N n d.*X`.).).).U.7.7.8.5.5.<.<.5.6.5.x x w -         } 3.] _ _ g q # 5 N N N N N N N N N N N N N N N N N ",
"N N V N N N N N N N N N ,.*X}.(.).(.w.2.2.c ....j &   - e 3.<.:.2.w X ,   ; >.] ( g g q @ 5 r.N N N N N N N N N N N N N N N N N ",
"N N N N N N N N N N N l ;.*X.X)./.w...O w   . O + + o % X = *   & o 2   5 p.N h f f 0 @ n N N N N N N N N N N N N N N N N N N N ",
"N N N N N N N N N N N %.$X.X(.(.w.{   , 1 p , 6 R G a H H S S 1 1 4   $ m B.j.m f 9 & N N N N N N N N :XN N N N N N N N N N N N ",
"N N N N N N N N N N k ' @XOX(.7.{   , , , O z j c j = = 5 3 3 ; -   c { e N W N n % N N N N N N N N N N N N N N N N N N N N N N ",
"N N N N N N N N N N l XXOX(.7.[ . 4 , = >...3.3.3.3.;.h 7 I M.Y %.>.:._ f e N W I N N 3XN N N N N N N n N N N N N N N N N N N N ",
"N N r.N N N N N N N v |.OX6.x . 6 * = >.2.2.3.3.3.3.3.;.f 7 j.2XA } _ ( f t 4 N N N N N N N N N N N N N N N N N N N N N N N N N ",
"N N N N N N N N N N K `.7.z . m + . ( ' ] ' ] -. . .-.-.` f 7 M.,XN d f t # , N N N N N N N N N N N N N N N N N N N N N N N N N ",
"N N N N N N N N N M v U.j 3 H + O @ 9 q ( ( ( _ _ ) _ _ ` ) f m j.u.n.w # < N N N N N N N N N N N N N N N N N N N N N N N N N N ",
"N N N N N N N N N N h x a E , 5 p.3 w g # q q f t f f f t f f e N P B n : N N N N N N N N N N N N N N N N N N N N N N N N N N N ",
"N N N N N N N N N N N - H 3   > I U 3 f f t $ 0 9 8 9 9 9 9 q 0 $ N Q V N N N N N N N N N N N N N N N N N i.N N N N N N N N N N ",
"N N N N N N N N N N b   6 2 3   > U Q * t f f q q $ & % 2 n n n 5 N N N N N N N N N N N N N N N N N N N N N N N N N N :XN N N N ",
"N N N N N N N N N N b X , 6 6 +   n W R t $ - @ 5 , N M N :XN N N N N N N N N N N N N N N N N N N N N N N N N N N N N N N N N N ",
"N N N N N N N N N N N   o < o < ;   N N 5 , N n N N N N N N N N N N N N N N N N N N N N N N N N N N N N N N N N N N N N N N N N ",
"N N N N N N N N N N N n   o < 2 o ; N N N N N N N N N N N N N N N N N N N N N N N N N N N N N N N N N N N N N N N N N N N N N N ",
"N N N N N N N N N N N 3Xn ; ; : ; N N N N N N N N N N N N N N N N N N N N N r.N N N N N N N N N N N N N N N N N N N N N N N N N ",
"N N N N N N N N N N N N N N N N N N N N N N N N N N N N N N N N N N N N N N N N N N N N N N N N N N N N N N N r.N N N N N N N N ",
"N N N N N N N N N N N N N N N N N N N N N N N N N N N N N N N N N N N N N N N N N N N N N N N N N N N N N N N N N N N N r.N N N ",
"N N N N N N N N N N N N N N N N N N N N N N N N N N N N N N N N N N N N N N N N N N N N N N N N N N N N N N N N N N N N N N N N ",
"N N N N N N N N N N N N N N N N N N N N N N N N N N N N N N N N N N N N N N N N N N N N N N N N N N N N N N N N N N N N N N N N ",
"N N N N N N N N N N N N N N N N N N N N N N N N N N N N N N N N N N N N N N N N N N N N N N N N N N N N N N N N N N N N N :XN N ",
"N N N N N N N N N N N N N N N N N N N N N N N N N N N N N N N N N N N N N N N N N N N N N N N N N N N N N N N N N N N N N N N N ",
"N N N N N N N N N N N N N N N N N N N N N N N N N N N N N N N N N N N N N N N N N N N N N N N N N N N N N N N N N N N N N N N N ",
"N N N N N N N N N N N N N N N N N N N N N N N N N N N N N N N N N N N N N N N N N N N N N N N N N N N N N N N N N N N N N N N N ",
"N N N N N N N N N N N N N N N N 3XN N N N N N N N N N N N N N N N N N N N N N N N N N N N N N N N N N N N N N N N N N N N N N N "
};
