/* XPM */
static char *_7a1d9fb96b943b58ea2dfdf97035fecBO0w5Z45RjFCiDuo[] = {
/* columns rows colors chars-per-pixel */
"64 64 123 2 ",
"   c black",
".  c #020A08",
"X  c gray5",
"o  c #0E0D0F",
"O  c #0E0E0E",
"+  c #001600",
"@  c #03110E",
"#  c #0E0E11",
"$  c #0F0E12",
"%  c #091211",
"&  c #111F1D",
"*  c #223702",
"=  c #2A3F05",
"-  c #28370C",
";  c #273A0B",
":  c #283A0A",
">  c #181228",
",  c #172321",
"<  c #232323",
"1  c #263936",
"2  c #313131",
"3  c #363537",
"4  c #373639",
"5  c #333A39",
"6  c #393939",
"7  c #044B07",
"8  c #034F06",
"9  c #054A08",
"0  c #015402",
"q  c #025403",
"w  c #015702",
"e  c #035005",
"r  c #025304",
"t  c #005900",
"y  c #2D4700",
"u  c #2B4104",
"i  c #2B4304",
"p  c #334F03",
"a  c #536F25",
"s  c #506C26",
"d  c #536C29",
"f  c #537126",
"g  c #547226",
"h  c #667D3F",
"j  c #252541",
"k  c #262A45",
"l  c #394367",
"z  c #4A494D",
"x  c #4E4D4F",
"c  c #4E4E4F",
"v  c gray31",
"b  c #515151",
"n  c #535254",
"m  c #525F5D",
"M  c #5B5A5D",
"N  c gray39",
"B  c #636266",
"V  c #6B6B6C",
"C  c #6C6C6D",
"Z  c #78777B",
"A  c #7D7C7F",
"S  c #039A05",
"D  c #029E04",
"F  c #02A203",
"G  c #01A802",
"H  c #00AE00",
"J  c #4EC927",
"K  c #4FCD26",
"L  c #51D326",
"P  c #53D927",
"I  c #54DF27",
"U  c #57E527",
"Y  c #58EB27",
"T  c #6C8441",
"R  c #6F8941",
"E  c #718B42",
"W  c #738F43",
"Q  c #748F43",
"!  c #769143",
"~  c #779343",
"^  c #779443",
"/  c #769244",
"(  c #789544",
")  c #799547",
"_  c #77944A",
"`  c #7C9256",
"'  c #90A270",
"]  c #91A470",
"[  c #92A571",
"{  c #9DB379",
"}  c #A0B47A",
"|  c #A1B67B",
" . c #A6BE7F",
".. c #A8BF7F",
"X. c #A9C07F",
"o. c #A9C17F",
"O. c #596889",
"+. c #818183",
"@. c #868587",
"#. c #8B8B8B",
"$. c gray55",
"%. c #8D8D8D",
"&. c #8A9AB5",
"*. c #A2A0A5",
"=. c #A3A2A6",
"-. c #A5A4A8",
";. c #A7A6A9",
":. c #B4B3B5",
">. c #AAC280",
",. c #AEC784",
"<. c #B1C986",
"1. c #B4CD88",
"2. c #C4E091",
"3. c #C8E694",
"4. c #CCE996",
"5. c #D7F69D",
"6. c #D8F89E",
"7. c #D9F99E",
"8. c #D9FA9E",
"9. c #DCFDA0",
"0. c #BFCBDD",
"q. c gray76",
"w. c white",
/* pixels */
"> > > > > > > > > > > > > > > > > > > > > > > > > > > > > > > > > > > > > > > > > > > > > > > > > > > > > > > > > > > > > > > > ",
"> > > 0.> > > > > > > > > l > > > > > > > > > > > > > > > > > > > > > > > > > > > > > > k > > > > > > > > > > > > > > > > > > > ",
"> > > > > > > > > > > > > > > > > > > > > > > > > > > > > > > > > > > > > > > > > > > > > > > > > > > > > > > > > > > > > > > > ",
"> > > > > > > > > > > > > > > > > > > > > > > > > > > > > > > > > > > > > > > > > > > > > > > > > > > > > > > > > > > > > > > > ",
"> > > > > > > > > > > > > > > > > > > > > > > > > > > > > > > > > > > > > > > > > > > > > > > > > > > > > > > > > > > > > > > > ",
"> > > > > > > > > > > > > > > > > > O.> > > > > > > > > > > > > > > > > > > l > > > q.> > > > > > > > > > > > > > > > > > > > > ",
"> > > > > > > > > > > > > > > > > > > > > > > > > > > > > > > > > > > > > > > > > > > > > > > > > > > > > > > > > > > > > > > > ",
"> > > > > > > > > > > > > > > > > > > > > > > > > > > > > > > > > > > > > > > > > > > > > > > > > > > > > > > > > > > > > > > > ",
"> > > > > > > > > > > > > > > > > > > > > > > > > > > > > > > > > > > > > > > > > > > > > > > > > > > > > > > > > > > > > > > > ",
"> > > > > > > > > > > > > > > > > > > > > > > > > > > > > > > > > > > > > > > > > > > > > > > > > > > > > > > > > > > > > > > > ",
"> > > > > > > > > > > > > > > > > > > > > > > > > > > > > > > > > > > > > > > > > > > > > > > > > > > > > > > > > > > > > > > > ",
"> > > > > > > > > > > > > > > > > > > > > > > > > > > > > > > > > > > > > > > > > > > > > &.> > > > > > > > > > > > > > > > > > ",
"> > > > > > > > > > > > > > > > > > > > > > > > > > > > > > > > > O.> > > > > > > > > > > > > > > > > > > > > > > > > > > > > > ",
"> > > > > > > > > > > > > > > > > > > > > > > > &.> > > > > > > > > > > k > > > > > > > > > > > > > > > > > > > > > > > k > > > ",
"> &.> > > > > > > > > > > > > > > > > > > > > > > > > > > > > > > > > > > > > > > > > > > > > > > > > > > > > > > > > > > > > > ",
"> > > > > > > > > > > > > > > > > > > > > > > > > > > > > > > > k > > > > > > > > > > > > > > > > > > l > > > > > > > > > > > > ",
"> > > l > > > > > > > > > > > > > > > > > > > > > > > > > > > > > > > > > > > > > > > > > > > > > > > > > > > > > > > > > > > > ",
"> > > > j > > > > > > > > > > > > > > > > > > > > > > > > > > > > > > > > > > > > > > > > > > > > > > > > > > > > > > > > > > > ",
"> > > > > > > > > > > > > > > > > > > > > > > > > > > > - - - - ; : : 9 9 = u u u r 0 y > > > > > > > > > > > > > > > > > > > > ",
"> > > > > > > > > > > > > > > > > > > > > -.-.*.z B > > > ,.,.<.1.1.8 J 8 2.3.4.r I w 5.y y y t > > > > > > > > > > > > > > > > ",
"> > > > > > > > > > > > > > > > > > :.+.+.M 4 # # $ Z -.> h ] ] [ r K S r { | 0 I G t 5.7.7.t Y w > > > > > > > > > > > > > > > ",
"> > > > > > > > > > > > > > > > #.#.x 4 # O # 3 , 4 M A > T T T 8 L D 0 E | | 0 U 0 >.>.X.t Y H w p > > > > > > > > > > > > > > ",
"> > > > > > > > > > > > > > $.#.x v > > V x x x 3 3 > > > > E 0 P F r Q W Q t U G t >. .t Y Y t 9.9.u > &.> > > > > > > > > > > ",
"> > > > > > > > > > > > > > > > > > > > > > > C > > > > b @.O s r 0 ! Q ! ! t G t ( ! ! t Y H t ,.>.9.> > > > > > > k > > > > > ",
"> > > > > > > > > > y y >.>.>.( ( ~ X... . ...> > C v > 6 o $.O a a s a ( / / t ( ( ( ( t H t >.X.X.# N w.> > > > > > > > > > > ",
"> > > > > > > > y y >.>.>.( ( ( ( ( ~ ( ( ........> > > > 6 < x O g g g g g g g ( ( ( ( ( t ( ( X.O N $.q.q.    > > > > > > > > ",
"> > > > > > > y >.>.>.( ( ( ( ( ( ( ( ( ( ( X.X.X.X...> b 2             g g g g g g g g g ( ( ( ( O N w.$.  m 5   > > > > > > > ",
"> > > > > > y >.>.( ( ( ( ( ( ( ( ( ( ( ( ( ( t t X.X.X.o   , , , , 5 5   g g g g g g g g g g g O 6 N $.  1 ,   k . > > > > > > ",
"> > > > > y _ g g g g g g g g g g g g ( ( ( t H Y t >.>.  % ,         , 5                       O 6 N $.  ,   1   m   > > > > > ",
"> > > > > y                       g g g ( ( ( t t ( >.  % ,   H H Y Y   , 5   . % % & & 5 5 m   O 6 N N   ,   1   1 5   > > > > ",
"> > > >     m 5 5 , , , , , , , %     g g g ( ( ( (   % ,   H # o o # Y   , 5                 9.O 6 N N   ,   ,   1   ( y > > > ",
"> > >   % ,                     , , .   g g g ( ( (   %   H O $.$.$.$.# Y   m   >.9.>.9.>.9.X.7.O v 6 N   %   ,   ,   ( >.p > > ",
"> > >   % , ,   > x # + p d d d     , %     g g ( (   %   H O O o O X X Y   m   >.>.>.>.>.>.9.>.O b 6 N   %   ,   ,   ( >.y > > ",
"> > >   @ % ,   > 6 O + * p d d d d   5 % .   g g (   &   H O O O O X X Y   m   ( ( >.>.>.9.>.9.# v 6 N   %   ,   ,   ( >.y > > ",
"> > >   & . %   > 6 O p + p p d d d d   5 % .   g g   &   H o $.$.$.$.O Y   5   ( ( ( ( ( >.>.>.O b 6 N   %   %   ,   ( >.y > > ",
"> > > >   & &   > b # p + * p p d d d d   5 %   g g   & %   H o O X O Y   , 5   ( ( ( ( ( ( ( >.X b 6 N   %   %   %   ( >.y > > ",
"> > > > >       > b O * * + * p p d d d *   5 %   g g   & %   H H Y Y   , 5   g g g g g g g ( ( X v 6 N   %   % % .   ( y O.> > ",
"> > > > > > > > > > * * * + * * p p d d * >   5 %   g g   & %         , 5   + + + + + + + + g g X b 6 N   %   % . . %   > > > > ",
"> > > > > > > > > > + + * * + * * p p d * > b   & %         & % % % % &   ` ` ` ` ` ` ` ` ` + g X b 4 N   . % . . &   k > > > > ",
"> > > > > > > > > > > > + + * + * * p p * > $.>   & & & % %             d d d d d d d d d ` ` + X b < N   . . . &   > > > > > > ",
"> > > > > > > > > > > > > > + + + * * p * > q.> d               d d d d d d d d d d d d d d d ` + o b 6 N   & &   > > > > > > > ",
"> > > > > > > > > > > > > > > > + + * * * > q.> d d d * > b > d d d d d d d d d d d d d d d d d ` o b < 6 N     > > > > > > > > ",
"> > > > > > > > > > > > > > > > k > + * * > $.> p p p * > q.> p p p p p p p p p p p p p d d d d d ` > $.> > > > > > > > > > > > ",
"> > > > > > > > > > > > > > > > > > O.+ * > b > * * * * > b > * * * p p p p p p p p p p p p p p + + > > > > > > > > > > > > > > ",
"> > > > > > > > > > > > > > > > > > > > + > > > * * * * > > > * * * * * * * * * * * * * * * + + > > > > > > > > > > > > > > > > ",
"> > k > > > > > > > > > > > > > > > > > > > b > + + + + > b > + + + + + + + + + + + + + + + > > > > > > > > > > > > > > > > > > ",
"> > > > > > > > > > > > > > > > > > > > > > > > > > > > > > > > > > > > > > > > > > > > > > > > > > > > > > > > > > > > > > > > ",
"> > > > > > > > > > > > > > > > > > > > > > > > > > > > > > > > > > O.> > > > > > > > > > > > > > > > > > > > > > > > > > > > > ",
"> > > > > > > > > > > > > > > > > > > > > > > > > > > > > > > > > > > > > > > > > > > > > > > > > > > > > > > > > > > > > > > > ",
"> > > > > > > > > > > > > > > > > > > > > > > > > > > > > > > > > > > > > > > > > > > > > > > > > > > > > l > > > > > > > > > > ",
"> > > > > > > > > > > > > > > > > > > > > > > > > > > > > > > > > > > > > > > > > > > > > > > > > > > > > > > > > > > O.> > > > ",
"> > > > > > > > > > > > > > > > > > > > > > > > > > > > > O.> > > > > > > > > > > > > > > > > > > > > > > > > > > > > > > > > > ",
"> > > > > > > > > > > > > > > > > > > > > > > > > > > > > > > > > > > > > > > > > > > > > > > > > > > > > > > > > > > > > > > > ",
"> > > > > > > > > > > > > > > > > > > > > > > > > > > > > > > > > > > > > > > > > > > > > > > > > > > > > > > > > > > > > > > > ",
"> > > > > > > > > > > &.> > > > > > > > > > > > > > > > > > > > > > > > > > k > > > > > > > > > > > > > > > > > > > > > > > > > ",
"> > > > > > > > > > > > > > > > > > > > > > > > > > > > > > > > > > > > > > > > > > > > > > > > > > > > > > > k > > > > > > > > ",
"> > > > > > > > > > > > > > > > > > > > > > > > > > > > > > > > > > > > > > > > > > > > > > > > > > > > > > > > > > > > k > > > ",
"> > > > > > > > > > > > > > > > > > > > > > > > > > > > > > > > > > > > > > > > > > > > > > > > > > > > > > > > > > > > > > > > ",
"> > > > > > > > > > > > > > > > > > > > > > > > > > > > > > > > > > > > > > > > > > > > > > > > > > > > > > > > > > > > > > > > ",
"> > > > > > > > > > > > > > > > > > > > > > > > > > > > > > > > > > > > > > > > > > > > > > > > > > > > > > > > > > > > > O.> > ",
"> > > > > > > > > > > > > > > > > > > > > > > > > > > > > > > > > > > > > > > > > > > > > > > > > > > > > > > > > > > > > > > > ",
"> > > > > > > > > > > > > > > > > > > > > > > > > > > > > > > > > > > > > > > > > > > > > > > > > > > > > > > > > > > > > > > > ",
"> > > > > > > > > > > > > > > > > > > > > > > > > > > > > > > > > > > > > > > > > > > > > > > > > > > > > > > > > > > > > > > > ",
"> > > > > > > > > > > > > > > > &.> > > > > > > > > > > > > > > > > > > > > > > > > > > > > > > > > > > > > > > > > > > > > > > "
};
