/* XPM */
static char *dc2bd1efcb7b4d15ee41b7df7fb7f2fbnhONXxrR8giBqkim[] = {
/* columns rows colors chars-per-pixel */
"64 64 240 2 ",
"   c #171427",
".  c #161528",
"X  c #181328",
"o  c #141B2B",
"O  c #181B2B",
"+  c #181427",
"@  c #121F32",
"#  c #14212E",
"$  c #19252E",
"%  c #0E2C3A",
"&  c #0F2535",
"*  c #122432",
"=  c #132935",
"-  c #1B2C34",
";  c #122C3A",
":  c #1B2D3B",
">  c #182435",
",  c #0E323E",
"<  c #1C3135",
"1  c #13323D",
"2  c #1B343B",
"3  c #1E393E",
"4  c #213236",
"5  c #243A3C",
"6  c #212A3E",
"7  c #25403F",
"8  c #0B2E43",
"9  c #122D43",
"0  c #0C3443",
"q  c #0D3C4C",
"w  c #0D3A48",
"e  c #123543",
"r  c #133945",
"t  c #1B3C42",
"y  c #133C4B",
"u  c #193D4C",
"i  c #163648",
"p  c #0D3D51",
"a  c #083F5D",
"s  c #163A50",
"d  c #262B44",
"f  c #253F41",
"g  c #343F5E",
"h  c #14424D",
"j  c #1B434C",
"k  c #1D4549",
"l  c #0E4254",
"z  c #0D4659",
"x  c #0D4A5D",
"c  c #134452",
"v  c #1A4653",
"b  c #144A55",
"n  c #1B4B54",
"m  c #13475A",
"M  c #144B5B",
"N  c #1B4C5C",
"B  c #15515D",
"V  c #1B535C",
"C  c #1E555A",
"Z  c #0D505F",
"A  c #244244",
"S  c #2A4545",
"D  c #24454A",
"F  c #244A4C",
"G  c #2A4949",
"H  c #334947",
"J  c #2D524F",
"K  c #34554C",
"L  c #284C53",
"P  c #245457",
"I  c #2B5355",
"U  c #24555B",
"Y  c #285A5A",
"T  c #345554",
"R  c #355B58",
"E  c #35405F",
"W  c #27605E",
"Q  c #366359",
"!  c #0D4C62",
"~  c #134D61",
"^  c #0F556A",
"/  c #135363",
"(  c #1A5462",
")  c #1E5B64",
"_  c #125A6B",
"`  c #195B6B",
"'  c #15556B",
"]  c #0E5574",
"[  c #125C71",
"{  c #145875",
"}  c #0B4D70",
"|  c #235C63",
" . c #2C5E62",
".. c #285665",
"X. c #385C66",
"o. c #394365",
"O. c #19626C",
"+. c #196678",
"@. c #197477",
"#. c #2C6464",
"$. c #27666A",
"%. c #3B6C65",
"&. c #356A68",
"*. c #3A736A",
"=. c #35776C",
"-. c #226D7B",
";. c #276972",
":. c #356577",
">. c #297677",
",. c #367678",
"<. c #2E736B",
"1. c #43685C",
"2. c #476A68",
"3. c #457569",
"4. c #457A76",
"5. c #577B77",
"6. c #4C6A72",
"7. c #495A52",
"8. c #38847B",
"9. c #48816A",
"0. c #478778",
"q. c #52887A",
"w. c #4A917E",
"e. c #55957D",
"r. c #5F8569",
"t. c #678A7B",
"y. c #0C5984",
"u. c #205F82",
"i. c #116582",
"p. c #156986",
"a. c #1A7687",
"s. c #177898",
"d. c #166D95",
"f. c #246C85",
"g. c #277A85",
"h. c #357884",
"j. c #257B91",
"k. c #2F7592",
"l. c #427D81",
"z. c #596E86",
"x. c #18858C",
"c. c #188599",
"v. c #29838C",
"b. c #338382",
"n. c #37898A",
"m. c #37958B",
"M. c #238796",
"N. c #389496",
"B. c #358D97",
"V. c #1B8CA9",
"C. c #2485A1",
"Z. c #2795A6",
"A. c #2899B5",
"S. c #379BAB",
"D. c #3BA4B8",
"F. c #30B0B8",
"G. c #478783",
"H. c #489486",
"J. c #589688",
"K. c #479795",
"L. c #539792",
"P. c #4E8C90",
"I. c #6A9989",
"U. c #659A97",
"Y. c #728E8B",
"T. c #49A497",
"R. c #57A496",
"E. c #57AB92",
"W. c #68A798",
"Q. c #75A99A",
"!. c #69B69B",
"~. c #7BB99B",
"^. c #71A987",
"/. c #469BA7",
"(. c #5196A7",
"). c #47A4A7",
"_. c #57A9A7",
"`. c #54B4A9",
"'. c #47B7BA",
"]. c #5AB9B6",
"[. c #4FABB3",
"{. c #69AAA7",
"}. c #64B9AA",
"|. c #76B7A6",
" X c #6DB0B5",
".X c #669DAA",
"XX c #7EC499",
"oX c #68C6B8",
"OX c #7CC6B4",
"+X c #74C5AD",
"@X c #5CC6B9",
"#X c #1CBEC7",
"$X c #30B5C7",
"%X c #26B0C7",
"&X c #47B9C5",
"*X c #34C6CF",
"=X c #47D7D9",
"-X c #59D7DB",
";X c #51C9CE",
":X c #67C8C9",
">X c #77C6C9",
",X c #7ADBD7",
"<X c #70D4D9",
"1X c #6FE6D7",
"2X c #58E2E3",
"3X c #44E1E1",
"4X c #76EAE8",
"5X c #6DD9E2",
"6X c #89B699",
"7X c #8999B2",
"8X c #8AB6A9",
"9X c #82C2A8",
"0X c #86C8B7",
"qX c #96D2B5",
"wX c #AECEAF",
"eX c #8DD7C8",
"rX c #89D8D8",
"tX c #91D4D8",
"yX c #91CCC4",
"uX c #B0D4CB",
"iX c #8AE2DE",
"pX c #93EAD9",
"aX c #ADEADA",
"sX c #93DCE5",
"dX c #85E6E6",
"fX c #98EAE8",
"gX c #97EEF0",
"hX c #A7E6E2",
"jX c #BAEBEB",
"kX c #B9F8F6",
"lX c #B1F7EE",
"zX c #C5D4DC",
"xX c #C7FAF7",
"cX c #D4FCFB",
"vX c #DBFBFB",
"bX c #D9F6F5",
"nX c #D5F2E9",
"mX c #E6FCFB",
"MX c #F5FDFC",
"NX c #FBFDFD",
/* pixels */
"X X X X X X X X X X X X X X X X X X X X X X X X X X X X X X X X X X X O   X X X X X X X X X X X X X X X X X X X X X X X X X X X ",
"X X X zXX X X X X X X X X o.X X X X X X X X X X X X X X X X X X X X   X X X X X X X X X d X X X X X X X X X X X X X X X X X X X ",
"X X X X X X X X X X X X X X X X X X X X X X X X X . X X   o + + X   X X X X X X X X X X X X X X X X X X X X X X X X X X X X X X ",
"X X X X X X X X X X X X X X X X X X X X X X X X . . o @ o   + X X X X X X X X X X X X X X X X X X X X X X X X X X X X X X X X X ",
"X X X X X X X X X X X X X . X X X X X X X . o o : o . + X X X X X X     X X X X X X X X X X X X 9 @ X X X X X X X X X X X X X X ",
"X X X X X X X X X X X X X X X X X X z.X o ; o o o X X X X X X X X X . .     g X . X uXX X X X X @ X X X X X X X X X X X X X X X ",
"X X X X X X X X X X X X . X X X X X . * * o + + X X X . o o o = ; * * . @ > 9 o . . . X X X X X X X X X X X X X X X X X X X X X ",
"X X X X X X X X X X X X . X X X . o * * X +       ; 2 < S S 4 4 = o . o * m ;.= * # @ . . X X X X X X X X X X X X X X X X X X X ",
"X X X X X X X X X X X X X X @ . o .   X X X # # 1 j 5 < ; ; = = o o # % m s.C.y 8 @ * * o X X X X X X X X X X X X X X X X X X X ",
"X X X X X X X X X X X X X X y i #     .   - G K G ; o o o = = & , & 9 % 0 c O.o ; @ o @ @ > & @ . X . X X X X X X X X X X X X X ",
"X X X X X X X X X X X X X ; +.' . X X O 5 L k t $ # = # # , r y 0 1 , & 1 1 c o o o . o @ o o = o . X . . . X X X X X X X X X X ",
"X X X X X X X X X X X . s f.j.' >   - K I u 2 # # # , r r 1 0 y y w e = h r r * o o o o X Y.o * ; > . X @ X X X X X X X X X X X ",
"X X X X X X X X X X . 9 f.M.j.u.j ( ,.5.G # o , # 1 y 1 0 n C N N $.) b P h c u 0 = o = o + o   . @ u @ . X X X X X X X X X X X ",
"X X X X X X X X X X X . e ~ { s 3 K Q 5 # # o # P ( v n &.#.8.,.3.8.#.Y I  .$.U I G # + ; o     . o i = . X X X X X X X d X X X ",
". 7XX X X X X X X X . * > @ s d A F J 3 o . , b v U ;.8.R. X0XwXQ.W.W.{.W.2.%.1.3.*.#.u # # o     . X o . . X X X O X X X X X X ",
"X X X X X X X X X . & * X X 9 S W W F o o o ; n >.G.L.R.9XP.8X{.).Z.].9X!.6X0.8.*.9.,.v G # * o o . X E o . X X X X X X X X X X ",
"X X X o.X X X X X o % o X X ..6.Q K ; # = h h =.T.T.!.W.Y C *.n ;.$.<.<.$.,.8.*.J.Y.r.R G.I & 9 . . . . o * o X X X X X X X X X ",
"X X X X X X X X X o & . X . 2.Y.9.t o o % C O.L.XX9.W r h q Q k l 0 r w h n l B ,...J.3.q.J.h.+.r   .     o o . . X . X X X X X ",
"X X X O X X X X o & * . X # I 0.F $ o 0 c #.K.^.*.) b l / ^ =.( x z z l , h h C C j | I 0.^.U.f.b . o .     o o . X X X X X X X ",
"X X X X X X X X o ; # .   o Y %.t * & c ;.h.{.G.h [ +.] +.s.T.@.a./ , l 0 h l , j 1 c h W Y.6X4.1 # # .   . X ; o . . X X X X X ",
"X X X X X X X   * e #   o 2 G...3 % q h G.Q.9.V / _ ] ^ _ v.9X|.K.P.q.n.O.% l l h 0 r h / -.l.U.R 0 o o o X   . # > X X X X X X ",
"X X X X X X X . = %     o G Y.5.2 , v N.!.J.+._ ^ ^ @.x.T.0XaX+XN.H.R.W.W.3.<.b x , # , M _ N.}.J.P 1 * o X     o > + + o X X X ",
"X X X X X X X o = 1     # G H..., , V b.W.L.+.] [ d.M.N.@XS.eX|.d.>.+.@.H.oX!.8.[ z , w e h @.-.&.&.r e X.  X + o . X X . X X X ",
"X X X X X X X o 1 = #   3 Q W.N , , M m.~.g.+.^ y.v._.`.Z.'.fXdXC.] a.;.h.e.w.8.8.) h B 0 c ` _ <.w. .1 1 o     . o 9 X X X X X ",
"X X X . X X . @ ; * .   ; L J.X.h h ` >.W.a.p.i.[ K.'.$X$X,XaXdX&XA.V.p.d.M.0.wXe.=.x / l 0 y M $.3.H.v r o   X   o o . . X X X ",
"X X X . X X X % 1 = o # o R J.<.k h @.n.K.a.i.c.F.'.=X3X4XbXbXlX-X*XF.s.x.} =.6X8Xm.@._ B q q p ` U q.L y r     X o ; . . X X X ",
"X X X . . X X & = # $ # o U W.N r % [ _.).p.d.s.Z.,XiXkXmXMXmXMXcXrXD.%Xx.x 0 $.R.T.J.B _ h V ! O.q U %.j % o   X   = o X X X X ",
"X X   > . X X & y =   o t 2.U.f 1 r +._.(.d.c.c./.hXmXbXcXxXvXcXMXMXgX$X*XV.] ! b.m.m.8.O.x 0 h l v I t.X.& o X X   * o X X X X ",
"X X X .   X & f.` = o * r Y 8X5.& b a.'.S.s.p.F.1XjXMXvXxXxXMXmXmXNXMXrX*X$Xs.i._ `.!.8.$.b z b m [ y Q &.j 1       . : o X X X ",
"X X X X X X . p c & o o * G 6Xb.2 / @.m.OXA.j.].pXxXvXcXcXMXNXNXNXNXNXvX,X;XD.{ C @XqXm.h.! w w l y 0 n R e ; o       * + + X X ",
"X X X . X X X . y & & . < 7.8XI.Q *.H.~.uXdXtXpXaXvXmXvXMXNXMXMXNXNXMXmXxXpX0XXXe.wXnX6Xw.8.<.R ,.$.u y #.F * .     o > o X X X ",
"X X       X X . 1 1 # 5.< y 1.J.,.<.O.[.9X>X-X<XdXkXmXkXcXMXMXNXNXvXvXmXiXD.k.` L 8.aXt.*.;.O.) ( V y 1 %.F 0 o       > @ X X X ",
"X X X X . X X . r 1 = # # , k H.N.` y p. XyX'.%X=XgXbXcXkXmXMXMXmXkXvXkX>XA.i.y.a ) uXe.0.;.x / ` w e < 2.L > o . X X * . X X X ",
"X X X o . X X . 2 , = $ = ; 1 9.+X<.p } f.[.;X<X5X=X4XkXvXmXNXNXxXxXcXgXdX;Xs.} ! +.0X*.*.H.M z M h = 2 ;.G @ o .   . & @ X X X ",
"X X X . . . X . 3 < , = % 1 , P ~.=.) l +./.oXeXsX5X2X5XkXxXvXMXkXkXMXtX&XC.C.l ! v.OXE.e.<.b c M c o 2 *.I o . X X X o > + X X ",
"X X . . . . X X 7 G , $ = % # ; H.E.g.{ [ @.v.[.xXjXdXdXkXvXvXmXgX4XkX1X Xd.' & z @.oXH.8.O.@.h b c o = R P # . .     . o X X X ",
"X X X . o . X X o A r 3 # 1 1 k C b.].b.x _ ! g.:XtXhXxXxXlXvXhXfXhXlX:X].A.m q z N.uXw.( +.@.^ y y o - %.k * . + X X + # 6.X X ",
"X X X . o . . X o < < 1 ; % r 1 1 W [.K.:.~ z O.s.V.&X&X=X2XxXlXfX,XfXrX[.g.8 ! B E.+Xb.U.#.O.( M 1 o k X.S * . X X X + >   X X ",
"X X X X o * . X   # < y % = = = 1 h | L.K.L.U +.] ] d.#X;X2XaXxXsXrX@X].V.} 8 q b }.E.K.W b M M 1 ; @ A 2.S O O + X o 9 . X X X ",
"X X X X X . o   X o 5 t h 1 = 1 t j O.n.B.L._.B.k.(.(.&X;XiXnXxXrX X_.T.s.p ! ! v.}.L.>.h l ^ v & = & D 3.4 . > + X . X X X X X ",
"X X X X X . o .   . $ A ) r % ; t , h >.@.8.8.K. XS.B.[.:X8XzXjXeX'.Z.x.l 0 Z x.}.|.q.Y / c y ; = # k P S # . . X X o + + X X X ",
"X X X X X X & . X X o G ,...; o 1 = 1 O.O.=.T.`.H.R.K.oXrX].yXtXD.M.+./ B c C R.8X5.Y n c y 1 1 1 r P 3.- . o . X + . + . X X X ",
"X X X X X X * o . . X L h.h.U > 1 o % 1 b C #.h.M.v.K.W.[.K.{.,.B z q w l x $.R.0.P Q v b c ; = % M Y z.# o o . X . . X X X X X ",
"X X X X X X X : *   X   ..:.h..., & v , 1 B C _ { ( ,.4.h.>.w.U w q w ! ( h. X,.=.Y j B ( h 1 * y O.T H   o o X X . . + X X X X ",
"X X X X X X X o * o o o ; ..h.,.$.j c 1 3 0 b h v k h l l z &./ 0 ! O.Z &.U.e.k K t B -.e # o o O.n.H e . . . X X X   X O X X X ",
"X X d X X X X X . > & * o o r 3 I %.n # # & & h y q 0 h w w #.O.l B $.L.E.3.k k r k ) b $ # o y S..XX.- . X . X   X X X X X X X ",
"X X X X X X X X X . = ; ; .   o 2 K 2.I &.;.w b l ! z q h l Q Y ,.J.Q.J.R 2 ; t u V c ; y y v j..X[.j.~ 9 @   X   X X X X X X X ",
"X X X X X X X X X X . @ e s % # * % H H 5.H.0.,.%.>.' _ +.h I.E.E.wXU.D v t # e B j & o * o y 6..X(.j.s o X       X X X X X X X ",
"X X X X X X X X X X X + o e e ; e ; * y u D I 2.5.^.G.{.R.J.6XW.4.3.P u +.N l ( j = o   X o 5 1.l.:.s .   X X . . X X X X X X X ",
"X X X X X X X X X X X X + o ; ; ; * ; e 1 K < e F 3.X.1.1.,.r.9.U y v ;.).V.h.m 1 # o o # 2 T 7 6 s . X X o.X X X X X X X X X X ",
"X X X X X X + X X X X X X X X o ; ; e N 2 e v i - r k D t n R v y m +.j.%Xj.t - # o   o S 7.H $ o @ X X X X . X X X X z.X X X X ",
"X X X X X X + X X X + X X X X X . o ; & c y c i * & i r z ..j m y e ~ y +.N   o   o $ 5 H 5 O X o @ . . X X X X X X X X X X X X ",
"X X X X X X X X X X     X X X X X X . . o o * % r 0 & M M w y y 9 ; %   e = + .   + 2 S ; # X + . . X X X X X X X X X X X X X X ",
"X X X X X X X X X X X . o + . X X X X X X . X . * o . * ; o o . .     . . . + o ; = S <   . X +   X X X X X X X X X X X X X X X ",
"X X X X X X X X X X X 7Xo . . . X X X X X X X X   . . . X X X X +   X   . * : = f G 2 o . . . X X   X X X X X X X X X X X X X X ",
"X X X X X X X X X X X X X + + @ o X X X X X X X   X   . X X X X   . . o . t f H 5 $ + # . X X X X X X X X X X d X X X X X X X X ",
"X X X X X X X X X X X X X X X . ; > > + o o . . . X X X + + + + o # # > < K S 5 . .   . . X X X X X X X X X X X X X X X d X X X ",
"X X X X X X X X X X X X X X X o . o o X . * * * > * = ; : 4 f 4 4 : S : < $ o X X X . X X X X X X X X X X X X X X X X X X X X X ",
"X X X X X X X X X X   X X X X X X X X X + . . > o @ > & > ; : * = # - o . X X X X X X X X X X X X X X X X X X X X X X X X X X X ",
"X X X X X X X X X X X X X X X X X X X . X . X . X . + . . o o O + .   X X X X X X X X X X X X X X X X X X X X X X X X X X z.X X ",
"X X X X X X X X X X X X X X X X X X X X X X X X X X X X X X   #   X X X X X X X X X X X X X X X X X X X X X X X X X X X X X X X ",
"X X X X X X X X X X X X X X X X X X X X X X X X X X X X X X X X X X X X X X X X X X X X X X X X X X X X X X X X X X X X X X X X ",
"X X X X X X X X X X X X X X X X . X X X X X X X X X X X X X X X X X X X X X X X X X X X X X X X X X X X X X X X X X X X X X X X ",
"X X X X X X X X X X X X X X X X 7XX X X X X X X X X X X X X X X X X X X X X X X X X X X X X X X X X X X X X X X X X X X X X X X "
};
