/* XPM */
static char *dde40843eb98431ffe598a332c820833Okdj1CwD3wuhGx2N[] = {
/* columns rows colors chars-per-pixel */
"64 64 43 1 ",
"  c black",
". c #020A08",
"X c gray5",
"o c #001600",
"O c #04110E",
"+ c #091211",
"@ c #121F1D",
"# c #233705",
"$ c #181328",
"% c #182321",
"& c #232323",
"* c #273936",
"= c #313131",
"- c #333A39",
"; c #393939",
": c #3C3C3C",
"> c #005800",
", c #2E4601",
"< c #344E09",
"1 c #546B2C",
"2 c #55712A",
"3 c #262B44",
"4 c #3A4466",
"5 c gray31",
"6 c #515151",
"7 c #565656",
"8 c #535F5D",
"9 c gray39",
"0 c gray44",
"q c #777777",
"w c #15AD03",
"e c #62EA37",
"r c #799448",
"t c #78934D",
"y c #7D9158",
"u c #5A6988",
"i c #8D8D8D",
"p c #8B9BB4",
"a c #ABC182",
"s c #DDFCA3",
"d c gray76",
"f c #C0CBDC",
"g c white",
/* pixels */
"$$$$$$$$$$$$$$$$$$$$$$$$$$$$$$$$$$$$$$$$$$$$$$$$$$$$$$$$$$$$$$$$",
"$$$f$$$$$$$$$4$$$$$$$$$$$$$$$$$$$$$$$$$$$$$$3$$$$$$$$$$$$$$$$$$$",
"$$$$$$$$$$$$$$$$$$$$$$$$$$$$$$$$$$$$$$$$$$$$$$$$$$$$$$$$$$$$$$$$",
"$$$$$$$$$$$$$$$$$$$$$$$$$$$$$$$$$$$$$$$$$$$$$$$$$$$$$$$$$$$$$$$$",
"$$$$$$$$$$$$$$$$$$$$$$$$$$$$$$$$$$$$$$$$$$$$$$$$$$$$$$$$$$$$$$$$",
"$$$$$$$$$$$$$$$$$$u$$$$$$$$$$$$$$$$$$$4$$$f$$$$$$$$$$$$$$$$$$$$$",
"$$$$$$$$$$$$$$$$$$$$$$$$$$$$$$$$$$$$$$$$$$$$$$$$$$$$$$$$$$$$$$$$",
"$$$$$$$$$$$$$$$$$$$$$$$$$$$$$$$$$$$$$$$$$$$$$$$$$$$$$$$$$$$$$$$$",
"$$$$$$$$$$$$$$$$$$$$$$$$$$$$$$$$$$$$$$$$$$$$$$$$$$$$$$$$$$$$$$$$",
"$$$$$$$$$$$$$$$$$$$$$$$$$$$$$$$$$$$$$$$$$$$$$$$$$$$$$$$$$$$$$$$$",
"$$$$$$$$$$$$$$$$$$$$$$$$$$$$$$$$$$$$$$$$$$$$$$$$$$$$$$$$$$$$$$$$",
"$$$$$$$$$$$$$$$$$$$$$$$$$$$$$$$$$$$$$$$$$$$$$p$$$$$$$$$$$$$$$$$$",
"$$$$$$$$$$$$$$$$$$$$$$$$$$$$$$$$$u$$$$$$$$$$$$$$$$$$$$$$$$$$$$$$",
"$$$$$$$$$$$$$$$$$$$$$$$$p$$$$$$$$$$$3$$$$$$$$$$$$$$$$$$$$$$$3$$$",
"$p$$$$$$$$$$$$$$$$$$$$$$$$$$$$$$$$$$$$$$$$$$$$$$$$$$$$$$$$$$$$$$",
"$$$$$$$$$$$$$$$$$$$$$$$$$$$$$$$$3$$$$$$$$$$$$$$$$$$4$$$$$$$$$$$$",
"$$$4$$$$$$$$$$$$$$$$$$$$$$$$$$$$$$$$$$$$$$$$$$$$$$$$$$$$$$$$$$$$",
"$$$$$$$$$$$$$$$$$$$$XXXXXXX,,,,,,,>>,,,,>>,$$$$$$$$$$$$$$$$$$$$$",
"$$$$$$$$$$$$$$$$$XXXddd7qXXXsssss>e>sss>e>s,,,>$$$$$$$$$$$$$$$$$",
"$$$$$$$$$$$$$$$XXdii9:XXXidXraaa>ew>aa>ew>sss>e>$$$$$$$$$$$$$$$$",
"$$$$$$$$$$$$$XXii6;XXX;&:9iXrrr>ew>raa>e>aaa>ew>,$$$$$$$$$$$$$$$",
"$$$$$$$$$$$$Xii66XX0666;;&XXXr>ew>rrr>ew>aa>ee>ss,$$$$$$$$$$$$$$",
"$$$$$$$$$$$XXXXXXXXXXX0=XX&7iX2>>rrrr>w>rrr>ew>aasXXp$$$$$$$$$$$",
"$$$$$$$$$,,aaarrraaaaaXX06=;XiX2222rrr>rrrr>w>aaaX9gX$$$$$3$$$$$",
"$$$$$$$,,aaarrrrrrrraaaaXXXX;&6X2222222rrrrr>rraX9idd  $$$$$$$$$",
"$$$$$$,aaarrrrrrrrrrraaaaaX6=      222222222rrrrX9gi 8- $$$$$$$$",
"$$$$$,aarrrrrrrrrrrrrr>>aaaX %%%%-- 22222222222X;9i *% - $$$$$$$",
"$$$$,t222222222222rrr>we>aa +%    %-           X;9i % * 8 $$$$$$",
"$$$$,           222rrr>>ra +% wwee %- .++@@--8 X;99 % * *- $$$$$",
"$$$  8--%%%%%%%+  222rrrr +% wXXXXe %-        sX;99 % % * r,$$$$",
"$$ +%          %%. 222rrr + wXiiiiXe 8 asasasasX6;9 + % % ra,$$$",
"$$ +%% &5Xo<111  %+  22rr + wXXXXXXe 8 aaaaaasaX6;9 + % % ra,$$$",
"$$ O+% &;Xo#<1111 -+. 22r @ wXXXXXXe 8 rraaasasX6;9 + % % ra,$$$",
"$$ @.+ =;X<o<<1111 -+. 22 @ wXiiiiXe - rrrrraaaX6;9 + + % ra,$$$",
"$$$ @@ =6X<o#<<1111 -+ 22 @+ wXXXXe %- rrrrrrraX6;9 + + + ra,$$$",
"$$$$   =6X##o#<<111# -+ 22 @+ wwee %- 2222222rrX6;9 + ++. r,$$$$",
"$$$$$$$XX###o##<<11#X -+ 22 @+    %- oooooooo22X6;9 + +..+ $$u$$",
"$$$$$$$$$oo##o##<<1#X6 @+    @++++@ yyyyyyyyyo2X6;9 .+..@ $$$$$$",
"$$$$$$$$$$$oo#o##<<#XiX @@@++      111111111yyoX6&9 ...@ $$3$$$$",
"$$$$$$$$$$$$$ooo##<#XdX1       111111111111111yoX6;9 @@ $$$$$$$$",
"$$$$$$$$$$$$$$$oo###XdX111#X6X11111111111111111yX6&;9  $$$$$$$$$",
"$$$$$$$$$$$$$$$$$o##XiX<<<#XdX<<<<<<<<<<<<<11111yXi&X$$$$$$$$$$$",
"$$$$$$$$$$$$$$$$3$o#X6X####X6X###<<<<<<<<<<<<<<oo$XX$$$$$$$$$$$$",
"$$$$$$$$$$$$$$$$$$uoX&X####X&X###############oo$$$$$$$$$$$$$$$$$",
"$$$$$$$$$$$$$$$$$$$$X6XooooX6Xooooooooooooooo$$$$$$$$$$$$$$$$$$$",
"$$3$$$$$$$$$$$$$$$$$$X$$$$$$X$$$$$$$$$$$$$$$$$$$$$$$$$$$$$$$$$$$",
"$$$$$$$$$$$$$$$$$$$$$$$$$$$$$$$$$$$$$$$$$$$$$$$$$$$$$$$$$$$$$$$$",
"$$$$$$$$$$$$$$$$$$$$$$$$$$$$$$$$$$u$$$$$$$$$$$$$$$$$$$$$$$$$$$$$",
"$$$$$$$$$$$$$$$$$$$$$$$$$$$$$$$$$$$$$$$$$$$$$$$$$$$$$$$$$$$$$$$$",
"$$$$$$$$$$$$$$$$$$$$$$$$$$$$$$$$$$$$$$$$$$$$$$$$$$$$$4$$$$$$$$$$",
"$$$$$$$$$$$$$$$$$$$$$$$$$$$$$$$$$$$$$$$$$$$$$$$$$$$$$$$$$$$u$$$$",
"$$$$$$$$$$$$$$$$$$$$$$$$$$$$$u$$$$$$$$$$$$$$$$$$$$$$$$$$$$$$$$$$",
"$$$$$$$$$$$$$$$$$$$$$$$$$$$$$$$$$$$$$$$$$$$$$$$$$$$$$$$$$$$$$$$$",
"$$$$$$$$$$$$$$$$$$$$$$$$$$$$$$$$$$$$$$$$$$$$$$$$$$$$$$$$$$$$$$$$",
"$$$$$$$$$$$p$$$$$$$$$$$$$$$$$$$$$$$$$$3$$$$$$$$$$$$$$$$$$$$$$$$$",
"$$$$$$$$$$$$$$$$$$$$$$$$$$$$$$$$$$$$$$$$$$$$$$$$$$$$$$$3$$$$$$$$",
"$$$$$$$$$$$$$$$$$$$$$$$$$$$$$$$$$$$$$$$$$$$$$$$$$$$$$$$$$$$$3$$$",
"$$$$$$$$$$$$$$$$$$$$$$$$$$$$$$$$$$$$$$$$$$$$$$$$$$$$$$$$$$$$$$$$",
"$$$$$$$$$$$$$$$$$$$$$$$$$$$$$$$$$$$$$$$$$$$$$$$$$$$$$$$$$$$$$$$$",
"$$$$$$$$$$$$$$$$$$$$$$$$$$$$$$$$$$$$$$$$$$$$$$$$$$$$$$$$$$$$$u$$",
"$$$$$$$$$$$$$$$$$$$$$$$$$$$$$$$$$$$$$$$$$$$$$$$$$$$$$$$$$$$$$$$$",
"$$$$$$$$$$$$$$$$$$$$$$$$$$$$$$$$$$$$$$$$$$$$$$$$$$$$$$$$$$$$$$$$",
"$$$$$$$$$$$$$$$$$$$$$$$$$$$$$$$$$$$$$$$$$$$$$$$$$$$$$$$$$$$$$$$$",
"$$$$$$$$$$$$$$$$p$$$$$$$$$$$$$$$$$$$$$$$$$$$$$$$$$$$$$$$$$$$$$$$"
};
