/* XPM */
static char *_73cc692282f41808060331585b1f244T2AuWkgJHrvkxNXn[] = {
/* columns rows colors chars-per-pixel */
"64 64 251 2 ",
"   c #181328",
".  c #17162E",
"X  c #171934",
"o  c #181C3A",
"O  c #201F36",
"+  c #25253C",
"@  c #7A5D21",
"#  c #79521B",
"$  c #151F43",
"%  c #19244A",
"&  c #172956",
"*  c #173D5B",
"=  c #0D3758",
"-  c #252A44",
";  c #2E324A",
":  c #2D3757",
">  c #1E366A",
",  c #293B66",
"<  c #1D415E",
"1  c #374458",
"2  c #194666",
"3  c #1C516C",
"4  c #264B69",
"5  c #2A526C",
"6  c #2C4677",
"7  c #255B77",
"8  c #375A76",
"9  c #364B65",
"0  c #3A647B",
"q  c #296379",
"w  c #1B627E",
"e  c #4E5058",
"r  c #4D586D",
"t  c #546F77",
"y  c #677978",
"u  c #677468",
"i  c #97541B",
"p  c #89501A",
"a  c #A25D1E",
"s  c #955A24",
"d  c #A05C23",
"f  c #956A30",
"g  c #A86729",
"h  c #A66837",
"j  c #A97738",
"k  c #B57736",
"l  c #AE732E",
"z  c #C27C33",
"x  c #A97846",
"c  c #B37A49",
"v  c #957A45",
"b  c #798D76",
"n  c #5E8077",
"m  c #B7853A",
"M  c #AA873C",
"N  c #C6893A",
"B  c #D68F38",
"V  c #ED9C3C",
"C  c #9B8D4F",
"Z  c #AC8745",
"A  c #B78747",
"S  c #B9984A",
"D  c #A98957",
"F  c #B78856",
"G  c #B89658",
"H  c #A5984D",
"J  c #A8A657",
"K  c #B7A859",
"L  c #B5A956",
"P  c #8C9174",
"I  c #B79865",
"U  c #B4936B",
"Y  c #9EA879",
"T  c #ABA566",
"R  c #B7A969",
"E  c #B9B469",
"W  c #B7AA77",
"Q  c #BBB777",
"!  c #ABB06B",
"~  c #C58946",
"^  c #C8974A",
"/  c #C48E56",
"(  c #C79858",
")  c #D39755",
"_  c #D69646",
"`  c #C7A65A",
"'  c #D7A95B",
"]  c #CAAE57",
"[  c #F1B14F",
"{  c #C89B69",
"}  c #C49B75",
"|  c #CB9764",
" . c #C5A768",
".. c #D7A667",
"X. c #C8B467",
"o. c #D7B868",
"O. c #C9A776",
"+. c #D5A874",
"@. c #C8B977",
"#. c #D6B877",
"$. c #EAB76E",
"%. c #E29E40",
"&. c #F3C558",
"*. c #D8C36D",
"=. c #CBC378",
"-. c #D8C579",
";. c #C8C56F",
":. c #E9C46B",
">. c #E4C877",
",. c #F6D073",
"<. c #FFE96B",
"1. c #FFF67D",
"2. c #3A6A84",
"3. c #357589",
"4. c #33778C",
"5. c #355185",
"6. c #476C86",
"7. c #4A7689",
"8. c #55778B",
"9. c #4A7A92",
"0. c #577794",
"q. c #576C8B",
"w. c #647B86",
"e. c #657B90",
"r. c #637EA5",
"t. c #368B96",
"y. c #3D9AA7",
"u. c #478797",
"i. c #588698",
"p. c #528F98",
"a. c #7A8E8A",
"s. c #668699",
"d. c #738B98",
"f. c #799799",
"g. c #698B90",
"h. c #7CA59C",
"j. c #5889A3",
"k. c #5A99A6",
"l. c #4B93A6",
"z. c #688CA6",
"x. c #6997A7",
"c. c #7494A4",
"v. c #7998A9",
"b. c #7198AF",
"n. c #52ACAF",
"m. c #78A8AC",
"M. c #79A7B5",
"N. c #65B4B7",
"B. c #78B7BB",
"V. c #66AAAD",
"C. c #6AC3BB",
"Z. c #78B5C3",
"A. c #6ED0CA",
"S. c #7DE2D1",
"D. c #5DC5C1",
"F. c #879A99",
"G. c #919A8B",
"H. c #95A799",
"J. c #BCB984",
"K. c #B7BA97",
"L. c #A9B293",
"P. c #859CAA",
"I. c #869CB3",
"U. c #89A5A8",
"Y. c #96ABA9",
"T. c #98B5A7",
"R. c #89A7B7",
"E. c #94ABB8",
"W. c #99B4B9",
"Q. c #89B8B5",
"!. c #A7B8A7",
"~. c #A6B7B9",
"^. c #B1B9A9",
"/. c #CAAC88",
"(. c #C8B984",
"). c #D9B987",
"_. c #CAB796",
"`. c #D9B68F",
"'. c #E4BA86",
"]. c #E1BE91",
"[. c #B8C29D",
"{. c #8CCBB7",
"}. c #AAC7B8",
"|. c #B8C9B6",
" X c #B0C5AC",
".X c #C9C488",
"XX c #D8C988",
"oX c #C8C597",
"OX c #D8CA96",
"+X c #DAD496",
"@X c #D5D28D",
"#X c #E2CB87",
"$X c #E6D48B",
"%X c #F5DA85",
"&X c #E5C795",
"*X c #E6DA9A",
"=X c #F5D391",
"-X c #DCE199",
";X c #FCEA87",
":X c #FCF689",
">X c #EAE498",
",X c #F8E697",
"<X c #FCF496",
"1X c #C9CAA9",
"2X c #D8CAA5",
"3X c #DBD5A8",
"4X c #DCD9B6",
"5X c #C9D0B7",
"6X c #E6D7A6",
"7X c #E6D9B6",
"8X c #E8CEAF",
"9X c #DAE2B6",
"0X c #E8E4A7",
"qX c #F5E7A9",
"wX c #FCFAA8",
"eX c #E9E4B9",
"rX c #F6EAB8",
"tX c #FCF9B7",
"yX c #EBF1B3",
"uX c #88B6C4",
"iX c #9AB7C4",
"pX c #91AEC2",
"aX c #A6BAC6",
"sX c #85C6CA",
"dX c #94C7CA",
"fX c #99D5CC",
"gX c #8ECCD6",
"hX c #A9C2C9",
"jX c #B6C5C5",
"kX c #B3D6C6",
"lX c #AFCDD5",
"zX c #90EAD9",
"xX c #B4ECD6",
"cX c #B2DCE2",
"vX c #8BF9ED",
"bX c #B1F8EA",
"nX c #CBD6C9",
"mX c #CBD4D0",
"MX c #CDEAD5",
"NX c #EAE9C7",
"BX c #F4EBC7",
"VX c #FDF9C9",
"CX c #E5E7D3",
"ZX c #F3EDD4",
"AX c #F9F6D8",
"SX c #ECF3D0",
"DX c #CFDEE2",
"FX c #C9F1EA",
"GX c #FAF9E5",
"HX c #F0F4ED",
"JX c #E0DFC4",
/* pixels */
"                                                                                                                                ",
"    . mX                  ,                                                             ;                                       ",
"                                                                                                                                ",
"                                                                                                                                ",
"                                                + e e P E =.&X6X8X1XG.w.r : o   .                                               ",
"                                    q.    + e U $.[ &.%.V [ $.$.$.,XVXVXGXZX!.y 1 O lX                                          ",
"                                      e P :.&.[ V V B B l j c } +.=XBXVXSXT.m.{.bXkXt %                                         ",
"                                  ; P ,.,.;X&.] B f a f s f f p { ).@XrX^.t p.A.S.bXMXnXr $   .                                 ",
"                              O u *X&.&.&.>.(.Z f @ Z M k F f h | -.&XqXd.r q t.D.n.V.kXCXU.9 o                                 ",
"                            - J.wX;X:.%.N  .@.J.E @. .A +.U c k ) @..XBX1X9 6.4.t.4.h.nXGXCX Xr $                               ",
"                          e 2XwXwX,X] ` K X.Q 3XQ OX&XO.} | x ) ( D J.4XZXH.0.7 t.t.f.NX,X,XNXAXH.-                             ",
"                        r BXtXVX>X&X$X>.@X;.;.! T W ).U / ~ F #.XXE Q 4X~.aXE.R.gXsXdXSXo.' ,X:X;X!.-                           ",
"                      r |.SXtX X7X3XBX6X@X=.Q T J K +.A c s g ) ) X.J +X XaXaXlXfXlXaXBX'.+.).$.[ wX^.%                         ",
"                    e W.kXNX^.g.c.Y.BXeX3XOXJ._.J.R { Z F / $.%X=XXX*X0XrX^.P.aXaXpXP.4X]././ g B <.:XL.%               -       ",
"  I.              ; }.uXP.w.c.e.d.W.NX3XoX.X_.7XJ./.'.$.) ) %X%X_ ` *XtXrXCXE.I.5XNX~.1XU c d d B &.;XwX8.o                     ",
"                O Y.xXV.U.s.d.e.iX9X3X4X@X@.4X_.2X8X&X/ N ..>.$.>.R L @XqXmXe.d.NX*XrXE G h h / ..'.%X:X>Xr .                   ",
"      9         y FXzXn.n.i.8 0 |.eX*XX.=.XXoXOX8X3X&X#.K S ~ ` #.@.J ;.yXU.z.^.E J ` c h h +.....'...,X1.[.&                   ",
"              ; xXbXuXk.V.p.2.0.eX$X;.*.] 6X(.(.2XNXOX).G l g ~ / ( @.;.=.b K.0XJ H f c c +.].].].+.+.'.;X<Xe.o                 ",
"              F.bXsXm.x.B.uXpXR.f.u Q L S #.T W 7X2X_./.} d i d F | / m M H 0X.XG I } _.8X8X8X'.+.} { +.qXwXeX,                 ",
"            1 FXsX7.0.I.U.{.lXW.z.u J L G #.O.T U J._.U O.c i i ~ +.| m ~ X.#.XX).#.`.U `.`.'.).+./.#.&X>XwXVXU.o               ",
"            F.dXR.e.mXaXv.aXmXE.E.+XX.^ .. .` G v W /.2X6X=X^ ~ ~ / | / A D I _.&X6X]./.+...{  . .X.*.=.$X<XtXJX,               ",
"          + }.m.Y.2X4Xd.z.aXmXI.4X>XL m >.j Z C D O.2X|.CXrXo.o...`.+.| j I @.1XNX7XF I B k l A N K *.*.#X>XwXVXq.X             ",
"          e {.f.L.,X~.9.0.uXaXr.ZXeX` j ^ x @ f /.*X5X|.AX>X#Xo.&X8X2X/.Z OXCXNXBXO.i k N g l m k H ] o.*.X.<XVXY.$             ",
"          a.f.P.G.K.9.6.9.j.pXpXnXrX$X( m j @ C X.oX~.BXrX$X;X>.7XZXBXrXy 8.5XNX@./ h ~ N k R .XXX$X+X@X-. .>X<X4X> -           ",
"        + T.hX^.-.Y q x.j.4.z.pXf.nX,X-.S @ @ S .Xg.U.mXhXf..XqXBXGXGX[., 8.W.AX).h g ) ..).3X3X@X6XE L ] ^ >.:XVX0.X           ",
"        1 H.kX&X$.G.9.i.j.0.M.M.6.c.1X=X` # f L =.^.W.R.z.9.t 1XGXAXBXa.8 q.K.@XE x { ).&X7XeX.X.X@.X.H S ` ).,XtXF.o           ",
"        r U.1X$.' $Xf.k.j.x.M.pX6.j.nXqX@.x S X.+X1XR.M.0.r.8 pXDX5XaX8 0 t 1X.XO.j +.].7X7XXXE E OX=.L H  .G %XwXF.%           ",
"        n Q.9X#.( >.H.j.j.4.0.c.x.j.Y.rX&XG ] $X$X6XF.b.c.6.e.aXaXE.0.y =.Q =.Q #. .`.].7X*X#.E J E ] K A R x :.<X X&           ",
"        F.p.7.G.#Xo.$XM.k.i.7.d.dXuXE.0XXXG $XqX>XBX|.r.R.I.iXaXlXb.q b E J L J (.6X7XrX3X@XJ L H L  .S D F x >.<.0X9           ",
"        T.g.i.9 K.%X1X7.c.nXF.9.Z.B.M.F.-.' 6XBXHXGXnXv.aXiXaXaXb.V.p.b ;.J ] H T OX7XBXeX+XL J H L @.M Z I #.' <.0X6           ",
"        T.g.i.2 t oXc.8 R.7XP.9.Z.N.R.E.NXZXVXCXmXGXjXaXiXP.R.aXuXW.[.J *.S o.L W R &X7XeX@.E E K K (.Z Z O.$.' ;X0X6           ",
"         Xu.0 * 2.0 2.2.0.g.s.pXuXA.k.M.CX7XBX^.pXjX~.aXaXE.z.9.i.[.%X-.] l N ;..XT (.OX1X@XE #.(..XG x ` #X..$.;XyX6           ",
"        T.i.5 4 8 4 r E.z.0.I.R.m.A.V.0 8.d.NX4XR.s.R.aXhXz.j.z.3 P %Xo.l a m ] E C [..XeX3X*X2XOX+.R { ..$._ $.;X0X6           ",
"        L.p.a.L.g.> 2 !.d.z.z.iXx.N.B.k.7.8.nXZXE.c.v.R.I.i.R.3.n Q >.^ p i m H ! .X[.;.+XBX6XXX#.@.{ | 6XBX'.,.,XNX6           ",
"        a.h.1X,X3X0.8 4 6.j.j.Z.lXgXlXuXi.6.P.~.lXaXr.aXaXv.s.t @X;Xo.S s d B ] E Q Q XX-._.O.OX| /.#.&X8X&X..,.;X|.>           ",
"        t h.L.] 7XjXb.8 3 6 8 j.cXcXDXDXaXhXDXlXaX^.JXZX^.K.b 5 J.%X@.F h h ~ ` E J J G W (  .I } '...].`.+.c $.<XF.$           ",
"        r h.f.[.*X5Xz.4 3 3 3.k.A.vXN.iX~.DXcXhXnXAXrXrX*X,X*Xt .X$.} /.W } | / L J H C D R G A ) $.+.8Xc F _ ,.:XF.$     q.    ",
"        ;  Xg.L.7XP.q.0 2 5.w t.n.Z.x.iXR.v.P.E.^.rXXXXX=.#.$X#Xo.F /.c c } ).U C H Z Z X.#.+.N ~ / | / c ~ %.<.:Xe.o           ",
"        O T.g.[.4XR.c.6.5.4.5.4.3.t.2.8 t w.g.r Y ,X$X(.E J G @.I v U U { / &X/.W I O.*.:.o.] k g k c g c z [ <.+X6   -         ",
"        . y h.T.!.z.9.3.N.l.4.7 7 q 7.F.G.3Xy 4 8 L.Q J R R H G D C v c } +.].{ W I .X=.X.-.#X~ a d k c g _ ,.1.Y.&             ",
"          1 }.V.Q.U.j.l.sXA.l.r.H.u.m.+X*XrX1X8.r F.OX.X-.K X.F D F f x  .^ S I W (.J.XXQ @.] g h ( ' ] ^ %.<.:X0.o             ",
"          X  XB.k.m.Q.N.gXj.3.d.eXF.8.@X=.*XJXR.z.6.5XXX-.@XX.S D f x c l M f H /.(..X@X.XL m f ( >.,X,Xo.&.<.-X6 X             ",
"            t {.N.V.B.n.Z.iXb.I.R.iXT.@X-X9Xv.pXE.R.e.X.#X+X6X*XR p s m m L L M  .oX/.O..X#.l / >.Q +X,X:X<.1.F.&               ",
"            - kXzXS.A.N.z.R.c.I.aX~.BXNXrXCXmXE.R.W.!.rXrX$X[.1XK @ S U P E o.A X.R ) .X#.#./ o.oX6.!.,XwX1.-X5.X               ",
"              r FXvXS.k.l.9.v.b.I.JX7XZXnXU.jXc.8.c.jXGXmXb 8.oXX.H R 9 < Q o.^ *.o.&X#X~ / ( *Xe.0.5XtXtXwXs.&                 ",
"    -       . + ~.bXS.V.t.x.R.R.d.8.c.~.W.P.E.R.U.R.hXaXI.[.6X$X).-.y * * J.,.] >.$X#X..c { &X3X0.2.L.tXtX|.> X                 ",
"                1 xXvXS.N.t.u.3.0.6.7.6.8.s.z.k.p.8.e.E.CXrXqXXX=.6XY.* = P ,.] >.-.#.A +.BXrX^.P.u.}.tXyX0.%                   ",
"                . t FXvXA.n.t.t.8 5 5 4 8 4 q 3.3.p.E.P.CXrXqX0X>XtXK.8 t >.>.*.*.*.o.XXBXAXAX~.g.f.SXVX0.&                     ",
"                  $ U.bXvXA.y.V.9.3 * 5 8 5 7 3.t.t.u.e.mXZXrXAXtXeXd.6 w.@X-.:.>.$XrXNXnXmXY.8.i.U.SX}.> X                     ",
"                    % W.bXvXD.y.t.7 7 5 = * 5 7 4.n.p.Q.R.}.6XeX1XR.aX0.s.w.K.%X,XBXGXnX~.U.8.x.m.{.T.6 o 9                     ",
"                      % W.bXzXD.n.9.3.5 3 = 2 2.4.n.B.dXuXiXg.5 8 9.z.R.v.c.jXHXHXHXhXP.I.c.W.B.{.R.6 $               q.        ",
"                        & T.xXzXA.N.j.4.2.2.8 8.l.n.B.DXQ.B.0 < 6 6.z.b.pXv.iXiXaXaXg.c.hXfXzXxXW.6 $                           ",
"                          % 8.xXxXzXsXB.b.uXP.9.4.uXcXlXk.q 3 2 = 3 5.z.M.v.hX0.8.c.U.fXxXFXxXr.> o                             ",
"                            o r }.xXfXsXgXuXDXlXM.uXhXuXm.0 3 1 b t 2 2.0.x.0.b.dXfXzXbXFXhX0.& X                               ",
"                      I.      . & 0.kXfXsXdXDXW.R.R.s.T.3X+X[.XX,X$XP n n t p.B.zXzXFXMXr.> $                                   ",
"                                  o 9 m.}.kXkXhXR.iXc.NXtX,X1.1.;XwXtXeX Xg.h.{.kXcXM.5.& o                   -                 ",
"                                      o : q.U.jXjX}.}.|.}.9XyXwX0X|.!.T.U.T. XF.0.6 % X                                 -       ",
"                                          X % > 0.P.P.E. X X|.|. X XY.f.f.8.6 & % .                                             ",
"                                                . o $ & 2 4 6 6 5 6 > % $ o X                                                   ",
"                                                                                                                          q.    ",
"                                                                                                                                ",
"                                                                                                                                ",
"                                                                                                                                ",
"                                I.                                                                                              "
};
