/* XPM */
static char *_3a73b3e0064469f8d9b8fefae5c2bf4nP93HaJnJsBXxDHp[] = {
/* columns rows colors chars-per-pixel */
"64 64 178 2 ",
"   c #020202",
".  c #06050A",
"X  c #08060E",
"o  c #0B0B0C",
"O  c #100B07",
"+  c #1E150C",
"@  c #000010",
"#  c #0C0913",
"$  c #0E0D19",
"%  c #100F15",
"&  c #110E1C",
"*  c #0E1115",
"=  c #0F1119",
"-  c #131313",
";  c #181817",
":  c #16141C",
">  c #19171F",
",  c #1B1B1C",
"<  c #000027",
"1  c #00002A",
"2  c #130F20",
"3  c #161124",
"4  c #181426",
"5  c #1D1B23",
"6  c #181328",
"7  c #1D192D",
"8  c #131B27",
"9  c #010F3F",
"0  c #1A1C31",
"q  c #221E24",
"w  c #1B2839",
"e  c #232425",
"r  c #24232B",
"t  c #2D2D2D",
"y  c #2C2C32",
"u  c #2E333A",
"i  c #343334",
"p  c #3D3B37",
"a  c #373639",
"s  c #3C3C3C",
"d  c #393735",
"f  c #4B3E2F",
"g  c #413F3C",
"h  c #624F38",
"j  c #1A3957",
"k  c #262B44",
"l  c #212344",
"z  c #2B354A",
"x  c #403F45",
"c  c #3A4466",
"v  c #424242",
"b  c #4C4C4C",
"n  c #4A4845",
"m  c #525252",
"M  c #5C5B5C",
"N  c #61615B",
"B  c #646464",
"V  c #6A6A6A",
"C  c #686664",
"Z  c #736A60",
"A  c #747474",
"S  c #7C7C7C",
"D  c #7A7875",
"F  c #8A745A",
"G  c #A88F70",
"H  c #2B5C8D",
"J  c #3B6186",
"K  c #3E668C",
"L  c #32608D",
"P  c #326C90",
"I  c #0056BB",
"U  c #0663BB",
"Y  c #1B6BBB",
"T  c #43698E",
"R  c #5A6988",
"E  c #466E93",
"W  c #47749F",
"Q  c #4A7597",
"!  c #4A7CA8",
"~  c #567FA7",
"^  c #004EFF",
"/  c #0053FF",
"(  c #0067FF",
")  c #006CFF",
"_  c #0075FF",
"`  c #027CFF",
"'  c #4F819D",
"]  c #5884AE",
"[  c #4A80B5",
"{  c #568ABB",
"}  c #5E98BA",
"|  c #6E8CAD",
" . c #628BB3",
".. c #6A94BC",
"X. c #6792BD",
"o. c #76ACBF",
"O. c #0081FF",
"+. c #0C86FF",
"@. c #048AFF",
"#. c #1A8CFF",
"$. c #0897FF",
"%. c #1296FF",
"&. c #2B92FF",
"*. c #3B9CFF",
"=. c #3EB4FF",
"-. c #37B5FF",
";. c #5F9BC3",
":. c #5A9ED0",
">. c #5DA3C7",
",. c #45A1FF",
"<. c #4CA6FF",
"1. c #55A4FF",
"2. c #55AAFF",
"3. c #5BADFF",
"4. c #43B5FF",
"5. c #4BBBFF",
"6. c #58B8FF",
"7. c #63B1FF",
"8. c #6DB6FF",
"9. c #6EB8FF",
"0. c #70B7FF",
"q. c #73B9FF",
"w. c #7EBFFF",
"e. c #5DD8FF",
"r. c #6ACCFF",
"t. c #75C3FF",
"y. c #7ACCF9",
"u. c #7DD3FF",
"i. c #75D2FF",
"p. c #848484",
"a. c #8C8C8C",
"s. c #8F9090",
"d. c #949494",
"f. c #9C9C9C",
"g. c #A09E9D",
"h. c #8B9BB4",
"j. c #A4A4A4",
"k. c #AEAEAE",
"l. c #B4B4B4",
"z. c #BCBCBC",
"x. c #BAB8B6",
"c. c #8EC2FE",
"v. c #91C4FF",
"b. c #94CBFF",
"n. c #84D6FF",
"m. c #88D7FF",
"M. c #85D9FF",
"N. c #89DDFF",
"B. c #8CE4FF",
"V. c #8EE8FF",
"C. c #92EEFF",
"Z. c #80F0FF",
"A. c #97F7FF",
"S. c #A0E9FF",
"D. c #C4C4C4",
"F. c #CBCBCB",
"G. c #C8C9C9",
"H. c #D3CEC7",
"J. c #DFD2C3",
"K. c #C0CBDC",
"L. c #D3D3D3",
"P. c #DADADA",
"I. c #D7DADF",
"U. c #E4D6C6",
"Y. c #E6D8C7",
"T. c #E8D9C9",
"R. c #EBDBC7",
"E. c #F7E9D9",
"W. c #E3E3E3",
"Q. c #EBEBEB",
"!. c #F3EAE0",
"~. c #E2EFFF",
"^. c #E6F4FF",
"/. c #E9F3FF",
"(. c #EDFCFF",
"). c #F4F4F4",
"_. c #F5FCFF",
"`. c #FEFEFE",
/* pixels */
"6 6 6 6 6 6 6 6 6 6 6 6 6 6 6 6 6 6 6 6 6 6 6 6 6 6 6 6 6 6 6 6 6 6 6 6 6 6 6 6 6 6 6 6 6 6 6 6 6 6 6 6 6 6 6 6 6 6 6 6 6 6 6 6 ",
"6 6 6 K.6 6 6 6 6 6 6 6 6 c 6 6 6 6 6 6 6 6 6 6 6 6 6 6 6 6 6 6 6 6 6 6 6 6 6 6 6 6 6 6 k 6 6 6 6 6 6 6 6 6 6 6 6 6 6 6 6 6 6 6 ",
"6 6 6 6 6 6 6 6 6 6 6 6 6 6 6 6 6 6 6 6 6 6 6 6 6 6 6 6 6 6 6 6 6 6 6 6 6 6 6 6 6 6 6 6 6 6 6 6 6 6 6 6 6 6 6 6 6 6 6 6 6 6 6 6 ",
"6 6 6 6 6 6 6 6 6 6 6 6 6 6 6 6 6 6 6 6 6 6 6 6 6 6 6 6 6 6 6 6 6 6 6 6 6 6 6 6 6 6 6 6 6 6 6 6 6 6 6 6 6 6 6 6 6 6 6 6 6 6 6 6 ",
"6 6 6 6 6 6 6 6 6 6 6 6 6 6 6 6 6 6 6 6 6 6 6 &           .           .   2 6 6 6 6 6 6 6 6 6 6 6 6 6 6 6 6 6 6 6 6 6 6 6 6 6 6 ",
"6 6 6 6 6 6 6 6 6 6 6 6 6 6 6 6 6 6 R 6 6 6 3 # ;.{ { { ..Y I U I U ....o.8 z 6 6 6 K.6 6 6 6 6 6 6 6 6 6 6 6 6 6 6 6 6 6 6 6 6 ",
"6 6 6 6 6 6 6 6 6 6 6 6 6 6 6 6 6 6 6 6 6 3 # } N.n.n.i.y.6.%.@.@.$.4.5.5.>.q 2 6 6 6 6 6 6 6 6 6 6 6 6 6 6 6 6 6 6 6 6 6 6 6 6 ",
"6 6 6 6 6 6 6 6 6 6 6 6 6 6 6 6 6 6 6 6 $ w ;.B.q.q.7.2.<.7.<.&.#.` _ _ ) -.:.z & 6 6 6 6 6 6 6 6 6 6 6 6 6 6 6 6 6 6 6 6 6 6 6 ",
"6 6 6 6 6 6 6 6 6 6 6 6 6 6 6 6 6 6 6 6 . J A.8.q.q.2.2.2.2.3.q.3.#.` ` O.( e.| . 6 6 6 6 6 6 6 6 6 6 6 6 6 6 6 6 6 6 6 6 6 6 6 ",
"6 6 6 6 6 6 6 6 6 6 6 6 6 6 6 6 6 6 6 6 $ E n.0.0.9.2.2.2.2.2.2.7.2.+.` ` ` 4.] - 3 6 6 6 6 6 6 6 6 6 6 6 6 6 6 6 6 6 6 6 6 6 6 ",
"6 6 6 6 6 6 6 6 6 6 6 6 6 6 6 6 6 6 4 . ! n.0.q.9.2.2.2.2.2.2.2.2.3.3.+.` ` _ =. .  6 6 6 6 6 6 6 6 6 6 6 6 6 6 6 6 6 6 6 6 6 6 ",
"6 6 6 6 6 6 6 6 6 6 6 6 6 6 6 6 6 6 4   ! N.0.q.9.2.2.2.2.2.2.2.2.2.3.+.` O._ =.X.  6 6 6 h.6 6 6 6 6 6 6 6 6 6 6 6 6 6 6 6 6 6 ",
"6 6 6 6 6 6 6 6 6 6 6 6 6 6 6 6 6 6 6 . W n.q.q.8.2.2.2.2.2.2.2.2.3.2.+.` O._ =. .  6 6 6 6 6 6 6 6 6 6 6 6 6 6 6 6 6 6 6 6 6 6 ",
"6 6 6 6 6 6 6 6 6 6 6 6 6 6 6 6 6 6 6 . W n.q.q.8.2.2.2.2.2.2.2.2.3.2.+.` O._ =.] . 6 6 6 6 6 6 6 6 6 6 6 6 6 6 6 6 6 6 k 6 6 6 ",
"6 h.6 6 6 6 6 6 6 6 6 6 6 6 6 6 6 6 4 . W n.0.q.8.2.2.2.2.2.2.2.2.3.2.+.` O._ =...  # # # 6 6 6 6 6 6 6 6 6 6 6 6 6 6 6 6 6 6 6 ",
"6 6 6 6 6 6 6 6 6 6 6 6 6 6 6 6 6 6 6 . W n.0.q.8.2.2.2.2.2.2.2.2.3.7.+.` O._ =.~ O m . m % 3 6 6 6 6 c 6 6 6 6 6 6 6 6 6 6 6 6 ",
"6 6 6 c 6 6 6 6 6 6 6 6 6 6 6 6 6 6 6 . ! B.0.q.9.2.2.2.2.2.2.2.3.3.,.+.` O._ =.Q + f.o d.D 5 3 6 6 6 6 6 6 6 6 6 6 6 6 6 6 6 6 ",
"6 6 6 6 6 6 6 6 6 6 6 6 6 6 6 6 6 6 6 . K y.q.q.9.2.2.2.2.2.2.2.3.,.` ` O.` ) =.X.        d.M # 6 6 6 6 6 6 6 6 6 6 6 6 6 6 6 6 ",
"6 6 6 6 6 6 6 6 6 6 6 6 6 6 6 6 6 6 6 & . J N.0.q.0.2.2.2.2.2.7.,.` ` O.O.O._ =. .  $ $   . . o 6 6 6 6 6 6 6 6 6 6 6 6 6 6 6 6 ",
"6 6 6 6 6 6 6 6 6 6 6 6 6 6 6 6 6 6 6 6 . J C.0.q.q.9.q.2.<.7.*.` O.O.O._ *.n.! * & 6 6 . g.B # 6 6 6 6 6 6 6 6 6 6 6 6 6 6 6 6 ",
"6 6 6 6 6 6 6 6 6 6 6 6 6 6 6 6 6 6 6 6 % 8 ! B.9.0.q.q.9.3.2.<.&._ _ _ *.w.S.E X 6 6 6 . t , # 6 6 6 6 6 6 6 6 6 6 6 6 6 6 6 6 ",
"6 6 6 6 6 6 6 6 6 6 6 6 6 6 6 6 6 6 6 6 6 & . ' V.N.M.M.N.M.r.r.r.=.4.4.i.u.Z.[ X 6 6 6 . C g # 6 6 6 6 6 6 6 6 6 6 6 6 6 6 6 6 ",
"6 6 6 6 6 6 6 6 6 6 6 6 6 6 6 6 6 6 6 6 6 6 %   E T K K K T K H L K K K H H P j . $ # #   B v # 6 6 6 6 h.6 6 6 6 6 6 6 6 6 6 6 ",
"6 6 6 6 6 6 6 6 6 6 6 6 6 6 6 6 6 6 6 6 6 6 6 &                                 . n e t e ,   # 6 6 6 6 6 6 6 6 6 6 k 6 6 6 6 6 ",
"6 6 6 6 6 6 6 6 6 6 6 6 6 6 6 6 6 6 6 6 6 6 6 & . e e e e e e e e e e e e   . e i j.D.l.l.F.B $ 3 6 6 6 6 6 6 6 6 6 6 6 6 6 6 6 ",
"6 6 6 6 6 6 6 6 6 6 6 6 6 6 6 6 6 6 6 6 6 6 $ . e ^.(.^.~.^.~.~.~.~.~.^.`.u D `.C - ).).).f.z.m . 6 6 6 6 6 6 6 6 6 6 6 6 6 6 6 ",
"6 6 6 6 6 6 6 6 6 6 6 6 6 6 6 6 6 6 6 R 6 # S x.# ^._.^.^.^.^.^.^.^.^.`.`.).).`.).V t ).`.W.F.b . 6 6 6 6 6 6 6 6 6 6 6 6 6 6 6 ",
"6 6 6 6 6 6 6 6 6 6 6 6 6 6 6 6 6 6 6 6 6 # s.P.o _.`.`.`.`.`.`.`.`._.`.`.`.`.`.`.a.  Q.`.`.W.s X c 6 6 6 6 6 6 6 6 6 6 6 6 6 6 ",
"6 6 6 6 6 6 6 6 6 6 6 6 6 6 6 6 6 6 6 6 6 # g.Q.; `.A n p g g p n D `.`.`.`.`.`.`.f.o ).`.A p.N . 6 6 6 6 6 6 6 6 6 6 6 6 6 6 6 ",
"6 6 6 6 6 6 6 6 6 6 6 6 6 6 6 6 6 6 6 6 6 # t s t ).  ; M g v M *   ).`.`.s.P.).b t - ).`.  y S X 4 6 6 6 6 6 6 6 6 6 6 6 6 6 6 ",
"6 6 6 6 6 6 6 6 6 6 6 6 6 6 6 6 6 6 6 6 6 # - , i ).; j.k.x.l.k.f.* ).`.`.q a s.e - - ).`.a.a.M X 6 6 6 6 6 6 6 6 6 6 6 6 6 6 6 ",
"6 6 6 6 6 6 6 6 6 6 6 K.6 6 6 6 k 6 6 6 6 # j.)., Q., j.m p.S M g.- ).`.`.M   p.`.g.* Q.`.).D.n . 6 6 6 6 6 6 6 6 6 6 6 6 6 6 6 ",
"6 6 6 6 6 6 6 6 6 6 6 6 6 6 6 6 6 6 6 6 6 # D k.e Q.* V z.j.j.z.C o ).`.`.t A `.P.A o ).`.- b A . 6 6 6 6 6 6 6 6 6 6 6 6 6 6 6 ",
"6 6 6 6 6 6 6 6 6 6 6 6 6 6 6 6 6 6 6 6 6 #     d `.,             - `.`.`.t s.L.    - `.`., m A . 6 6 6 6 6 6 6 6 6 6 6 6 6 6 6 ",
"6 6 6 6 6 6 6 6 6 6 6 6 6 6 6 6 6 6 6 6 6 # C d., `.E.Y.R.T.T.U.R.E.`.`.`.N . C D.B - Q.`.P.F.m X 6 6 6 6 6 6 6 6 6 6 6 6 6 6 6 ",
"6 6 6 6 6 6 6 6 6 6 6 6 6 6 6 6 6 6 6 6 6 # f.!.  1.t.t.t.w.t.t.t.q.1.1.6.l f G.`.d.o ).`.P.V - a 4 6 6 6 6 6 6 6 6 6 6 6 6 6 6 ",
"6 6 6 6 6 6 6 6 6 6 6 6 6 6 6 6 6 6 6 6 6 # p.T.. ^ / ^ ^ ^ ^ ^ ^ ^ ^ ^ ( 1 G `.`.p.o ).`.W.  t `.F.A 4 4 4 6 6 6 6 6 6 6 R 6 6 ",
"6 6 6 6 6 6 6 6 6 6 6 6 6 6 6 6 6 6 6 6 6 # p.H.X c.v.v.v.v.v.v.v.v.v.v.b.0 Z `.`.S , ).F.V s k.`.`.`.z 4 4 6 6 6 6 6 6 6 6 6 6 ",
"6 6 6 6 6 6 6 6 6 6 6 6 6 6 6 6 6 6 6 6 6 # p.D.o /.(./././././././././.(.t C `.`.p.- D.D.  S `.`.`.).l.r 6 6 6 6 6 6 k 6 6 6 6 ",
"6 6 6 6 6 6 6 6 6 6 6 6 6 6 6 6 6 6 6 6 6 # s.E.. ( ) ( ( ( ( ( ( ( ( ( ` 1 F `.`.d.  B s., p.`.Q.Q.P.z.N 2 6 6 6 6 6 6 6 6 6 6 ",
"6 6 6 6 6 6 6 6 6 6 6 6 6 6 6 6 6 6 6 6 6 # | J.@ _ O.` ` ` ` ` ` ` ` ` @.9 h L.F.f.. o   x.`.D.D.z.D.k.F > 6 6 6 6 6 6 6 6 6 6 ",
"6 6 6 6 6 6 6 6 6 6 6 6 6 6 6 6 6 6 6 6 6 2 O O e /././././././././././.^.I.d o - , g.L.F.Q.P.k.z.k.f.l.K.m 6 6 6 6 6 6 6 6 6 6 ",
"6 6 6 6 6 6 6 6 6 6 6 6 6 6 6 6 k 6 6 6 4 4 > . t `.`.`.`.`.`.`.`.`.`.`.`.`.G.a   . j.).!.P.z.g.d.D A G.W.B 3 6 6 6 6 6 6 6 6 6 ",
"6 6 6 6 6 6 6 6 6 6 6 6 6 6 6 6 6 6 R 6 6 4 4 & o V ).`.F z m B B M a W.`.`.`.D # 3 p.x.z.x.j.a.d.a.a.j.f.4 6 6 6 6 6 6 6 6 6 6 ",
"6 6 6 6 6 6 6 6 6 6 6 6 6 6 6 6 6 6 6 6 6 6 6 2     Q.`.V t o   .   b Q.`.`.).V # y f.d.S V s.g.k.z.z.m . # 3 6 6 6 6 6 6 6 6 6 ",
"6 6 k 6 6 6 6 6 6 6 6 6 6 6 6 6 6 6 6 6 6 6 6 6 & o Q.`.).`.A # : 5 `.`.`.`.).C X v D.z.v o R j.z.I.F.V M p.4 6 6 6 6 6 6 6 6 6 ",
"6 6 6 6 6 6 6 6 6 6 6 6 6 6 6 6 6 6 6 6 6 6 6 6 3 o Q.`.`.`.M # 3 , `.`.`.`.).V X > l.).s.- a a.D.P.G.D.W.F.i 6 6 6 6 6 6 6 6 6 ",
"6 6 6 6 6 6 6 6 6 6 6 6 6 6 6 6 6 6 6 6 6 6 6 6 2 o Q.`.`.).M # 3 , `.`.`.`.).V # 3 , f.D r i D D.G.j.f.W.z.% 6 6 6 6 6 6 6 6 6 ",
"6 6 6 6 6 6 6 6 6 6 6 6 6 6 6 6 6 6 6 6 6 6 6 6 3 o Q.`.`.).M # 3 , `.`.`.`.).C . 6 & ; % > M S a.l.f.v S i & 6 6 6 6 6 6 6 6 6 ",
"6 6 6 6 6 6 6 6 6 6 6 6 6 6 6 6 6 6 6 6 6 6 6 6 2 o Q.`.`.).M # 3 , `.`.`.`.`.C . 6 3 # 6 6 X e o r m # 5 z 4 4 6 6 6 6 6 6 6 6 ",
"6 6 6 6 6 6 6 6 6 6 6 6 6 6 6 6 6 6 6 6 6 6 6 6 & o Q.`.`.).M # 3 , `.`.`.`.).C . 6 6 6 6 6 6 3 r n & & $ 6 6 6 6 6 6 R 6 6 6 6 ",
"6 6 6 6 6 6 6 6 6 6 6 6 6 6 6 6 6 6 6 6 6 6 6 6 4 . Q.`.`.).M # 3 e `.`.`.`.`.D . 6 6 4 & : 6 6 4 M 3 6 6 6 6 6 6 6 6 6 6 6 6 6 ",
"6 6 6 6 6 6 6 6 6 6 6 6 6 6 6 6 6 6 6 6 6 3 $ & #   W.`.`.).M # 3 o S p.p.a.| t . 6 6 6 3 & 6 6 3 $ 3 6 6 6 6 6 6 6 7 7 6 6 6 6 ",
"6 6 6 6 6 6 6 6 6 6 6 6 6 6 6 6 6 6 6 6 3 - d a a s ).`.`.`.M # 6   - .     O   X 6 6 6 6 6 6 6 4 4 6 6 6 6 6 6 6 6 6 4 6 6 6 6 ",
"6 6 6 6 6 6 6 6 6 6 6 h.6 6 6 6 6 6 6 3 : f.`.`.`.`.`.`.).).M # 3 v `.W.G.F.I.G % 4 6 6 6 6 6 6 4 6 6 6 6 6 6 6 6 6 6 6 6 6 6 6 ",
"6 6 6 6 6 6 6 6 6 6 6 6 6 6 6 6 6 6 6 . j.`.`.`.`.`.`.`.L.L.V   i `.`.`.`._.W.L.p.. 6 6 6 6 6 6 6 6 6 6 6 6 6 k 6 6 6 6 6 6 6 6 ",
"6 6 6 6 6 6 6 6 6 6 6 6 6 6 6 6 6 6 6 . s.`.P.P.P.P.P.P.L.Q.A   a `.`.`.`.`.`.`.a.  6 6 6 6 6 6 6 6 6 6 6 6 6 6 6 6 6 6 k 6 6 6 ",
"6 6 6 6 6 6 6 6 6 6 6 6 6 6 6 6 6 6 6 . q a t t t t t t i v ,   * b b b n b m m e   6 6 6 6 6 6 6 6 6 6 6 6 6 6 6 6 6 6 6 6 6 6 ",
"6 6 6 6 6 6 6 6 6 6 6 6 6 6 6 6 6 6 3 # . . . . o . . . . . . . . . . . . . . . . X 6 6 6 6 6 6 6 6 6 6 6 6 6 6 6 6 6 6 6 6 6 6 ",
"6 6 6 6 6 6 6 6 6 6 6 6 6 6 6 6 6 6 6 6 4 4 4 4 6 6 6 6 6 4 6 6 4 4 4 6 6 6 6 3 6 6 6 6 6 6 6 6 6 6 6 6 6 6 6 6 6 6 6 6 6 R 6 6 ",
"6 6 6 6 6 6 6 6 6 6 6 6 6 6 6 6 6 6 6 6 6 6 6 6 6 6 6 6 6 6 6 6 6 6 6 6 6 6 6 6 6 6 6 6 6 6 6 6 6 6 6 6 6 6 6 6 6 6 6 6 6 6 6 6 ",
"6 6 6 6 6 6 6 6 6 6 6 6 6 6 6 6 6 6 6 6 6 6 6 6 6 6 6 6 6 6 6 6 6 6 6 6 6 6 6 6 6 6 6 6 6 6 6 6 6 6 6 6 6 6 6 6 6 6 6 6 6 6 6 6 ",
"6 6 6 6 6 6 6 6 6 6 6 6 6 6 6 6 6 6 6 6 6 6 6 6 6 6 6 6 6 6 6 6 6 6 6 6 6 6 6 6 6 6 6 6 6 6 6 6 6 6 6 6 6 6 6 6 6 6 6 6 6 6 6 6 ",
"6 6 6 6 6 6 6 6 6 6 6 6 6 6 6 6 h.6 6 6 6 6 6 6 6 6 6 6 6 6 6 6 6 6 6 6 6 6 6 6 6 6 6 6 6 6 6 6 6 6 6 6 6 6 6 6 6 6 6 6 6 6 6 6 "
};
