/* XPM */
static char *_3e5bbc27ef042c9e46f4b6479d034d9HLZV9KWTr5vKHxmI[] = {
/* columns rows colors chars-per-pixel */
"64 64 174 2 ",
"   c #020102",
".  c #06050A",
"X  c #09070E",
"o  c #0C0C0C",
"O  c #000013",
"+  c #0C0A14",
"@  c #0E0C19",
"#  c #090710",
"$  c #110E1D",
"%  c #100E16",
"&  c #0E1119",
"*  c #0D1015",
"=  c #131314",
"-  c #15131C",
";  c #19161A",
":  c #1B1B1B",
">  c #1A1510",
",  c #1F201F",
"<  c #32271D",
"1  c #010627",
"2  c #140F21",
"3  c #0F1525",
"4  c #151124",
"5  c #181524",
"6  c #1E1E24",
"7  c #181328",
"8  c #15192B",
"9  c #1D192D",
"0  c #14212D",
"q  c #232425",
"w  c #2D2D2D",
"e  c #282828",
"r  c #2D2B33",
"t  c #222C38",
"y  c #343435",
"u  c #3C3C3C",
"i  c #38363A",
"p  c #413F3C",
"a  c #40413E",
"s  c #564A3D",
"d  c #152E47",
"f  c #262B44",
"g  c #213448",
"h  c #3A4466",
"j  c #395370",
"k  c #454545",
"l  c #4C4C4C",
"z  c #525252",
"x  c #5B5B5B",
"c  c #565659",
"v  c #705F4B",
"b  c #636364",
"n  c #6B6B6B",
"m  c #747474",
"M  c #7C7C7C",
"N  c #777678",
"B  c #83817F",
"V  c #8B837A",
"C  c #9E8B75",
"Z  c #2A5C8D",
"A  c #3E668D",
"S  c #3A658E",
"D  c #376A94",
"F  c #0057BB",
"G  c #0061BB",
"H  c #1368BB",
"J  c #446689",
"K  c #5A6988",
"L  c #596F86",
"P  c #4D6F90",
"I  c #4A7596",
"U  c #5B7D9E",
"Y  c #4B7AA9",
"T  c #004EFF",
"R  c #0054FF",
"E  c #005AFF",
"W  c #0067FF",
"Q  c #006BFF",
"!  c #0074FF",
"~  c #027CFF",
"^  c #4F81AE",
"/  c #5082B4",
"(  c #5589BC",
")  c #578BB7",
"_  c #5C96B5",
"`  c #6185A9",
"'  c #6082A3",
"]  c #6B94BB",
"[  c #6E99BC",
"{  c #63A1BF",
"}  c #71A2BE",
"|  c #0181FF",
" . c #0587FF",
".. c #188AFF",
"X. c #0C97FF",
"o. c #3D9EFF",
"O. c #3397FF",
"+. c #588FC6",
"@. c #5696C2",
"#. c #65A4D0",
"$. c #67A7C8",
"%. c #45A2FF",
"&. c #4EA7FF",
"*. c #53A6FF",
"=. c #54AAFF",
"-. c #5BADFF",
";. c #41B5FF",
":. c #48B7FF",
">. c #4DBCFF",
",. c #41BCFF",
"<. c #5FB0FF",
"1. c #51BBFF",
"2. c #60AFFF",
"3. c #64B2FF",
"4. c #6DB5FF",
"5. c #71B7FF",
"6. c #73B9FF",
"7. c #4EC1FF",
"8. c #6BCCFF",
"9. c #63C9FF",
"0. c #75C3FF",
"q. c #7ACDFB",
"w. c #7AD3FF",
"e. c #6CE2FF",
"r. c #838383",
"t. c #8B8B8B",
"y. c #93918F",
"u. c gray58",
"i. c #9C9C9C",
"p. c #A09E9B",
"a. c #BFA88E",
"s. c #8B9BB4",
"d. c #A2A2A2",
"f. c #ABABAB",
"g. c #B9B2AA",
"h. c #B3B3B3",
"j. c #BBBBBB",
"k. c #C8B9A6",
"l. c #D6C2AA",
"z. c #D9CBBA",
"x. c #BEC0C2",
"c. c #82C0FF",
"v. c #91C4FF",
"b. c #93C9FF",
"n. c #84D5FF",
"m. c #85D9FF",
"M. c #8ADDFF",
"N. c #8CE4FF",
"B. c #92EDFF",
"V. c #81F2FF",
"C. c #96F3FF",
"Z. c #A0EAFF",
"A. c #C4C4C4",
"S. c #CBCBCB",
"D. c #C0CBDC",
"F. c #CACCD0",
"G. c #D3D3D3",
"H. c #DADADA",
"J. c #E5D7C6",
"K. c #E6D8C7",
"L. c #E8DAC9",
"P. c #F9EADA",
"I. c #E2E2E2",
"U. c #EDEDED",
"Y. c #E9E5E1",
"T. c #F3F1EF",
"R. c #E2EFFF",
"E. c #E6F4FF",
"W. c #E9F4FF",
"Q. c #EEFDFF",
"!. c #F3F3F3",
"~. c #F4FFFF",
"^. c #FFFFFF",
"/. c #F8F6F5",
/* pixels */
"7 7 7 7 7 7 7 7 7 7 7 7 7 7 7 7 7 7 7 7 7 7 7 7 7 7 7 7 7 7 7 7 7 7 7 7 7 7 7 7 7 7 7 7 7 7 7 7 7 7 7 7 7 7 7 7 7 7 7 7 7 7 7 7 ",
"7 7 7 D.7 7 7 7 7 7 7 7 7 h 7 7 7 7 7 7 7 7 7 7 7 7 7 7 7 7 7 7 7 7 7 7 7 7 7 7 7 7 7 7 f 7 7 7 7 7 7 7 7 7 7 7 7 7 7 7 7 7 7 7 ",
"7 7 7 7 7 7 7 7 7 7 7 7 7 7 7 7 7 7 7 7 7 7 7 7 7 7 7 7 7 7 7 7 7 7 7 7 7 7 7 7 7 7 7 7 7 7 7 7 7 7 7 7 7 7 7 7 7 7 7 7 7 7 7 7 ",
"7 7 7 7 7 7 7 7 7 7 7 7 7 7 7 7 7 7 7 7 7 7 7 7 7 7 7 7 7 7 7 9 7 7 7 7 7 7 7 7 7 7 7 7 7 7 7 7 7 7 7 7 7 7 7 7 7 7 7 7 7 7 7 7 ",
"7 7 7 7 7 7 7 7 7 7 7 7 7 7 7 7 7 7 7 7 7 7 7 7 7 4                           @ 7 7 7 8 7 7 7 7 7 7 7 7 7 7 7 7 7 7 7 7 7 7 7 7 ",
"7 7 7 7 7 7 7 7 7 7 7 7 7 7 7 7 7 7 K 7 7 7 7 4 4 # } [ [ H F G F H ] ( ( ( $.8 2 7 x.9 7 7 7 7 7 7 7 7 7 7 7 7 7 7 7 7 7 7 7 7 ",
"7 7 7 7 7 7 7 7 7 7 7 7 7 7 7 7 7 7 7 7 7 7 7 4 ; _ >.:.:.X. . .X.1.w.q.n.n.N.$.3 - 7 7 7 7 7 7 7 7 7 7 7 7 7 7 7 7 7 7 7 7 7 7 ",
"7 7 7 7 7 7 7 7 7 7 7 7 7 7 7 7 7 7 7 7 7 7 @ t @.,.! ! ! ! ..O.%.3.&.*.3.4.4.N.#.g @ 7 7 7 7 7 7 7 7 7 7 7 7 7 7 7 7 7 7 7 7 7 ",
"7 7 7 7 7 7 7 7 7 7 7 7 7 7 7 7 7 7 7 7 7 7 . L e.Q | | ! ..=.5.-.*.=.*.&.4.6.4.C.Y . 7 7 7 7 7 7 7 7 7 7 7 7 7 7 7 7 7 7 7 7 7 ",
"7 7 7 7 7 7 7 7 7 7 7 7 7 7 7 7 7 7 7 7 7 4 - I >.! | ~  .=.<.=.=.=.=.=.=.4.6.6.n.^ & 4 7 7 7 7 7 7 7 7 7 7 7 7 7 7 7 7 7 7 7 7 ",
"7 7 7 7 7 7 7 7 7 7 7 7 7 7 7 7 7 7 7 7 7 . ' >.! | ~ | =.-.=.=.-.=.=.=.=.=.4.6.4.n./ . 7 7 7 7 7 7 7 7 7 7 7 7 7 7 7 7 7 7 7 7 ",
"7 7 7 7 7 7 7 7 7 7 7 7 7 7 7 7 7 7 7 7 7   ' 7.! | ~ | =.<.=.=.=.=.=.=.=.=.4.6.5.m.+.  7 s.7 7 7 7 7 7 7 7 7 7 7 7 7 7 7 7 7 7 ",
"7 7 7 7 7 7 7 7 7 7 7 7 7 7 7 7 7 7 7 7 9   ' >.! | ~ | &.<.=.=.=.=.=.=.=.=.4.6.5.n./ . 7 7 7 7 7 7 7 7 7 7 7 7 7 7 7 7 7 7 7 7 ",
"7 7 7 7 7 7 7 7 7 7 7 7 7 7 7 7 7 7 7 7 9   U >.! | ~ | &.<.=.=.=.=.=.=.=.=.4.6.5.n./ . 7 7 7 7 7 7 7 7 7 7 7 7 7 7 7 7 f 7 7 7 ",
"7 s.7 7 7 7 7 7 7 7 7 7 7 7 7 7 7 7 # + #   ' >.! | ~ | &.<.=.=.=.=.=.=.=.=.4.6.5.n./   7 7 7 7 7 7 7 7 7 7 7 7 7 7 7 7 7 7 7 7 ",
"7 7 7 7 7 7 7 7 7 7 7 7 7 7 7 7 7 + x . z > P >.! | | | =.<.=.=.=.=.-.=.=.*.4.6.5.m./   7 7 7 7 7 7 7 h 7 7 7 7 7 7 7 7 7 7 7 7 ",
"7 7 7 h 7 7 7 7 7 7 7 7 7 7 7 2 - b d.o i.< J >.! | ~ | o.<.<.=.=.=.=.=.=.*.4.6.4.M.+.. 7 7 7 7 7 7 7 7 7 7 7 7 7 7 7 7 7 7 7 7 ",
"7 7 7 7 7 7 7 7 7 7 7 7 7 7 7 @ k i.        ` >.! | | ~ ~ o.<.-.=.=.=.=.=.-.4.6.5.q.I   7 7 7 7 7 7 7 7 7 7 7 7 7 7 7 7 7 7 7 7 ",
"7 7 7 7 7 7 7 7 7 7 7 7 7 7 7 + . o   @ %   U >.! | ~ | ~ ~ o.3.=.=.=.=.=.4.6.5.m.Y   $ 7 7 7 7 7 7 7 7 7 7 7 7 7 7 7 7 7 7 7 7 ",
"7 7 7 7 7 7 7 7 7 7 7 7 7 7 7 @ l d.  7 7 @ = D n.%.! | | ~ ! O.4.&.-.4.4.6.5.5.B.Y . 7 7 7 7 7 7 7 7 7 7 7 7 7 7 7 7 7 7 7 7 7 ",
"7 7 7 7 7 7 7 7 7 7 7 7 7 7 7 @ = w   7 7 7 # j Z.v.%.~ ! ! ..*.=.=.4.6.6.5.4.N.) 0 + 9 7 7 7 7 7 7 7 7 7 7 7 7 7 7 7 7 7 7 7 7 ",
"7 7 7 7 7 7 7 7 7 7 7 7 7 7 7 @ y n   7 7 7 # D e.w.w.,.;.:.9.8.9.m.M.M.m.m.B._ # + 7 4 7 7 7 7 7 7 7 7 7 7 7 7 7 7 7 7 7 7 7 7 ",
"7 7 7 7 7 7 7 7 7 7 7 7 7 7 7 @ y b   + + @ . d D Z Z A A A S Z S J A A A A I @ @ 7 7 7 7 7 7 7 7 7 7 7 s.7 7 7 7 7 7 7 7 7 7 7 ",
"7 7 7 7 7 7 7 7 7 7 7 7 7 7 7 @   > e e e k %                                 @ 7 7 7 7 7 7 7 7 7 7 7 7 7 7 7 7 7 7 f 7 7 7 7 7 ",
"7 7 7 7 7 7 7 7 7 7 7 7 7 7 4 - l A.h.h.A.h.u e o   e q q q q 0 q q 0 q q q o + 4 7 7 7 7 7 7 7 7 7 7 7 7 7 7 7 7 7 7 7 7 7 7 7 ",
"7 7 7 7 7 7 7 7 7 7 7 7 7 7 # k j.u.U./.!.q k ^.y.0 ~.W.R.R.R.R.R.E.R.R.Q.~.y   @ 9 7 7 7 7 7 7 7 7 7 7 7 7 7 7 7 7 7 7 7 7 7 7 ",
"7 7 7 7 7 7 7 7 7 7 7 7 7 7 X k j.I.^.^.w x T.^.^.U.^.^.W.E.E.E.E.E.E.E.Q.~.- p.u.+ 7 7 7 7 s.7 7 7 7 7 7 7 7 7 7 7 7 7 7 7 7 7 ",
"7 7 7 7 7 7 7 7 7 7 7 7 7 7 # y S.^.^.^.  n ^.^.^.^.^.^.~.^.^.^.^.^.^.^.^.^.o j.f.. 7 7 7 7 7 7 7 h 7 7 7 7 7 7 7 7 7 7 7 7 7 7 ",
"7 7 7 7 7 7 7 7 7 7 7 7 7 7 # z t.n ^.^.= m ^.^.^.^.^.^.^.B l u p a a a b /., S.j.X 9 7 7 7 7 7 7 7 7 7 7 7 7 7 7 7 7 7 7 7 7 7 ",
"7 7 7 7 7 7 7 7 7 7 7 7 7 7 # n z   ^.^.q : l H.U.r.^.^.^.    x k u x q   I.l y y X 4 7 7 7 7 7 7 7 7 7 7 7 7 7 7 7 7 7 7 7 7 7 ",
"7 7 7 7 7 7 7 7 7 7 7 7 7 7 # z u.r.^.^.q o e r.l   ^.^.^.= r.j.f.z.d.h.o I.l ; 5 # 7 7 7 7 7 7 7 7 7 7 7 7 7 7 7 7 7 7 7 7 7 7 ",
"7 7 7 7 7 7 7 7 7 7 7 D.7 7 # u j.U.^.^.o M ^.f.  u ^.^.^.= r.n b u.a f.o I.q G.x.+ 7 7 7 7 7 7 7 7 7 7 7 7 7 7 7 7 7 7 7 7 7 7 ",
"7 7 7 7 7 7 7 7 7 7 7 7 7 7 o b n . ^.^.= c H.^.t.; ^.^.^.= l A.d.i.j.M   I.y u.t.X 7 7 7 7 7 7 7 7 7 7 7 7 7 7 7 7 7 7 7 7 7 7 ",
"7 7 7 7 7 7 7 7 7 7 7 7 7 9 o b n o ^.^.q     h.f.> ^.^.^.e               T.z     X 7 7 7 7 7 7 7 7 7 7 7 7 7 7 7 7 7 7 7 7 7 7 ",
"7 7 7 7 7 7 7 7 7 7 7 7 7 7 + f A.G.^.^.> l A.M . a ^.^.^.P.L.K.K.K.J.K.P.^.q M N + 7 7 7 7 7 7 7 7 7 7 7 7 7 7 7 7 7 7 7 7 7 7 ",
"7 7 7 7 7 7 7 7 7 7 7 7 7 5 i : x G.^.^.= m ^.H.s 8 -.*.*.6.q.6.0.0.0.0.0.=.. z.h.X 7 7 7 7 7 7 7 7 7 7 7 7 7 7 7 7 7 7 7 7 7 7 ",
"7 7 7 7 7 7 7 7 7 7 7 7 b S.^.k   G.^.^.= b ^.^.a.O E R T T T T T T T T R R O l.i.X 7 7 7 7 7 7 7 7 7 7 7 7 7 7 7 7 7 7 7 K 7 7 ",
"7 7 7 7 7 7 7 7 7 7 7 r U.^.^.j.k b x.^.q b ^.^.V & b.v.v.v.v.v.v.v.v.v.v.b.# g.d.X 7 7 Y.7 7 7 7 7 7 7 7 7 7 7 7 7 7 7 7 7 7 7 ",
"7 7 7 7 7 7 7 7 7 7 6 f.U.^.^.^.f.  f.G.: b ^.^.r.; W.W.W.W.W.W.W.W.W.W.W.W.= f.p.# 7 7 7 7 7 7 7 7 7 7 7 7 7 7 7 7 7 f 7 7 7 7 ",
"7 7 7 7 7 7 7 7 7 2 z h.H.Y.U.^.i.> t.m   N ^.^.C . ! Q W W W W W W Q Q Q Q . z.f.X 7 7 7 7 7 7 7 7 7 7 7 7 7 7 7 7 7 7 7 7 7 7 ",
"7 7 7 7 7 7 7 7 7 2 m f.x.x.A.A.U.S.  .   t.G.G.v 1  .~ ~ ~ ! ! ! ~ ~ ~ ~  .O k.p.. 7 7 7 7 f 7 7 7 7 7 7 7 7 7 7 7 7 7 7 7 7 7 ",
"7 7 7 7 7 7 7 7 7 a j.j.i.f.j.h.G.U.S.G.h.e = o w F.E.R.W.W.W.W.W.W.W.W.E.W.y % = $ 7 7 7 7 7 7 7 7 7 7 7 7 7 7 7 7 7 7 7 7 7 7 ",
"7 7 7 7 7 7 7 7 4 z I.G.m m u.u.j.H.U./.h..   e x.^.^.^.^.^.^.^.^.^.^.^.^.^.k   2 7 7 7 7 7 7 7 7 7 7 K 7 7 7 7 7 7 7 7 7 7 7 7 ",
"7 7 7 7 7 7 7 7 7 - t.f.t.t.u.t.i.h.j.j.y.6 + x ^.^.^./.k x b b z u b ^.^.N = $ 7 7 7 7 7 7 7 7 7 7 7 7 7 7 7 7 7 7 7 7 7 7 7 7 ",
"7 7 7 7 7 7 7 7 7 @   k h.x.h.i.r.m N u.i.i # z !.^.^./.x         y l ^.^.    % 7 7 7 s.7 7 7 7 7 7 7 7 7 7 7 7 7 7 7 7 7 7 7 7 ",
"7 7 f 7 7 7 7 7 5 N b b A.H.k.f.r.= y h.S.c . l !.^.^.^.^.i $ @ x ^.!.^.^.q $ 7 7 7 7 7 7 7 7 7 7 7 7 7 7 7 7 7 7 7 7 7 7 7 7 7 ",
"7 7 7 7 7 7 7 7 9 A.I.F.F.H.A.u.k % N /.A.0 # z !.^.^.^.^.w 4 @ k !.^.^.^., $ 7 7 7 7 7 7 7 7 7 7 7 7 7 7 7 7 7 7 7 7 7 7 7 7 7 ",
"7 7 7 7 7 7 7 7 # f.U.i.d.A.A.r.y e n d.e 2 # z /.^.^.^.^.w $ @ k U.^.^.^.q 2 7 7 7 7 7 7 7 7 7 7 7 7 7 7 7 7 7 7 7 7 7 7 7 7 7 ",
"7 7 7 7 7 7 7 7 $ q B k y.h.y.M x 6 % : @ 7 X z /.^.^.^.^.w 4 @ k !.^.^.^.q $ 7 7 7 7 7 7 7 7 7 7 7 7 7 7 7 7 7 7 7 7 7 7 7 7 7 ",
"7 7 7 7 7 7 7 7 7 2 , % k y + q + 7 9 X $ 7 X z !.^.^.^.^.w 2 @ k U.^.^.^.q 2 7 7 7 7 7 7 7 7 7 7 7 7 7 7 h 7 7 7 7 7 7 7 7 7 7 ",
"7 7 7 7 7 7 7 7 7 7 @ $ $ k r $ 7 7 7 7 7 7 X z /.^.^.^.^.w 2 @ k !.^.^.^.q $ 7 7 7 7 7 7 7 7 7 7 7 7 7 7 7 7 7 7 7 7 K 7 7 7 7 ",
"7 7 7 7 7 7 7 7 7 7 7 7 7 c q 7 7 - - 7 7 7 X x ^.^.^.^.^.y 2 @ k U.^.^.^.: 2 9 7 7 7 7 7 7 7 7 7 7 7 7 7 7 7 7 7 7 7 7 7 7 7 7 ",
"7 7 7 9 9 7 7 7 7 7 7 7 7 @ 2 7 7 $ 4 7 7 7 X q M t.r.t.M > 2 @ k !.^.^.^.  @ % @ $ 7 7 7 7 7 7 7 7 7 7 7 7 7 7 7 7 7 7 7 7 7 7 ",
"7 7 7 7 7 7 7 7 7 7 7 7 7 7 7 7 7 7 7 7 7 7 #   o       =   4 % k !.^.^.^.z y i u - 4 7 7 7 7 7 7 7 7 7 7 7 7 7 7 7 7 7 7 7 7 7 ",
"7 7 7 7 7 7 7 7 7 7 7 s.7 7 7 7 7 7 7 7 7 4 = m I.G.A.H.^.z 4 # k U./.^.^.^.^.^.^.j.; 4 7 7 7 7 7 7 7 7 7 7 7 7 7 7 7 7 7 7 7 7 ",
"7 7 7 7 7 7 7 7 7 7 7 7 7 7 7 7 7 7 7 7 7 . N G.H.^.^.^.^.^.z   z G.S.^.^.^.^.^.^.^.h.. 7 7 7 7 7 7 7 7 7 7 7 f 7 7 7 7 7 7 7 7 ",
"7 7 7 7 7 7 7 7 7 7 7 7 7 7 7 7 7 7 7 7 7   M ^.^.^.^.^.^.^.x   x U.G.H.H.H.H.G.H./.d.  9 7 7 7 7 7 7 7 7 7 7 7 7 7 7 7 f 7 7 7 ",
"7 7 7 7 7 7 7 7 7 7 7 7 7 7 7 7 7 7 7 7 7 . : z z l k k l l ;   ; k y w w w w w w u q   7 7 7 7 7 7 7 7 7 7 7 7 7 7 7 7 7 7 7 7 ",
"7 7 7 7 7 7 7 7 7 7 7 7 7 7 7 7 7 7 7 7 7 # . . . . . . . . . . . . . . . . . . . . . X 7 7 7 7 7 7 7 7 7 7 7 7 7 7 7 7 7 7 7 7 ",
"7 7 7 7 7 7 7 7 7 7 7 7 7 7 7 7 7 7 7 7 7 7 7 7 7 7 7 4 9 4 7 7 7 7 7 7 7 7 7 9 7 7 7 7 7 7 7 7 7 7 7 7 7 7 7 7 7 7 7 7 7 K 7 7 ",
"7 7 7 7 7 7 7 7 7 7 7 7 7 7 7 7 7 7 7 7 7 7 7 7 7 7 7 7 7 7 7 7 7 7 7 7 7 7 7 7 7 7 7 7 7 7 7 7 7 7 7 7 7 7 7 7 7 7 7 7 7 7 7 7 ",
"7 7 7 7 7 7 7 7 7 7 7 7 7 7 7 7 7 7 7 7 7 7 7 7 7 7 7 7 7 7 7 7 7 7 7 7 7 7 7 7 7 7 7 7 7 7 7 7 7 7 7 7 7 7 7 7 7 7 7 7 7 7 7 7 ",
"7 7 7 7 7 7 7 7 7 7 7 7 7 7 7 7 7 7 7 7 7 7 7 7 7 7 7 7 7 7 7 7 7 7 7 7 7 7 7 7 7 7 7 7 7 7 7 7 7 7 7 7 7 7 7 7 7 7 7 7 7 7 7 7 ",
"7 7 7 7 7 7 7 7 7 7 7 7 7 7 7 7 s.7 7 7 7 7 7 7 7 7 7 7 7 7 7 7 7 7 7 7 7 7 7 7 7 7 7 7 7 7 7 7 7 7 7 7 7 7 7 7 7 7 7 7 7 7 7 7 "
};
