/* XPM */
static char *_571b397a4c044c78c7beebeae523c22mTr1ZjBhSEk1z88H[] = {
/* columns rows colors chars-per-pixel */
"64 64 174 2 ",
"   c #010102",
".  c #06050A",
"X  c #09070E",
"o  c #0B0B0C",
"O  c #150E06",
"+  c #171008",
"@  c #19130B",
"#  c #090710",
"$  c #0C0A14",
"%  c #0E0B18",
"&  c #040514",
"*  c #110D1B",
"=  c #0A1116",
"-  c #0C141B",
";  c #151515",
":  c #1B1B1C",
">  c #161519",
",  c #000027",
"<  c #130F20",
"1  c #0F1822",
"2  c #151124",
"3  c #181327",
"4  c #181328",
"5  c #141E2A",
"6  c #1E1C24",
"7  c #03193D",
"8  c #182836",
"9  c #242424",
"0  c #2C2C2C",
"q  c #24272C",
"w  c #252F3D",
"e  c #343434",
"r  c #35363C",
"t  c #38373E",
"y  c #3D3D3D",
"u  c #483D2F",
"i  c #473F35",
"p  c #1C2D42",
"a  c #262B44",
"s  c #3B3941",
"d  c #253D53",
"f  c #3D414D",
"g  c #2B455E",
"h  c #2C4862",
"j  c #3A4466",
"k  c #3D5169",
"l  c #444444",
"z  c #4D4B47",
"x  c #4D4D4C",
"c  c #484746",
"v  c #535353",
"b  c #5C5C5C",
"n  c #62605C",
"m  c #626262",
"M  c #6B6B6B",
"N  c #696865",
"B  c gray44",
"V  c #7B7B7B",
"C  c #3C6284",
"Z  c #3F6790",
"A  c #015CBD",
"S  c #0054BD",
"D  c #0061BD",
"F  c #2170BD",
"G  c #5A6988",
"H  c #467192",
"J  c #4977A5",
"K  c #004DFF",
"L  c #0047FB",
"P  c #0052FE",
"I  c #005BFF",
"U  c #0063FF",
"Y  c #5489AD",
"T  c #558ABD",
"R  c #5A8DBD",
"E  c #5286B9",
"W  c #5D96BD",
"Q  c #6A94BD",
"!  c #0081FF",
"~  c #1D88FE",
"^  c #0090FF",
"/  c #1197FF",
"(  c #2C94FF",
")  c #3090FF",
"_  c #3A9EFF",
"`  c #408CD7",
"'  c #4D92D7",
"]  c #5F9BD7",
"[  c #5395D7",
"{  c #619FC6",
"}  c #639DD7",
"|  c #66A6CE",
" . c #65A4D7",
".. c #6AACD7",
"X. c #6DB2DE",
"o. c #4EA7FF",
"O. c #4FA8FF",
"+. c #47A5FF",
"@. c #59A5FF",
"#. c #54AAFF",
"$. c #5BADFF",
"%. c #56A4FE",
"&. c #44B4FF",
"*. c #5DBDFF",
"=. c #60AFFF",
"-. c #64B2FF",
";. c #6DB5FD",
":. c #6EB3F2",
">. c #71B6FF",
",. c #73B9FF",
"<. c #79BDFF",
"1. c #70B7F5",
"2. c #5EC1FF",
"3. c #6CC4FF",
"4. c #76C1FF",
"5. c #78C4FF",
"6. c #74CCFF",
"7. c #7DCCFF",
"8. c gray51",
"9. c #8C8C8C",
"0. c #9A8F82",
"q. c #9A938C",
"w. c #959595",
"e. c #9E9E9E",
"r. c #AB9B89",
"t. c #A4A29F",
"y. c #8B9BB4",
"u. c #A4A4A4",
"i. c #ACACAB",
"p. c gray69",
"a. c #BCBCBD",
"s. c #BBB7B2",
"d. c #C5B4A0",
"f. c #C0BDBA",
"g. c #CAC4BC",
"h. c #DFD0BD",
"j. c #DBC4A8",
"k. c #BECBDE",
"l. c #81CFFF",
"z. c #9DCAFD",
"x. c #82D2FF",
"c. c #88D7FF",
"v. c #86DAFF",
"b. c #A0CCFF",
"n. c #8DE5FF",
"m. c #92ECFF",
"M. c #94F0FF",
"N. c #C5C5C5",
"B. c #CBCBCB",
"V. c #D6CFC7",
"C. c #CECFD0",
"Z. c #C0CBDC",
"A. c #D5D5D5",
"S. c #DDDDDD",
"D. c #D6D6D9",
"F. c #F4DFC5",
"G. c #E2E0DE",
"H. c #C3CFE2",
"J. c #C4D0E2",
"K. c #CEDBE4",
"L. c #C8D4E3",
"P. c #CDE2FB",
"I. c #D1E6FF",
"U. c #D3E9FF",
"Y. c #E5E5E5",
"T. c #EAE8E7",
"R. c #EBEAEB",
"E. c #E9E5E1",
"W. c #F8F4EF",
"Q. c #EEFFFF",
"!. c #F5F5F5",
"~. c #F5FFFF",
"^. c #FFFFFF",
"/. c #F4F7FB",
/* pixels */
"4 4 4 4 4 4 4 4 4 4 4 4 4 4 4 4 4 4 4 4 4 4 4 4 4 4 4 4 3 4 4 4 4 4 4 4 4 4 4 4 4 4 4 4 4 4 4 4 4 4 4 4 4 4 4 4 4 4 4 4 4 4 4 4 ",
"4 4 4 Z.4 4 4 4 4 4 4 4 4 j 4 4 4 4 4 4 4 4 4 4 4 4 4 4 4 4 4 4 4 4 4 4 4 4 4 4 3 4 4 4 a 4 4 4 4 4 4 4 4 4 4 4 4 4 4 3 4 4 4 4 ",
"4 4 4 4 4 4 4 4 4 4 4 4 4 4 4 4 4 4 4 4 4 4 4 4 4 4 4 4 4 4 4 4 4 4 4 4 4 4 4 4 4 4 4 4 4 4 4 4 4 4 4 4 4 4 4 4 4 4 4 4 4 4 4 4 ",
"4 4 4 4 4 4 4 4 4 4 4 4 3 4 4 4 4 4 4 4 4 4 4 4 4 4 4 4 4 4 4 4 4 4 4 4 4 4 4 4 4 4 4 4 4 4 4 4 4 4 4 4 4 4 4 4 4 4 4 4 4 4 4 4 ",
"4 4 4 4 4 4 4 4 4 4 4 4 4 4 4 4 4 4 4 4 4 4 4 4 4 4 4 4 4 4 3 3 4 4 3 3 4 3 3 3 4 4 4 3 4 4 4 4 4 4 4 4 4 4 4 4 4 4 4 4 4 4 4 4 ",
"4 4 4 4 4 4 4 4 4 4 4 4 4 4 4 4 4 4 G 4 4 4 4 4 .       .               .   . 2 4 4 k.3 4 4 4 4 4 4 4 4 4 4 4 4 4 4 4 4 4 4 4 4 ",
"4 4 4 4 4 4 4 4 4 4 4 4 4 4 4 4 4 4 4 4 4 4 4 X J W T T Q F S D A D R R T R W # 3 3 4 4 4 4 3 3 4 4 4 4 4 4 4 4 4 4 4 4 4 4 4 4 ",
"4 4 4 4 4 4 4 4 4 4 4 4 4 4 4 4 4 4 4 4 4 4 # Z v.v.v.6.6.*./ ! ^ &.3.6.v.x.v.| & 4 4 4 4 4 3 3 4 4 4 4 4 4 4 4 4 4 4 4 4 4 4 4 ",
"4 4 4 4 4 4 4 4 4 4 4 4 4 4 4 4 4 4 4 4 3 $ C x.5.>.-.#.o.-.+.) _ -.#.o.$.,.,.v.W 5 2 3 4 4 3 3 4 4 4 4 4 4 4 4 4 4 4 4 4 4 4 4 ",
"4 4 4 4 4 4 4 4 4 4 4 4 4 4 4 4 4 4 4 4 3   5.x.>.<.$.O.#.#.$.-.-.#.#.#.O.>.<.>.M.p % 3 4 4 3 3 4 4 4 4 4 4 4 4 4 4 4 4 4 4 4 4 ",
"4 4 4 4 4 4 4 4 4 4 4 4 4 4 4 4 4 4 4 4 % g :.5.,.;.#.#.#.#.$.#.#.#.#.#.#.-.,.,.6.H 2 2 4 4 4 4 4 4 4 4 4 4 4 4 4 4 4 4 4 4 4 4 ",
"4 4 4 4 4 4 4 4 4 4 4 4 4 4 4 4 4 4 4 < = 7.5.,.,.#.#.#.#.#.#.#.#.#.#.#.#.O.;.,.,.n.g $ 4 y.4 4 4 4 4 4 4 4 4 4 4 4 4 4 4 4 4 4 ",
"4 4 4 4 4 4 4 4 4 4 4 4 4 4 4 4 4 4 4 < = ;.5.>.,.$.#.#.#.#.#.#.#.#.#.#.#.#.;.,.,.x.d $ 4 4 4 4 4 4 4 4 4 4 4 4 4 4 4 4 4 4 4 4 ",
"4 4 4 4 4 4 4 4 4 4 4 4 4 4 4 4 4 4 4 3 = ;.5.,.,.$.O.#.#.$.#.#.#.#.#.#.#.#.;.,.<.7.d $ 4 4 4 4 4 4 4 4 4 4 4 4 4 4 4 4 a 4 4 4 ",
"4 y.4 4 4 4 4 3 4 4 4 4 4 4 4 4 4 4 4 < = 1.5.,.,.$.#.#.#.#.#.#.#.#.#.#.#.#.;.<.,.7.g $ 4 4 4 4 4 4 4 4 4 4 4 4 4 4 4 4 4 4 4 4 ",
"4 4 4 4 4 4 4 4 4 4 4 4 4 4 4 4 4 4 4 < = :.4.,.,.$.O.#.#.#.#.#.$.#.#.#.#.#.>.,.,.7.g o 4 4 4 4 4 4 4 j 4 4 4 4 4 4 4 4 3 4 4 4 ",
"4 4 4 j 4 4 4 4 4 4 3 4 4 4 4 4 4 4 4 < = 1.5.>.,.$.O.#.#.#.#.#.#.#.#.#.#.#.>.,.,.7.d % 4 4 4 4 4 4 4 4 4 4 4 4 4 4 4 4 4 4 4 4 ",
"4 4 4 4 4 4 4 4 4 4 4 4 4 4 4 4 4 4 4 < - x.7.>.,.#.o.#.#.#.$.#.#.#.#.#.#.O.;.,.>.m.h $ 4 4 4 4 4 4 4 4 4 4 4 4 4 4 4 4 4 4 4 4 ",
"4 4 4 4 4 4 4 4 4 4 4 4 4 4 4 4 4 4 4 < o C 1.<.,.;.#.o.#.#.#.#.#.#.#.O.o.$.>.,.5.Y 5 % 4 4 4 4 4 4 4 4 4 4 4 4 4 4 4 4 4 4 4 4 ",
"4 4 4 4 4 4 4 4 4 4 4 4 4 4 4 4 4 4 4 4 2   4.7.>.,.-.-.#.#.#.#.#.#.#.$.-.,.,.,.m.p % 4 4 4 4 4 4 4 4 4 4 4 4 4 4 4 4 4 4 4 4 4 ",
"4 4 4 4 4 4 4 3 4 4 4 4 4 4 4 4 4 4 4 4 3   J 7.4.;.,.<.;.O.O.#.#.#.$.,.,.,.,.x.| 8 * 4 4 4 4 4 4 4 4 4 4 4 4 4 4 4 3 4 4 4 4 4 ",
"4 4 4 4 4 4 4 4 4 4 4 4 4 4 4 4 4 4 4 4 3 2   Y v.x.7.7.l.6.*.*.2.3.l.x.7.7.x.X.- $ 4 4 4 4 4 4 4 3 4 4 4 4 4 4 4 4 4 4 4 4 4 4 ",
"4 4 4 4 4 4 4 4 4 4 4 4 4 4 4 4 4 4 4 4 4 4 $   E ..] ] } } [ ` ' } } ] ]  . .1 o 4 4 4 4 4 4 4 4 4 4 4 y.4 4 4 4 4 4 4 4 4 4 4 ",
"4 4 4 4 4 4 4 4 4 4 4 4 4 4 4 4 4 4 4 4 4 3 %                                   $ 4 4 4 4 4 4 4 4 4 4 4 4 4 4 4 4 4 a 4 4 4 4 4 ",
"4 4 4 4 4 4 4 4 4 4 4 4 4 4 4 4 4 4 4 4 4 4 s                                   t 4 4 4 4 4 4 4 4 4 4 4 4 4 4 4 4 4 4 4 4 4 4 4 ",
"4 4 4 4 4 4 4 4 4 4 3 4 4 4 4 4 4 4 4 4 4 6 e Y.t.q K.L.H.L.H.H.H.H.H.K.k.  e.Y.l 6 4 4 4 4 4 4 4 4 4 4 4 3 4 4 4 4 4 4 4 4 4 4 ",
"4 4 4 4 4 4 4 4 4 4 4 4 4 4 4 4 4 4 4 G r y N.^.^.D.Q.Q.Q.Q.Q.~.Q.Q.~.^.^.B.^.^.C.c t 4 4 4 y.4 4 4 4 4 4 4 4 4 4 4 4 4 4 4 4 4 ",
"4 4 4 4 4 4 4 4 4 4 4 4 4 4 4 4 4 4 4 4 . l ^.^.^.^./.^.^.^.^.^.^.^.^.^.^.^.^.^.^.m   4 4 4 4 4 4 j 4 4 4 4 4 4 4 4 4 4 4 4 4 4 ",
"4 4 4 4 4 4 4 4 4 4 4 4 4 4 4 4 4 4 4 4 . x ^.^.^.^.^.a.n c z z z z N A.^.^.^.^.^.M . 4 4 4 4 4 4 4 4 4 4 4 4 4 4 4 4 4 4 4 4 4 ",
"4 4 4 4 4 4 4 4 4 4 4 3 4 4 4 4 4 4 4 4 : ; x u.^.e.^.b   v x r v y   t.^.8.^.a.x : ; 3 4 4 4 4 4 4 4 4 4 4 4 4 4 4 4 4 4 4 4 4 ",
"4 4 4 4 4 4 4 4 4 4 4 3 4 4 4 4 4 4 4 4 6 o q b b 9 ^.b x A.w.B.9.D.; i.^.  m M q o > 4 4 4 4 4 4 4 4 4 4 4 4 4 4 4 4 4 4 4 4 4 ",
"4 4 4 4 4 4 4 4 4 4 4 k.4 4 4 4 a 4 4 4 . v ^.!.o y ^.m v e.v a.y B.: u.^.: o D.^.B   4 4 4 4 4 4 4 4 4 4 4 4 4 4 4 4 4 4 4 4 4 ",
"4 4 4 4 4 4 4 4 4 4 4 4 4 4 4 4 4 4 3 3 % e N.R.D.i ^.b ; p.w.9.t.w.  u.^.o C.!.N.c $ 4 4 4 4 4 4 4 4 4 4 4 4 4 4 4 4 4 4 4 4 4 ",
"4 4 4 4 4 4 4 4 4 4 4 4 4 4 4 4 4 4 4 3 9     b a.l ^.q.O @ @ + @ O + V.^.; a.8.    : 3 4 4 4 4 4 4 4 4 4 4 4 4 4 4 4 4 4 4 4 4 ",
"4 4 4 4 4 4 4 4 4 4 4 4 4 4 4 4 4 4 3 3 $ y Y.s.  s ^.^.R.Y.Y.T.T.Y.R.^.^.6 . u.Y.x . 4 4 4 4 4 4 4 4 4 4 4 4 3 4 4 4 4 4 4 4 4 ",
"4 4 4 4 4 4 4 4 4 4 4 4 4 4 4 4 4 4 3 3 . c ^.^.r.7 ~ ( _ _ _ _ _ _ _ ( ~ X 0.^.^.n . 4 4 4 4 4 4 4 4 4 4 4 4 4 4 4 4 4 4 4 4 4 ",
"4 4 4 4 4 4 4 4 4 4 4 4 4 4 4 4 4 4 4 4 o l !.^.F.7 I U I I I I I I I U P   V.^.^.b   3 4 4 4 4 4 4 4 4 4 4 4 4 4 4 4 4 4 G 4 4 ",
"4 4 4 4 4 4 4 4 4 4 4 4 4 4 4 4 4 4 4 4 X l ^.^.s.r U.U.I.I.I.I.I.I.I.U.P.o i.^.^.b . 3 T.4 4 4 4 4 4 4 4 4 4 4 4 4 4 4 4 4 4 4 ",
"4 4 4 4 4 4 4 4 4 4 4 4 4 4 4 4 4 4 4 4 . l ^.^.g.w z.b.b.b.b.b.b.b.b.b.z.o f.^.^.b . 4 4 4 4 4 4 4 4 4 4 4 4 4 4 4 4 a 4 4 4 4 ",
"4 4 4 4 4 4 4 4 4 4 4 4 4 4 4 4 4 4 4 4 . b ^.^.j., P P K K K K K K K P L   d.^.^.V   4 4 4 4 4 4 4 4 4 4 4 4 4 4 4 4 4 4 4 4 4 ",
"4 4 4 4 4 4 4 4 4 4 4 4 4 4 4 4 4 4 4 4 s b 9.V u k #.#.@.@.@.@.@.@.@.#.%.f i V 9.m s 4 4 4 a 4 4 4 4 4 4 4 4 4 4 4 4 4 4 4 4 3 ",
"4 4 4 4 4 4 4 4 4 4 4 4 4 4 4 4 4 4 4 4 4 2     e W.^.^.^.^.^.^.^.^.^.^.^.!.c     * 4 4 4 4 4 4 4 4 4 4 4 4 4 4 4 4 4 4 4 4 4 4 ",
"4 4 4 4 4 4 4 4 4 4 4 4 4 4 4 4 a 4 4 4 4 4 * 0 T.^.^.^.A.A.E.T.T.G.S.^.^.^.!.y $ 4 4 4 4 4 4 4 4 4 4 G 4 4 4 4 4 4 4 4 4 4 4 4 ",
"4 4 4 4 4 4 4 4 4 4 4 4 4 4 4 4 4 4 G 4 4 4 < 0 D.^.^.Y.; o o   .   y ^.^.^.R.l * 4 4 4 4 4 4 4 4 4 4 4 4 4 4 4 4 4 4 4 4 4 4 4 ",
"4 4 4 4 4 4 4 4 4 4 4 4 4 4 4 4 4 4 4 4 4 4 < q D.^.^.^.Y.N.; .   l Y.^.^.^.Y.e * 3 4 y.4 4 4 4 4 4 4 4 4 4 4 4 4 4 4 4 4 4 4 4 ",
"4 4 a 4 4 4 4 4 4 4 4 4 4 4 4 4 4 4 4 4 4 4 $ 9 D.^.^.^.^.^.0 X   m ^.^.^.^.Y.y $ 3 4 4 4 4 4 4 4 4 4 4 4 4 4 4 4 4 4 4 4 4 4 4 ",
"4 4 4 4 4 4 4 4 4 4 4 4 4 4 4 4 4 4 4 4 4 4 $ 0 D.^.^.^.^.R.0 .   b ^.^.^.^.Y.y $ 3 4 4 4 4 4 4 4 4 3 4 4 4 4 4 4 4 4 4 4 4 4 4 ",
"4 4 4 4 4 4 4 4 4 4 4 4 4 4 4 4 4 4 4 4 3 4 $ 0 A.^.^.^.^.R.0 X   n ^.^.^.^.Y.y $ 3 2 4 4 4 4 4 4 4 4 4 4 4 4 4 4 4 4 4 4 4 4 4 ",
"4 4 4 4 4 4 4 4 4 4 4 4 4 4 4 4 4 4 4 4 3 4 $ 0 A.^.^.^.^.R.0 .   b ^.^.^.^.Y.y # 4 4 4 4 4 4 4 4 4 4 4 4 4 4 4 4 2 4 4 4 4 4 4 ",
"4 4 4 4 4 4 4 4 4 4 4 4 4 4 4 4 4 4 4 3 3 4 % 0 A.^.^.^.^.R.0 X   b ^.^.^.^.Y.y $ 4 4 4 4 4 4 4 4 4 4 4 4 j 4 4 4 4 4 4 4 4 4 4 ",
"4 4 4 4 4 4 4 4 4 4 4 4 4 4 4 4 4 4 4 4 4 4 $ 0 !.^.^.^.^.!.9 .   N ^.^.^.^.^.c # 4 4 4 4 4 4 4 4 4 4 4 4 4 4 4 4 4 4 G 4 4 4 4 ",
"4 4 4 4 6 4 4 4 4 4 4 4 4 4 4 4 4 4 4 4 4 4 $ 6 e.a.N.a.a.N.y X   l a.a.N.a.u.0 # 4 4 4 4 4 4 4 4 4 4 4 4 4 4 4 4 4 4 4 4 4 4 4 ",
"4 4 4 4 4 4 4 4 4 4 4 4 4 4 4 4 4 4 4 4 3 3 $   .       . V b .     o       o   $ 4 4 4 4 4 4 4 4 4 4 4 4 4 4 4 4 4 4 4 4 4 4 4 ",
"4 4 4 4 4 4 4 4 4 4 4 4 4 4 4 4 4 4 4 4 3 3 % e a.p.i.u.Y.R.0 .   N R.i.i.i.N.c $ 4 4 4 4 4 4 4 4 4 4 4 4 4 4 4 4 4 4 4 4 4 4 4 ",
"4 4 4 4 4 4 4 4 4 4 4 y.4 4 4 4 4 4 4 4 3 $ x B.C.^.^.^.^.^.9   M ^.^.^.^.^.D.B.b # 4 4 4 4 4 4 4 4 4 4 4 4 4 4 4 4 4 4 4 4 4 4 ",
"4 4 4 4 4 4 4 4 4 4 4 4 4 4 4 4 4 4 4 4 4 $ b ^.^.^.^.^.^.^.e   9.^.^.^.^.^.^.^.B . 4 4 4 4 4 4 4 4 4 4 4 4 4 a 4 4 4 4 4 4 4 4 ",
"4 4 4 4 4 4 4 4 4 4 4 4 4 4 4 4 4 4 4 4 4 & ; x b x x x v x $   9 v x x x x b v : . 4 4 4 4 4 4 4 4 4 4 4 4 4 4 4 4 4 4 a 4 4 4 ",
"4 4 4 4 4 4 4 4 4 4 4 4 4 4 4 4 4 4 4 4 4 % . . X . # . . .     .   .   . . . .   % 4 4 4 4 4 4 4 4 4 4 4 4 4 4 4 4 4 4 4 4 4 4 ",
"4 4 4 4 4 4 4 4 4 4 4 4 4 4 4 4 4 4 4 4 4 4 4 4 4 4 4 4 3 3 4 4 4 4 4 4 3 3 3 3 4 4 4 4 4 4 4 4 4 4 4 4 4 4 4 4 4 4 4 4 4 4 4 4 ",
"4 4 4 4 4 4 4 4 4 4 4 4 4 4 4 4 4 4 4 4 4 4 4 4 4 4 3 3 3 3 4 4 4 4 4 4 3 3 3 3 4 4 4 4 4 4 4 4 4 4 4 4 4 4 4 4 4 4 4 4 4 G 4 4 ",
"4 4 4 4 4 4 4 4 4 4 4 4 4 4 4 4 4 2 3 4 4 4 4 4 4 4 4 4 4 4 4 4 4 4 4 4 3 4 4 4 4 4 4 4 4 4 4 4 4 4 4 4 4 4 4 4 4 4 4 4 4 4 4 4 ",
"4 4 4 4 4 4 4 4 4 4 4 4 4 4 4 4 4 4 3 3 4 4 4 4 4 4 4 4 4 4 4 4 4 4 4 4 3 4 4 4 4 4 4 4 4 4 4 4 4 4 4 4 4 4 4 4 4 4 4 4 4 4 4 4 ",
"4 4 4 4 4 4 4 4 4 4 4 4 4 4 4 4 4 4 4 4 4 4 4 4 4 4 4 4 4 4 4 4 4 4 4 4 4 4 4 4 4 4 4 4 4 4 4 4 4 4 4 4 4 4 4 4 4 4 4 4 4 4 4 4 ",
"4 4 4 4 4 4 4 4 4 4 4 4 4 4 4 4 y.4 4 4 4 4 4 4 4 4 4 4 4 4 4 4 4 4 4 4 4 4 4 4 4 4 4 4 4 4 4 4 4 4 4 4 4 4 4 4 4 4 4 4 4 4 4 4 "
};
