/* XPM */
static char *_10f59d6db134bfb8ac2b79f709c1c18HdqjtcvKhngMCd9a[] = {
/* columns rows colors chars-per-pixel */
"64 64 152 2 ",
"   c #010102",
".  c #090300",
"X  c #0E0A06",
"o  c #06050A",
"O  c #09070D",
"+  c #0B0B0B",
"@  c #16110B",
"#  c #1C140C",
"$  c #090710",
"%  c #0C0A14",
"&  c #00061D",
"*  c #0E0B18",
"=  c #110D1B",
"-  c #0A1116",
";  c #0C141A",
":  c #131314",
">  c #16131C",
",  c #1B1B1C",
"<  c #23180E",
"1  c #21201E",
"2  c #322012",
"3  c #130F20",
"4  c #001128",
"5  c #0E1B2A",
"6  c #151124",
"7  c #181327",
"8  c #1F1D23",
"9  c #181328",
"0  c #121D2A",
"q  c #1F1C28",
"w  c #021F3D",
"e  c #252526",
"r  c #2A2522",
"t  c #2B2B2B",
"y  c #23212A",
"u  c #323232",
"i  c #36343C",
"p  c #38363E",
"a  c #3C3C3C",
"s  c #46423E",
"d  c #5A4939",
"f  c #092A4C",
"g  c #1C2E43",
"h  c #1E3753",
"j  c #133659",
"k  c #262B44",
"l  c #2B3C4E",
"z  c #3B3943",
"x  c #253D53",
"c  c #253D58",
"v  c #1B445A",
"b  c #27425A",
"n  c #2B455E",
"m  c #1F4260",
"M  c #1F4568",
"N  c #2C4862",
"B  c #3A4466",
"V  c #274E76",
"C  c #2E5377",
"Z  c #305672",
"A  c #305979",
"S  c #355975",
"D  c #444343",
"F  c #4D4D4D",
"G  c #535353",
"H  c #5F5B57",
"J  c #5C5C5C",
"K  c #615D5A",
"L  c #65635F",
"P  c #646464",
"I  c #6A6A6A",
"U  c #726E6A",
"Y  c #737373",
"T  c #7C7C7C",
"R  c #85766E",
"E  c #897B6E",
"W  c #8B7F73",
"Q  c #8E8378",
"!  c #90867C",
"~  c #345F8A",
"^  c #3C6284",
"/  c #2D6094",
"(  c #3C6793",
")  c #3F6996",
"_  c #3D6E9D",
"`  c #5A6988",
"'  c #467192",
"]  c #4773A0",
"[  c #5183A6",
"{  c #4A80B7",
"}  c #4D87BE",
"|  c #4481BC",
" . c #5489BD",
".. c #588FBE",
"X. c #5C95BD",
"o. c #5F9ABF",
"O. c #548BC1",
"+. c #508ECC",
"@. c #5F9CC6",
"#. c #5792CD",
"$. c #5B99D6",
"%. c #5E9CDB",
"&. c #5594D3",
"*. c #619FC6",
"=. c #62A0DF",
"-. c #5EA1E4",
";. c #61A3E6",
":. c #64A6E8",
">. c #66A8EB",
",. c #6CB8ED",
"<. c #6CB2F3",
"1. c #6FB4FB",
"2. c #70B6FF",
"3. c #71B8FF",
"4. c #76C2FF",
"5. c #79C5FF",
"6. c #7DCBFF",
"7. c #848485",
"8. c #868788",
"9. c #8C8B8B",
"0. c #948B83",
"q. c #98928B",
"w. c #969696",
"e. c #98979C",
"r. c #9B9C9C",
"t. c #96999B",
"y. c #A49D96",
"u. c #8B9BB4",
"i. c #A4A4A4",
"p. c #ACACAC",
"a. c #B4B4B4",
"s. c #BDBDBD",
"d. c #82CFFF",
"f. c #82D3FF",
"g. c #86DAFF",
"h. c #88DDFF",
"j. c #8DE5FF",
"k. c #8FEAFF",
"l. c #91EBFF",
"z. c #94F2FF",
"x. c #9BFEFF",
"c. c #C6C6C6",
"v. c #CACACA",
"b. c #C0CBDC",
"n. c gray84",
"m. c #DBDBDB",
"M. c #E0DBD6",
"N. c #E4E4E4",
"B. c #EAEAEA",
"V. c #E9E5E1",
"C. c #F3F3F3",
"Z. c #FFFFFF",
/* pixels */
"9 9 9 9 9 9 9 9 9 9 9 9 9 9 9 9 9 9 9 9 9 9 9 9 9 9 9 9 9 9 9 9 9 9 9 9 9 9 9 9 9 9 9 9 9 9 9 9 9 9 9 9 9 9 9 9 9 9 9 9 9 9 9 9 ",
"9 9 9 b.9 9 9 9 9 9 9 9 9 B 9 9 9 9 9 9 9 9 9 9 9 9 9 9 9 9 9 9 9 9 9 9 9 9 9 9 9 9 9 9 k 9 9 9 9 9 9 9 9 9 9 9 9 9 9 9 9 9 9 9 ",
"9 9 9 9 9 9 9 9 9 9 9 9 9 9 9 9 9 9 9 9 9 9 9 9 9 9 9 9 9 9 9 9 9 9 9 9 9 9 9 9 9 9 9 9 9 9 9 9 9 9 9 9 9 9 9 9 9 9 9 9 9 9 9 9 ",
"9 9 9 9 9 9 9 9 9 9 9 9 9 9 9 9 9 9 9 9 9 9 9 9 9 9 9 9 9 9 9 9 9 9 9 9 9 9 9 9 9 9 9 9 9 9 9 9 9 9 9 9 9 9 7 9 9 9 9 9 9 9 9 9 ",
"9 9 9 9 9 9 9 9 9 9 9 9 9 9 9 9 9 9 9 9 9 9 9 9 9 9 9 9 9 9 9 9 9 9 9 9 9 9 9 9 9 9 9 9 9 9 9 9 9 9 9 9 9 9 9 9 9 9 9 9 9 9 9 9 ",
"9 9 9 9 9 9 9 9 9 9 9 9 9 7 9 9 9 9 ` 9 9 9 9 9 o                           O 6 9 9 b.9 9 9 9 9 9 9 9 9 9 9 9 9 9 9 9 9 9 9 9 9 ",
"9 9 9 9 9 9 9 9 9 9 9 9 9 9 9 9 9 9 9 9 9 9 9 O ] o. . . . .O.O.O.|  . . ...X.% 6 7 9 9 9 9 9 9 9 9 9 9 9 9 9 9 9 9 9 9 9 9 9 9 ",
"9 9 9 9 9 9 9 9 9 9 9 9 9 9 9 9 9 9 9 9 9 9 O ( g.h.f.f.f.f.f.f.f.f.f.f.f.g.g.@.$ 7 9 9 9 9 9 9 9 9 9 9 9 9 9 9 9 9 9 9 9 9 9 9 ",
"9 9 9 9 9 9 9 9 9 9 9 9 9 9 9 9 9 9 9 9 7 $ ^ f.5.1.3.3.3.3.3.3.3.3.3.3.3.3.3.g.X.0 6 7 9 9 9 9 9 9 9 9 9 9 9 9 9 9 9 9 9 9 9 9 ",
"9 9 9 9 9 9 9 9 9 9 9 9 9 9 9 9 9 9 9 9 9   5.f.3.3.3.3.3.3.3.3.3.3.3.3.3.3.1.3.z.g = 9 9 9 9 9 9 9 9 9 9 9 9 9 9 9 9 9 9 9 9 9 ",
"9 9 9 9 9 9 9 9 9 9 9 9 9 9 9 9 9 9 9 7 * n <.4.3.3.3.1.5.6.6.6.6.6.6.3.1.3.3.3.6.' 6 6 9 9 9 9 9 9 9 9 9 9 9 9 9 9 9 9 9 9 7 9 ",
"9 9 9 9 9 9 9 9 9 9 9 9 9 9 9 9 9 9 9 = ; 6.6.2.3.3.3.6.-.%.%.+.$.=.&.4.4.1.3.3.3.j.n % 9 u.9 9 9 9 9 9 9 9 9 9 9 9 9 9 9 9 9 9 ",
"9 9 9 9 9 9 9 9 9 9 9 9 9 9 9 9 9 9 9 6 - 1.5.3.1.3.5.,.b . . 1 +   : #.6.4.1.3.3.f.x * 7 7 9 7 9 9 9 9 9 9 9 9 9 9 9 9 9 9 9 9 ",
"9 9 9 9 9 7 9 9 9 9 9 9 9 9 9 9 9 9 9 6 - 1.4.3.3.4.3.5 ! s r M.L . y.1 } f.3.3.3.6.x * 7 7 9 9 9 9 9 9 9 9 9 9 9 9 9 9 k 9 9 9 ",
"9 u.9 9 9 9 9 9 9 9 9 9 9 9 9 9 9 9 7 6 - <.5.3.6.>.5 0.P .   #     t y.r _ f.3.3.f.x * 7 9 9 9 9 9 9 9 9 9 9 9 9 9 9 9 9 9 9 9 ",
"9 9 9 9 9 9 9 9 9 9 9 9 9 9 9 9 7 7 7 6 - 1.5.1.6.:.  ,   0 S m Z b   ,   ) g.1.3.f.x * 7 7 9 9 9 9 9 B 9 9 9 9 9 9 9 9 9 9 9 9 ",
"9 9 9 B 9 9 9 9 9 9 9 9 9 9 9 9 9 9 9 3 - 1.5.2.5.:.o I < C z.f.k.;.. U # ( 6.3.3.f.x * 9 9 9 9 7 9 9 9 9 9 9 9 9 9 9 9 9 9 9 9 ",
"9 9 9 9 9 9 9 9 9 9 9 9 9 9 9 9 9 9 9 3 ; f.6.1.6.:.o D @ C g.3.6.$.  D + _ g.3.2.k.N * 9 9 9 9 9 9 9 9 9 9 9 9 9 9 9 9 9 9 9 9 ",
"9 9 9 9 9 9 9 9 9 9 9 9 9 9 9 9 9 9 9 3 + ~ <.6.k.5.o s @ ~ x.g.z.<.  D X { x.g.f.[ 0 * 9 9 9 9 9 9 9 9 9 9 9 9 9 9 9 9 9 9 9 9 ",
"9 9 9 9 9 9 9 9 9 9 9 9 9 9 9 7 9 9 9 9 6   6.d.A f   H .   v j v w   K   & v N 6.c * 9 9 9 9 9 9 9 9 9 9 9 9 9 9 9 9 9 9 9 9 9 ",
"9 9 9 9 9 9 9 9 9 9 9 9 9 9 9 9 9 9 9 9 6 o *./ 2 E r.8.t.q.R E R Q r.8.t.0.R d h b = 7 9 9 9 9 9 9 9 9 9 9 9 9 9 9 9 9 9 9 9 9 ",
"9 9 9 9 9 9 9 9 9 9 9 9 9 9 9 9 9 9 9 9 6 3 o 4 9.Z.Z.Z.Z.Z.Z.Z.Z.Z.Z.Z.Z.Z.Z.n.  % 7 7 9 9 9 9 9 9 9 9 9 9 9 9 9 9 9 9 9 9 9 7 ",
"9 9 9 9 9 9 9 9 9 9 9 9 9 9 9 9 9 9 9 9 9 9 %   7.Z.Z.Z.Z.Z.Z.Z.Z.Z.Z.Z.Z.Z.Z.s.o 9 9 9 9 9 9 9 9 9 9 9 u.9 9 9 9 9 9 9 9 9 9 9 ",
"9 9 9 9 7 9 9 9 9 9 9 9 9 9 9 9 9 9 9 9 9 9 %   7.Z.Z.Z.Z.Z.Z.Z.Z.Z.Z.Z.Z.Z.Z.s.$ 9 9 9 9 9 9 9 9 9 9 9 9 9 9 9 9 9 k 9 9 9 9 9 ",
"9 9 9 9 9 9 9 9 9 9 9 9 9 9 9 9 9 9 9 9 9 9 z   T Z.Z.Z.Z.Z.Z.Z.Z.Z.Z.Z.Z.Z.Z.p.> 9 9 9 9 9 9 9 9 9 9 9 9 9 9 9 9 9 9 9 9 9 9 9 ",
"9 9 9 9 9 9 9 9 9 9 9 9 9 9 9 9 9 9 9 9 9 q J G I Z.Z.Z.Z.Z.Z.Z.Z.Z.Z.Z.Z.Z.Z.a.  y 9 9 9 9 9 9 9 9 9 9 9 9 9 9 9 9 9 9 9 9 9 9 ",
"9 9 9 9 9 9 9 9 9 9 9 9 9 9 9 9 9 9 9 ` i a n.T J Z.Z.Z.Z.Z.Z.Z.Z.Z.Z.Z.Z.Z.Z.i.a Y i 9 9 9 u.9 9 9 9 9 9 9 9 9 9 9 9 9 9 9 9 9 ",
"9 9 9 9 9 9 9 9 9 9 9 9 9 9 9 9 9 9 9 9 o D Z.7.G Z.Z.Z.Z.Z.Z.Z.Z.Z.Z.Z.Z.Z.Z.w.J 9.  9 9 9 9 9 9 B 6 9 9 9 9 9 9 9 9 9 9 9 9 9 ",
"9 9 9 9 9 9 9 9 9 9 9 9 9 9 9 9 9 9 9 9 o F Z.9.G Z.Z.Z.Z.Z.Z.Z.Z.Z.Z.Z.Z.Z.Z.w.J w.o 9 9 9 9 9 9 9 9 9 9 9 7 9 9 9 9 9 9 9 9 9 ",
"9 9 9 9 9 9 9 9 9 9 9 9 9 9 9 9 9 9 9 9 8 : G e Y Z.Z.Z.Z.Z.Z.Z.Z.Z.Z.Z.Z.Z.Z.a., e : 9 9 9 9 9 9 9 9 9 9 9 9 9 9 9 9 9 9 9 9 9 ",
"9 9 9 9 9 9 9 9 7 9 9 9 9 9 9 9 9 9 9 9 8 + t + T Z.Z.Z.Z.Z.Z.Z.Z.Z.Z.Z.Z.Z.Z.a.+ : > 9 9 9 9 9 9 9 9 9 9 9 9 9 9 9 9 9 9 9 9 9 ",
"9 9 9 9 9 9 9 9 9 9 9 b.9 9 9 9 k 9 9 9 o G Z.w.G Z.Z.Z.Z.Z.Z.Z.Z.Z.Z.Z.Z.Z.Z.t.P r.o 9 9 9 9 9 9 9 9 9 9 9 9 9 9 9 9 9 9 9 9 9 ",
"9 9 9 9 9 9 9 9 9 9 9 9 9 9 9 9 9 9 9 9 % u m.P J Z.Z.Z.Z.Z.Z.Z.Z.Z.Z.Z.Z.Z.Z.i.D I   9 9 9 9 9 9 9 9 9 9 9 9 9 9 9 9 9 9 9 9 9 ",
"9 9 9 9 9 9 9 9 9 9 9 9 9 9 9 9 9 9 9 9 e       a Z.Z.Z.Z.Z.Z.Z.Z.Z.Z.Z.Z.Z.Z.G     : 9 9 9 9 9 9 9 9 9 9 9 9 9 9 9 9 9 9 9 9 9 ",
"9 9 9 9 9 9 9 9 9 9 9 9 9 9 9 9 9 9 9 9 - Y F t 8.u Z.Z.Z.Z.Z.Z.Z.Z.Z.Z.Z.Z.u T F u t.9 9 9 9 9 9 9 9 9 9 9 9 9 9 9 9 9 9 9 9 9 ",
"9 9 9 9 9 9 9 9 9 9 9 9 9 9 9 9 9 9 9 6 , u o o Y I G N.Z.Z.Z.Z.Z.Z.Z.Z.C.J I Y , : J 9 9 9 9 9 9 9 9 9 9 9 9 9 9 9 9 9 9 9 9 9 ",
"9 9 9 9 9 9 9 9 9 9 9 9 9 9 9 9 9 9 9 9 8   p 1 o D   n.Z.Z.Z.Z.Z.Z.Z.Z.N.  a : % % o 9 9 9 9 9 9 9 9 9 9 9 9 9 9 9 9 9 9 ` 9 9 ",
"9 9 9 9 9 9 9 9 9 9 9 9 9 9 9 9 9 9 9 9 + F Z.w.  D   n.Z.Z.Z.Z.Z.Z.Z.Z.B.+ D + L 8.  9 V.9 9 9 9 9 9 9 9 9 9 9 9 9 9 9 9 9 9 9 ",
"9 9 9 9 9 9 9 9 9 9 9 9 9 9 9 9 9 9 9 9 o D Z.i.+ I   n.Z.Z.Z.Z.Z.Z.Z.Z.B.+ I , L 9.o 9 9 9 9 9 9 9 9 9 9 9 9 9 9 9 9 k 9 9 9 9 ",
"9 9 9 9 9 9 9 9 9 9 9 9 9 9 9 9 9 9 9 9   J Z.w.o t . C.Z.Z.Z.Z.Z.Z.Z.Z.Z.+ e + Y i.  9 9 9 9 9 9 9 9 9 9 9 9 9 9 9 9 9 9 9 9 9 ",
"9 9 9 9 9 9 9 9 9 9 9 9 9 9 9 9 9 9 9 9 p H i.e   I   8.p.p.p.p.p.p.p.p.w.  I t u I i 9 9 9 k 9 9 9 9 9 9 9 9 9 9 9 9 9 9 9 9 9 ",
"9 9 9 9 9 9 9 9 9 9 9 9 9 9 9 9 9 9 9 9 9 6     a G J G P I I P I I P F G G a :   % 9 9 9 9 9 9 9 9 9 9 9 9 9 9 9 9 9 9 9 9 9 9 ",
"9 9 9 9 9 9 9 9 9 9 9 9 9 9 9 9 k 9 9 9 9 9 = t B.Z.Z.Z.B.B.Z.Z.Z.C.C.Z.Z.Z.C.a = 9 9 9 9 9 9 9 9 9 9 ` 9 9 9 9 9 9 9 9 9 9 9 9 ",
"9 9 9 9 9 9 9 9 9 9 9 9 9 9 9 9 9 9 ` 9 9 9 3 u n.Z.Z.B., + + o o o D Z.Z.Z.B.s = 9 9 9 9 9 9 9 9 9 9 9 9 9 9 9 9 9 9 9 9 9 9 9 ",
"9 9 9 9 9 9 9 9 9 9 9 9 9 9 9 9 9 9 9 9 9 9 3 e n.Z.Z.Z.N.c.,     D N.Z.Z.Z.N.i = 6 9 u.9 9 9 9 9 9 9 9 9 9 9 9 9 9 9 9 9 9 9 9 ",
"9 9 k 9 9 9 9 9 9 9 9 9 9 9 9 9 9 9 9 9 9 9 % e n.Z.Z.Z.Z.Z.t O   P Z.Z.Z.Z.N.a % 9 9 9 q 9 9 9 9 9 9 9 9 9 9 9 9 9 9 9 9 9 9 9 ",
"9 9 9 9 9 9 9 9 9 9 9 9 9 9 9 9 9 9 9 9 9 9 % t n.Z.Z.Z.Z.B.t O   J Z.Z.Z.Z.N.a $ 9 9 9 9 9 9 9 9 9 9 9 9 9 9 9 9 9 9 9 9 9 9 9 ",
"9 9 9 9 9 9 9 9 9 9 9 9 9 9 9 9 9 9 9 9 7 9 % t n.Z.Z.Z.Z.B.t o   J Z.Z.Z.Z.N.a % 9 7 7 9 9 9 9 9 9 9 9 9 9 9 9 9 9 9 9 9 9 9 9 ",
"9 9 9 9 9 9 9 9 9 9 9 9 9 9 9 9 9 9 9 9 9 9 % t n.Z.Z.Z.Z.B.t o   J Z.Z.Z.Z.N.a $ 9 7 7 9 9 9 9 9 9 9 9 9 9 9 9 9 9 9 9 9 9 9 9 ",
"9 9 9 9 9 9 9 9 9 9 9 9 9 9 9 9 9 9 9 6 9 9 % t n.Z.Z.Z.Z.B.t O   J Z.Z.Z.Z.N.a $ 9 7 7 9 9 9 9 9 9 9 9 9 B 9 9 9 9 9 9 9 9 9 9 ",
"9 9 9 9 9 9 9 9 9 9 9 9 9 9 9 9 9 9 9 9 9 9 % t C.Z.Z.Z.Z.C.e o   P Z.Z.Z.Z.Z.D $ 9 9 9 9 9 9 9 9 9 9 9 9 9 9 9 9 9 9 ` 9 9 9 9 ",
"9 9 9 9 q 9 9 9 9 9 9 9 9 9 9 9 9 9 9 9 9 9 % e t.s.c.s.s.c.a o   D s.s.c.s.i.t $ 9 9 9 9 9 9 9 9 9 9 9 9 9 9 9 9 9 9 9 9 9 9 9 ",
"9 9 9 9 9 9 9 9 9 9 9 9 9 9 9 9 9 9 9 9 9 9 *   +       o Y J o     +       +   % 9 9 9 9 9 9 9 9 9 9 9 9 9 9 9 9 9 9 9 9 9 9 9 ",
"9 9 9 9 9 9 9 9 9 9 9 9 9 9 9 9 9 9 9 9 9 7 * u s.p.p.i.B.B.t o   P C.p.p.p.c.D % 9 9 9 9 9 9 9 9 9 9 9 9 9 9 9 9 9 9 9 9 9 9 9 ",
"9 9 9 9 9 9 9 9 9 9 9 u.9 9 9 9 9 9 9 9 9 % F v.n.Z.Z.Z.Z.Z.e   I Z.Z.Z.Z.Z.n.v.J $ 9 9 9 9 9 9 9 9 9 9 9 9 9 9 9 9 9 9 9 9 9 9 ",
"9 9 9 9 9 9 9 9 9 9 9 9 9 9 9 9 9 9 9 9 9 $ J Z.Z.Z.Z.Z.Z.Z.u   9.Z.Z.Z.Z.Z.Z.Z.Y O 9 9 9 9 9 9 9 9 9 9 9 9 9 k 9 9 9 9 9 9 9 9 ",
"9 9 9 9 9 9 9 9 9 9 9 9 9 9 9 9 9 9 9 9 9 $ : F J F F F G F +   e G G F F G G G , o 9 9 9 9 9 9 9 9 9 9 9 9 9 9 9 9 9 9 k 9 9 9 ",
"9 9 9 9 9 9 9 9 9 9 9 9 9 9 9 9 9 9 9 9 9 *   o o o o o o O           o   o o O o * 9 9 9 9 7 9 9 9 9 9 9 9 9 9 9 9 9 9 9 9 9 9 ",
"9 9 9 9 9 9 9 9 9 9 9 9 9 9 9 9 9 9 9 9 9 9 9 9 9 9 9 9 7 9 9 9 9 9 9 9 9 9 9 9 9 9 9 9 9 9 9 9 9 9 9 9 9 9 9 9 9 9 9 9 9 9 9 9 ",
"9 9 9 9 9 9 9 9 9 9 9 9 9 9 9 9 9 9 9 9 9 9 9 9 9 9 9 9 9 9 9 9 9 9 9 9 9 9 9 9 9 9 9 9 9 9 9 9 9 9 9 9 9 9 9 9 9 9 9 9 9 ` 9 9 ",
"9 9 9 9 9 9 9 9 9 9 9 9 9 9 9 9 9 9 9 9 9 9 9 9 9 9 9 9 9 9 9 9 9 9 9 9 9 9 9 9 9 9 9 9 9 9 9 9 9 9 9 9 9 9 9 9 9 9 9 9 9 9 9 9 ",
"9 9 9 9 9 9 9 9 9 9 9 9 9 9 9 9 9 9 9 9 9 9 9 9 9 9 9 9 9 9 9 9 9 9 9 9 9 9 9 9 9 9 9 9 9 9 9 9 9 9 9 9 9 9 9 9 9 9 9 9 9 9 9 9 ",
"9 9 9 9 9 9 9 9 9 9 9 9 9 9 9 9 9 9 9 9 9 9 9 9 9 9 9 9 9 9 9 9 9 9 9 9 9 9 9 9 9 9 9 9 9 9 9 9 9 9 9 9 9 9 9 9 9 9 9 9 9 9 9 9 ",
"9 9 9 9 9 9 9 9 9 9 9 9 9 9 9 9 u.9 9 9 9 9 9 9 9 9 9 9 9 9 9 9 9 9 9 9 9 9 9 9 9 9 9 9 9 9 9 9 9 9 9 9 9 9 9 9 9 9 9 9 9 9 9 9 "
};
